<svg width="20" height="19" viewBox="0 0 20 19" fill="none" xmlns="http://www.w3.org/2000/svg">
<path opacity="0.5" d="M4.5 7.25H8.16667" stroke="currentColor" stroke-width="1.5" stroke-linecap="round" stroke-linejoin="round"/>
<path d="M18.0969 8.16699H15.7118C14.0755 8.16699 12.75 9.39808 12.75 10.917C12.75 12.4359 14.0764 13.667 15.7108 13.667H18.0969C18.1739 13.667 18.2115 13.667 18.2436 13.6652C18.7386 13.6349 19.1327 13.2692 19.1648 12.8099C19.1667 12.7806 19.1667 12.7448 19.1667 12.6742V9.15974C19.1667 9.08916 19.1667 9.05341 19.1648 9.02408C19.1318 8.56483 18.7386 8.19908 18.2436 8.16883C18.2115 8.16699 18.1739 8.16699 18.0969 8.16699Z" stroke="currentColor" stroke-width="1.5"/>
<path d="M18.2179 8.16683C18.1464 6.45083 17.9173 5.3985 17.1757 4.65783C16.1023 3.5835 14.3734 3.5835 10.9167 3.5835H8.16668C4.70993 3.5835 2.98109 3.5835 1.90768 4.65783C0.83426 5.73216 0.833344 7.46008 0.833344 10.9168C0.833344 14.3736 0.833343 16.1024 1.90768 17.1758C2.98201 18.2492 4.70993 18.2502 8.16668 18.2502H10.9167C14.3734 18.2502 16.1023 18.2502 17.1757 17.1758C17.9173 16.4352 18.1473 15.3828 18.2179 13.6668" stroke="currentColor" stroke-width="1.5"/>
<path opacity="0.5" d="M4.5 3.58345L7.92375 1.31286C8.40536 1.00001 8.96736 0.833496 9.54167 0.833496C10.116 0.833496 10.678 1.00001 11.1596 1.31286L14.5833 3.58345" stroke="currentColor" stroke-width="1.5" stroke-linecap="round"/>
<path opacity="0.5" d="M15.4918 10.917H15.4993" stroke="currentColor" stroke-width="2" stroke-linecap="round" stroke-linejoin="round"/>
</svg>
