<svg width="21" height="19" viewBox="0 0 21 19" fill="none" xmlns="http://www.w3.org/2000/svg">
<path d="M6.4643 0.143066C5.52657 0.143066 4.62725 0.515578 3.96417 1.17865C3.3011 1.84173 2.92858 2.74105 2.92858 3.67878C2.92858 4.61651 3.3011 5.51583 3.96417 6.17891C4.62725 6.84198 5.52657 7.21449 6.4643 7.21449C7.40203 7.21449 8.30135 6.84198 8.96443 6.17891C9.6275 5.51583 10 4.61651 10 3.67878C10 2.74105 9.6275 1.84173 8.96443 1.17865C8.30135 0.515578 7.40203 0.143066 6.4643 0.143066ZM4.10716 3.67878C4.10716 3.36924 4.16813 3.06272 4.28658 2.77674C4.40504 2.49076 4.57867 2.23091 4.79755 2.01203C5.01643 1.79315 5.27628 1.61952 5.56226 1.50106C5.84824 1.38261 6.15475 1.32164 6.4643 1.32164C6.77384 1.32164 7.08036 1.38261 7.36634 1.50106C7.65232 1.61952 7.91217 1.79315 8.13105 2.01203C8.34993 2.23091 8.52356 2.49076 8.64201 2.77674C8.76047 3.06272 8.82144 3.36924 8.82144 3.67878C8.82144 4.30393 8.5731 4.90348 8.13105 5.34553C7.689 5.78758 7.08945 6.03592 6.4643 6.03592C5.83915 6.03592 5.2396 5.78758 4.79755 5.34553C4.3555 4.90348 4.10716 4.30393 4.10716 3.67878ZM14.7143 1.71449C14.3532 1.71449 13.9956 1.78563 13.6619 1.92383C13.3283 2.06203 13.0251 2.26459 12.7698 2.51995C12.5144 2.77531 12.3118 3.07847 12.1736 3.41212C12.0354 3.74576 11.9643 4.10336 11.9643 4.46449C11.9643 4.82563 12.0354 5.18323 12.1736 5.51687C12.3118 5.85052 12.5144 6.15368 12.7698 6.40904C13.0251 6.6644 13.3283 6.86696 13.6619 7.00516C13.9956 7.14336 14.3532 7.21449 14.7143 7.21449C15.4436 7.21449 16.1431 6.92476 16.6588 6.40904C17.1746 5.89331 17.4643 5.19384 17.4643 4.46449C17.4643 3.73515 17.1746 3.03568 16.6588 2.51995C16.1431 2.00423 15.4436 1.71449 14.7143 1.71449ZM13.1429 4.46449C13.1429 4.04773 13.3084 3.64803 13.6031 3.35333C13.8978 3.05863 14.2975 2.89307 14.7143 2.89307C15.1311 2.89307 15.5308 3.05863 15.8255 3.35333C16.1202 3.64803 16.2857 4.04773 16.2857 4.46449C16.2857 4.88126 16.1202 5.28096 15.8255 5.57566C15.5308 5.87036 15.1311 6.03592 14.7143 6.03592C14.2975 6.03592 13.8978 5.87036 13.6031 5.57566C13.3084 5.28096 13.1429 4.88126 13.1429 4.46449ZM0.571442 10.5538C0.571442 10.0849 0.757697 9.63525 1.08923 9.30372C1.42077 8.97218 1.87043 8.78592 2.3393 8.78592H10.5893C10.7454 8.78645 10.8955 8.80583 11.0395 8.84407C10.6887 9.17839 10.3805 9.5547 10.1218 9.96449H2.3393C2.18301 9.96449 2.03312 10.0266 1.92261 10.1371C1.8121 10.2476 1.75001 10.3975 1.75001 10.5538V10.9569L1.75708 11.0354C1.76494 11.1093 1.78066 11.2201 1.81523 11.356C1.90683 11.7194 2.06975 12.061 2.29451 12.3609C2.82408 13.0657 3.9563 13.8931 6.4643 13.8931C7.67587 13.8931 8.56608 13.7006 9.22216 13.4216C9.24323 13.8245 9.30563 14.2242 9.40837 14.6144C8.63444 14.8972 7.66723 15.0716 6.4643 15.0716C3.66873 15.0716 2.14916 14.1311 1.35244 13.0681C1.03323 12.6426 0.801925 12.1578 0.672013 11.642C0.620592 11.4366 0.587722 11.227 0.573799 11.0158L0.571442 10.971V10.5538ZM20.2143 13.1074C20.2143 14.4619 19.6762 15.7609 18.7185 16.7186C17.7607 17.6764 16.4617 18.2145 15.1072 18.2145C13.7527 18.2145 12.4536 17.6764 11.4959 16.7186C10.5381 15.7609 10 14.4619 10 13.1074C10 11.7529 10.5381 10.4538 11.4959 9.49606C12.4536 8.53828 13.7527 8.00021 15.1072 8.00021C16.4617 8.00021 17.7607 8.53828 18.7185 9.49606C19.6762 10.4538 20.2143 11.7529 20.2143 13.1074ZM15.6682 9.99592C15.6336 9.87375 15.5601 9.7662 15.4589 9.68961C15.3576 9.61301 15.2341 9.57157 15.1072 9.57157C14.9802 9.57157 14.8567 9.61301 14.7554 9.68961C14.6542 9.7662 14.5807 9.87375 14.5462 9.99592L13.9836 11.8015H12.1623C11.5911 11.8015 11.353 12.5636 11.8158 12.9141L13.289 14.0298L12.7264 15.8354C12.5497 16.4019 13.1719 16.8725 13.6339 16.5229L15.1072 15.4071L16.5804 16.5229C17.0424 16.8733 17.6647 16.4019 17.4879 15.8354L16.9253 14.0298L18.3985 12.9141C18.8605 12.5644 18.6232 11.8015 18.052 11.8015H16.2307L15.6682 9.99592Z" fill="currentColor"/>
</svg>
