<svg width="22" height="22" viewBox="0 0 22 22" fill="none" xmlns="http://www.w3.org/2000/svg">
<path fill-rule="evenodd" clip-rule="evenodd" d="M2.67666 5.1296C2.47572 5.18467 2.3049 5.31731 2.20175 5.49832C2.09861 5.67934 2.0716 5.89392 2.12666 6.09485L2.85541 8.74219C3.00207 9.27294 3.55207 9.58277 4.08282 9.43519L6.73291 8.69727C6.83586 8.67298 6.93286 8.62815 7.01807 8.56546C7.10328 8.50277 7.17495 8.42352 7.22878 8.33245C7.28261 8.24139 7.3175 8.14039 7.33135 8.03552C7.3452 7.93064 7.33772 7.82405 7.30937 7.72213C7.28102 7.62022 7.23238 7.52508 7.16636 7.44242C7.10035 7.35976 7.01831 7.29129 6.92519 7.24111C6.83206 7.19093 6.72976 7.16007 6.62442 7.15039C6.51908 7.14071 6.41287 7.1524 6.31216 7.18477L4.21849 7.76777L3.64282 5.67777C3.61537 5.57824 3.56857 5.4851 3.5051 5.40368C3.44162 5.32225 3.36272 5.25414 3.2729 5.20323C3.18309 5.15232 3.08412 5.11961 2.98165 5.10698C2.87918 5.09434 2.77523 5.10203 2.67574 5.1296H2.67666Z" fill="currentColor"/>
<path fill-rule="evenodd" clip-rule="evenodd" d="M5.17274 4.92686C8.55708 1.54253 14.0397 1.53061 17.4185 4.90853C20.7973 8.28828 20.7854 13.7709 17.4002 17.1552C14.0167 20.5395 8.53416 20.5514 5.15533 17.1726C4.24793 16.2664 3.55426 15.169 3.12491 13.9606C3.08464 13.8472 3.06712 13.7269 3.07334 13.6066C3.07955 13.4864 3.10939 13.3686 3.16114 13.2599C3.2129 13.1512 3.28555 13.0538 3.37496 12.9731C3.46437 12.8925 3.56879 12.8303 3.68224 12.79C3.7957 12.7498 3.91598 12.7322 4.03621 12.7385C4.15644 12.7447 4.27426 12.7745 4.38296 12.8263C4.49166 12.878 4.5891 12.9507 4.66972 13.0401C4.75034 13.1295 4.81256 13.2339 4.85283 13.3474C5.19084 14.2989 5.73701 15.1629 6.45149 15.8764C9.10983 18.5348 13.4319 18.5311 16.104 15.8581C18.777 13.186 18.7807 8.86394 16.1223 6.20561C13.464 3.54728 9.14099 3.55094 6.46983 6.22303C5.82269 6.86922 5.31098 7.63803 4.96466 8.48444L3.26699 7.79328C3.7052 6.72052 4.35311 5.74602 5.17274 4.92686ZM11 7.33311C11.2431 7.33311 11.4763 7.42969 11.6482 7.60159C11.8201 7.7735 11.9167 8.00666 11.9167 8.24978V11.3976L13.7628 12.5059C13.9617 12.6353 14.1026 12.8368 14.1559 13.068C14.2093 13.2992 14.1709 13.5421 14.0488 13.7456C13.9268 13.9491 13.7306 14.0973 13.5015 14.1591C13.2725 14.2209 13.0283 14.1915 12.8205 14.077L10.6177 12.7561C10.4547 12.6583 10.3197 12.52 10.226 12.3545C10.1324 12.189 10.0832 12.0021 10.0833 11.8119V8.24978C10.0833 8.00666 10.1799 7.7735 10.3518 7.60159C10.5237 7.42969 10.7569 7.33311 11 7.33311Z" fill="currentColor"/>
</svg>
