<svg width="20" height="16" viewBox="0 0 20 16" fill="none" xmlns="http://www.w3.org/2000/svg">
<path d="M3.8125 4.875C3.63016 4.875 3.4553 4.94743 3.32636 5.07636C3.19743 5.2053 3.125 5.38016 3.125 5.5625C3.125 5.74484 3.19743 5.9197 3.32636 6.04864C3.4553 6.17757 3.63016 6.25 3.8125 6.25H13.4375C13.6198 6.25 13.7947 6.17757 13.9236 6.04864C14.0526 5.9197 14.125 5.74484 14.125 5.5625C14.125 5.38016 14.0526 5.2053 13.9236 5.07636C13.7947 4.94743 13.6198 4.875 13.4375 4.875H3.8125ZM3.8125 7.625C3.63016 7.625 3.4553 7.69743 3.32636 7.82636C3.19743 7.9553 3.125 8.13016 3.125 8.3125V11.0625C3.125 11.2448 3.19743 11.4197 3.32636 11.5486C3.4553 11.6776 3.63016 11.75 3.8125 11.75H6.5625C6.74484 11.75 6.9197 11.6776 7.04864 11.5486C7.17757 11.4197 7.25 11.2448 7.25 11.0625V8.3125C7.25 8.13016 7.17757 7.9553 7.04864 7.82636C6.9197 7.69743 6.74484 7.625 6.5625 7.625H3.8125ZM4.5 10.375V9H5.875V10.375H4.5ZM9.3125 7.625C9.13016 7.625 8.9553 7.69743 8.82636 7.82636C8.69743 7.9553 8.625 8.13016 8.625 8.3125C8.625 8.49484 8.69743 8.6697 8.82636 8.79864C8.9553 8.92757 9.13016 9 9.3125 9H13.4375C13.6198 9 13.7947 8.92757 13.9236 8.79864C14.0526 8.6697 14.125 8.49484 14.125 8.3125C14.125 8.13016 14.0526 7.9553 13.9236 7.82636C13.7947 7.69743 13.6198 7.625 13.4375 7.625H9.3125ZM9.3125 10.375C9.13016 10.375 8.9553 10.4474 8.82636 10.5764C8.69743 10.7053 8.625 10.8802 8.625 11.0625C8.625 11.2448 8.69743 11.4197 8.82636 11.5486C8.9553 11.6776 9.13016 11.75 9.3125 11.75H13.4375C13.6198 11.75 13.7947 11.6776 13.9236 11.5486C14.0526 11.4197 14.125 11.2448 14.125 11.0625C14.125 10.8802 14.0526 10.7053 13.9236 10.5764C13.7947 10.4474 13.6198 10.375 13.4375 10.375H9.3125ZM0.375 3.5C0.375 2.77065 0.664731 2.07118 1.18046 1.55546C1.69618 1.03973 2.39565 0.75 3.125 0.75H14.125C14.8543 0.75 15.5538 1.03973 16.0695 1.55546C16.5853 2.07118 16.875 2.77065 16.875 3.5C17.6043 3.5 18.3038 3.78973 18.8195 4.30546C19.3353 4.82118 19.625 5.52065 19.625 6.25V12.4375C19.625 13.3492 19.2628 14.2235 18.6182 14.8682C17.9735 15.5128 17.0992 15.875 16.1875 15.875H3.8125C2.90082 15.875 2.02648 15.5128 1.38182 14.8682C0.737164 14.2235 0.375 13.3492 0.375 12.4375V3.5ZM16.1875 12.4375C16.0052 12.4375 15.8303 12.3651 15.7014 12.2361C15.5724 12.1072 15.5 11.9323 15.5 11.75V3.5C15.5 3.13533 15.3551 2.78559 15.0973 2.52773C14.8394 2.26987 14.4897 2.125 14.125 2.125H3.125C2.76033 2.125 2.41059 2.26987 2.15273 2.52773C1.89487 2.78559 1.75 3.13533 1.75 3.5V12.4375C1.75 12.9845 1.9673 13.5091 2.35409 13.8959C2.74089 14.2827 3.26549 14.5 3.8125 14.5H16.1875C16.7345 14.5 17.2591 14.2827 17.6459 13.8959C18.0327 13.5091 18.25 12.9845 18.25 12.4375V6.25C18.25 5.88533 18.1051 5.53559 17.8473 5.27773C17.5894 5.01987 17.2397 4.875 16.875 4.875V11.75C16.875 11.9323 16.8026 12.1072 16.6736 12.2361C16.5447 12.3651 16.3698 12.4375 16.1875 12.4375Z" fill="currentColor"/>
</svg>
