<svg width="22" height="22" viewBox="0 0 22 22" fill="none" xmlns="http://www.w3.org/2000/svg">
<path opacity="0.3" fill-rule="evenodd" clip-rule="evenodd" d="M17.4167 10.0833C17.8792 10.0832 18.3247 10.2579 18.6638 10.5724C19.003 10.8869 19.2107 11.3179 19.2454 11.7792L19.25 11.9167V17.4167C19.2501 17.8792 19.0755 18.3247 18.761 18.6638C18.4465 19.003 18.0154 19.2107 17.5542 19.2454L17.4167 19.25H13.75C13.2875 19.2501 12.842 19.0755 12.5028 18.761C12.1637 18.4465 11.9559 18.0154 11.9212 17.5542L11.9167 17.4167V11.9167C11.9165 11.4541 12.0912 11.0086 12.4057 10.6695C12.7202 10.3303 13.1513 10.1226 13.6125 10.0879L13.75 10.0833H17.4167ZM17.4167 2.75C17.9029 2.75 18.3692 2.94315 18.713 3.28697C19.0568 3.63079 19.25 4.0971 19.25 4.58333V6.41667C19.25 6.9029 19.0568 7.36921 18.713 7.71303C18.3692 8.05685 17.9029 8.25 17.4167 8.25H13.75C13.2638 8.25 12.7974 8.05685 12.4536 7.71303C12.1098 7.36921 11.9167 6.9029 11.9167 6.41667V4.58333C11.9167 4.0971 12.1098 3.63079 12.4536 3.28697C12.7974 2.94315 13.2638 2.75 13.75 2.75H17.4167Z" fill="currentColor"/>
<path fill-rule="evenodd" clip-rule="evenodd" d="M8.25 2.75C8.73623 2.75 9.20255 2.94315 9.54636 3.28697C9.89018 3.63079 10.0833 4.0971 10.0833 4.58333V10.0833C10.0833 10.5696 9.89018 11.0359 9.54636 11.3797C9.20255 11.7235 8.73623 11.9167 8.25 11.9167H4.58333C4.0971 11.9167 3.63079 11.7235 3.28697 11.3797C2.94315 11.0359 2.75 10.5696 2.75 10.0833V4.58333C2.75 4.0971 2.94315 3.63079 3.28697 3.28697C3.63079 2.94315 4.0971 2.75 4.58333 2.75H8.25Z" fill="currentColor"/>
<path opacity="0.3" fill-rule="evenodd" clip-rule="evenodd" d="M8.25 13.75C8.73623 13.75 9.20255 13.9432 9.54636 14.287C9.89018 14.6308 10.0833 15.0971 10.0833 15.5833V17.4167C10.0833 17.9029 9.89018 18.3692 9.54636 18.713C9.20255 19.0568 8.73623 19.25 8.25 19.25H4.58333C4.0971 19.25 3.63079 19.0568 3.28697 18.713C2.94315 18.3692 2.75 17.9029 2.75 17.4167V15.5833C2.75 15.0971 2.94315 14.6308 3.28697 14.287C3.63079 13.9432 4.0971 13.75 4.58333 13.75H8.25Z" fill="currentColor"/>
</svg>
