<svg width="48" height="48" viewBox="0 0 48 48" fill="none" xmlns="http://www.w3.org/2000/svg">
<rect width="48" height="48" rx="24" fill="#1C2027"/>
<path d="M16.5 24C16.5 24.9849 16.694 25.9602 17.0709 26.8701C17.4478 27.7801 18.0003 28.6069 18.6967 29.3033C19.3931 29.9997 20.2199 30.5522 21.1299 30.9291C22.0398 31.306 23.0151 31.5 24 31.5C24.9849 31.5 25.9602 31.306 26.8701 30.9291C27.7801 30.5522 28.6069 29.9997 29.3033 29.3033C29.9997 28.6069 30.5522 27.7801 30.9291 26.8701C31.306 25.9602 31.5 24.9849 31.5 24C31.5 23.0151 31.306 22.0398 30.9291 21.1299C30.5522 20.2199 29.9997 19.3931 29.3033 18.6967C28.6069 18.0003 27.7801 17.4478 26.8701 17.0709C25.9602 16.694 24.9849 16.5 24 16.5C23.0151 16.5 22.0398 16.694 21.1299 17.0709C20.2199 17.4478 19.3931 18.0003 18.6967 18.6967C18.0003 19.3931 17.4478 20.2199 17.0709 21.1299C16.694 22.0398 16.5 23.0151 16.5 24Z" stroke="white" stroke-width="1.66667" stroke-linecap="round" stroke-linejoin="round"/>
<path d="M22.333 20.666H24.833C25.054 20.666 25.266 20.7538 25.4223 20.9101C25.5785 21.0664 25.6663 21.2783 25.6663 21.4993V23.166C25.6663 23.387 25.5785 23.599 25.4223 23.7553C25.266 23.9116 25.054 23.9993 24.833 23.9993H23.1663C22.9453 23.9993 22.7334 24.0871 22.5771 24.2434C22.4208 24.3997 22.333 24.6117 22.333 24.8327V26.4993C22.333 26.7204 22.4208 26.9323 22.5771 27.0886C22.7334 27.2449 22.9453 27.3327 23.1663 27.3327H25.6663" stroke="white" stroke-width="1.66667" stroke-linecap="round" stroke-linejoin="round"/>
</svg>
