<svg width="14" height="17" viewBox="0 0 14 17" fill="none" xmlns="http://www.w3.org/2000/svg">
<path d="M1 5.75C1.1837 5.75002 1.361 5.81746 1.49828 5.93953C1.63556 6.0616 1.72326 6.22981 1.74475 6.41225L1.75 6.5V7.25C1.74996 8.41428 2.20117 9.53327 3.00885 10.3719C3.81652 11.2104 4.91778 11.7033 6.08125 11.747L6.25 11.75H8.9395L8.34475 11.1552C8.21024 11.0203 8.13214 10.8392 8.12633 10.6487C8.12051 10.4582 8.18741 10.2727 8.31344 10.1298C8.43946 9.98687 8.61516 9.89727 8.80486 9.8792C8.99455 9.86113 9.18401 9.91594 9.33475 10.0325L9.40525 10.0947L11.2803 11.9697C11.393 12.0826 11.4668 12.2284 11.491 12.386L11.5 12.5075C11.4984 12.6724 11.4425 12.8321 11.341 12.962L11.2772 13.0332L9.40525 14.9052C9.27028 15.0398 9.08917 15.1179 8.89871 15.1237C8.70825 15.1295 8.52272 15.0626 8.37979 14.9366C8.23687 14.8105 8.14727 14.6348 8.1292 14.4451C8.11113 14.2554 8.16594 14.066 8.2825 13.9152L8.34475 13.8447L8.9395 13.25H6.25C4.69118 13.25 3.19356 12.6433 2.07422 11.5584C0.954885 10.4735 0.301713 8.99556 0.253 7.4375L0.25 7.25V6.5C0.25 6.30108 0.329018 6.11032 0.46967 5.96967C0.610322 5.82902 0.801088 5.75 1 5.75ZM4.59475 1.09475C4.72972 0.960236 4.91083 0.882142 5.10129 0.876326C5.29175 0.87051 5.47728 0.937409 5.62021 1.06343C5.76313 1.18946 5.85273 1.36516 5.8708 1.55485C5.88887 1.74455 5.83406 1.934 5.7175 2.08475L5.65525 2.15525L5.0605 2.75H7.75C9.30882 2.75002 10.8064 3.3567 11.9258 4.4416C13.0451 5.5265 13.6983 7.00444 13.747 8.5625L13.75 8.75V9.5C13.7498 9.69116 13.6766 9.87502 13.5454 10.014C13.4141 10.153 13.2348 10.2367 13.044 10.2479C12.8531 10.2591 12.6652 10.197 12.5186 10.0743C12.372 9.95161 12.2778 9.77757 12.2552 9.58775L12.25 9.5V8.75C12.25 7.58571 11.7988 6.46673 10.9912 5.62814C10.1835 4.78956 9.08222 4.29666 7.91875 4.253L7.75 4.25H5.0605L5.65525 4.84475C5.78976 4.97972 5.86786 5.16082 5.87367 5.35128C5.87949 5.54175 5.81259 5.72728 5.68656 5.87021C5.56054 6.01313 5.38484 6.10273 5.19514 6.1208C5.00545 6.13887 4.81599 6.08406 4.66525 5.9675L4.59475 5.90525L2.71975 4.03025C2.59062 3.9011 2.51304 3.72928 2.50158 3.54701C2.49012 3.36474 2.54556 3.18455 2.6575 3.04025L2.71975 2.96975L4.59475 1.09475Z" fill="#FF9500"/>
</svg>
