<svg width="46" height="970" viewBox="0 0 46 970" fill="none" xmlns="http://www.w3.org/2000/svg">
<path fill-rule="evenodd" clip-rule="evenodd" d="M39.2558 129.798V242.5H42.1594H45.0634L45.168 129.798L45.273 0H42.2644H39.2558V129.798ZM26.3916 11.737V19.829H20.3744H14.3572V21.9039V23.9788H12.2608H10.1639L10.2897 26.1574C10.3955 28.0003 10.5428 28.3427 11.2449 28.3783C11.7014 28.4016 12.5882 28.4485 13.2161 28.4821L14.3572 28.5435V34.5607V40.5778L16.5359 40.5786L18.7145 40.5795L18.5834 36.4289L18.4518 32.2783H22.4219H26.3916V36.4496V40.6214L28.5702 40.4956L30.7488 40.3703L30.8579 26.3649L30.9675 12.3594H32.8291H34.6911V10.0771V7.7947H32.8237H30.9563V5.71982V3.64494H28.6739H26.3916V11.737ZM14.3572 45.9725V48.0474H12.2824H10.2075V50.3297V52.6121H12.2824H14.3572V66.7213V80.8305H16.4321H18.507V76.6807V72.531H22.4493H26.3916V76.6807V80.8305H28.6739H30.9563V74.8133V68.7962H32.8237H34.6911V66.5138V64.2314H32.8237H30.9563V62.1566V60.0817H24.7316H18.507V51.9896V43.8976H16.4321H14.3572V45.9725ZM26.3924 92.3245L26.3928 100.542L20.3752 100.417L14.3572 100.292V102.388V104.484H12.2824H10.2075V106.766V109.049H12.2824H14.3572V115.066V121.083H16.4135C18.4385 121.083 18.4734 121.061 18.7444 119.617C18.8958 118.81 18.939 117.036 18.8407 115.674L18.6614 113.199H22.5265H26.3916V117.141V121.083H28.6739H30.9563V106.974V92.8648H32.8237H34.6911V90.5824V88.3H32.8465H31.0019L30.8754 86.3289L30.7488 84.3578L28.5702 84.2325L26.3916 84.1067L26.3924 92.3245ZM14.3572 126.685V128.553L12.1786 128.552L10 128.551L10.1423 130.835L10.2843 133.117H12.321H14.3572V147.227V161.336H16.4321H18.507V157.394V153.451H22.4493H26.3916V157.394V161.336H28.6739H30.9563V155.319V149.302H32.8237H34.6911V147.019V144.737H32.8465H31.0019L30.8754 142.766L30.7488 140.795H24.7316H18.7145L18.6016 132.806L18.4892 124.818H16.423H14.3572V126.685ZM26.3916 173.163V181.255H20.3744H14.3572V183.122C14.3572 184.971 14.3431 184.989 12.9388 184.989C10.5233 184.989 10.2075 185.282 10.2075 187.524V189.554H12.2712H14.3353L14.4498 195.675L14.5647 201.796L16.5359 201.923L18.507 202.049L18.5829 198.81C18.6249 197.029 18.6365 195.151 18.6087 194.638C18.5597 193.732 18.6751 193.704 22.475 193.704H26.3916V197.602C26.3916 201.94 26.4339 202.003 29.3304 202.003H30.9563V187.687V173.37H32.8237H34.6911V171.295V169.22H32.8237H30.9563V167.145V165.071H28.6739H26.3916V173.163ZM14.3572 207.398V209.473H12.2824H10.2075V211.755V214.038H12.2824H14.3572V228.147V242.256H16.4172H18.4771L18.5958 238.21L18.7145 234.164L22.553 234.045L26.3916 233.925V238.113V242.3L28.5702 242.174L30.7488 242.049L30.8637 236.135L30.9791 230.222H32.8349H34.6911V227.939V225.657H32.8237H30.9563V223.582V221.507H24.7316H18.507V213.415V205.323H16.4321H14.3572V207.398Z" fill="#13161B"/>
<path fill-rule="evenodd" clip-rule="evenodd" d="M39.2558 372.298V485H42.1594H45.0634L45.168 372.298L45.273 242.5H42.2644H39.2558V372.298ZM26.3916 254.237V262.329H20.3744H14.3572V264.404V266.479H12.2608H10.1639L10.2897 268.657C10.3955 270.5 10.5428 270.843 11.2449 270.878C11.7014 270.902 12.5882 270.948 13.2161 270.982L14.3572 271.044V277.061V283.078L16.5359 283.079L18.7145 283.079L18.5834 278.929L18.4518 274.778H22.4219H26.3916V278.95V283.121L28.5702 282.996L30.7488 282.87L30.8579 268.865L30.9675 254.859H32.8291H34.6911V252.577V250.295H32.8237H30.9563V248.22V246.145H28.6739H26.3916V254.237ZM14.3572 288.472V290.547H12.2824H10.2075V292.83V295.112H12.2824H14.3572V309.221V323.33H16.4321H18.507V319.181V315.031H22.4493H26.3916V319.181V323.33H28.6739H30.9563V317.313V311.296H32.8237H34.6911V309.014V306.731H32.8237H30.9563V304.657V302.582H24.7316H18.507V294.49V286.398H16.4321H14.3572V288.472ZM26.3924 334.824L26.3928 343.042L20.3752 342.917L14.3572 342.792V344.888V346.984H12.2824H10.2075V349.266V351.549H12.2824H14.3572V357.566V363.583H16.4135C18.4385 363.583 18.4734 363.561 18.7444 362.117C18.8958 361.31 18.939 359.536 18.8407 358.174L18.6614 355.699H22.5265H26.3916V359.641V363.583H28.6739H30.9563V349.474V335.365H32.8237H34.6911V333.082V330.8H32.8465H31.0019L30.8754 328.829L30.7488 326.858L28.5702 326.732L26.3916 326.607L26.3924 334.824ZM14.3572 369.185V371.053L12.1786 371.052L10 371.051L10.1423 373.335L10.2843 375.617H12.321H14.3572V389.727V403.836H16.4321H18.507V399.894V395.951H22.4493H26.3916V399.894V403.836H28.6739H30.9563V397.819V391.802H32.8237H34.6911V389.519V387.237H32.8465H31.0019L30.8754 385.266L30.7488 383.295H24.7316H18.7145L18.6016 375.306L18.4892 367.318H16.423H14.3572V369.185ZM26.3916 415.663V423.755H20.3744H14.3572V425.622C14.3572 427.471 14.3431 427.489 12.9388 427.489C10.5233 427.489 10.2075 427.782 10.2075 430.024V432.054H12.2712H14.3353L14.4498 438.175L14.5647 444.296L16.5359 444.423L18.507 444.549L18.5829 441.31C18.6249 439.529 18.6365 437.651 18.6087 437.138C18.5597 436.232 18.6751 436.204 22.475 436.204H26.3916V440.102C26.3916 444.44 26.4339 444.503 29.3304 444.503H30.9563V430.187V415.87H32.8237H34.6911V413.795V411.72H32.8237H30.9563V409.645V407.571H28.6739H26.3916V415.663ZM14.3572 449.898V451.973H12.2824H10.2075V454.255V456.538H12.2824H14.3572V470.647V484.756H16.4172H18.4771L18.5958 480.71L18.7145 476.664L22.553 476.545L26.3916 476.425V480.613V484.8L28.5702 484.674L30.7488 484.549L30.8637 478.635L30.9791 472.722H32.8349H34.6911V470.439V468.157H32.8237H30.9563V466.082V464.007H24.7316H18.507V455.915V447.823H16.4321H14.3572V449.898Z" fill="#13161B"/>
<path fill-rule="evenodd" clip-rule="evenodd" d="M39.2558 614.798V727.5H42.1594H45.0634L45.168 614.798L45.273 485H42.2644H39.2558V614.798ZM26.3916 496.737V504.829H20.3744H14.3572V506.904V508.979H12.2608H10.1639L10.2897 511.157C10.3955 513 10.5428 513.343 11.2449 513.378C11.7014 513.402 12.5882 513.448 13.2161 513.482L14.3572 513.544V519.561V525.578L16.5359 525.579L18.7145 525.579L18.5834 521.429L18.4518 517.278H22.4219H26.3916V521.45V525.621L28.5702 525.496L30.7488 525.37L30.8579 511.365L30.9675 497.359H32.8291H34.6911V495.077V492.795H32.8237H30.9563V490.72V488.645H28.6739H26.3916V496.737ZM14.3572 530.972V533.047H12.2824H10.2075V535.33V537.612H12.2824H14.3572V551.721V565.83H16.4321H18.507V561.681V557.531H22.4493H26.3916V561.681V565.83H28.6739H30.9563V559.813V553.796H32.8237H34.6911V551.514V549.231H32.8237H30.9563V547.157V545.082H24.7316H18.507V536.99V528.898H16.4321H14.3572V530.972ZM26.3924 577.324L26.3928 585.542L20.3752 585.417L14.3572 585.292V587.388V589.484H12.2824H10.2075V591.766V594.049H12.2824H14.3572V600.066V606.083H16.4135C18.4385 606.083 18.4734 606.061 18.7444 604.617C18.8958 603.81 18.939 602.036 18.8407 600.674L18.6614 598.199H22.5265H26.3916V602.141V606.083H28.6739H30.9563V591.974V577.865H32.8237H34.6911V575.582V573.3H32.8465H31.0019L30.8754 571.329L30.7488 569.358L28.5702 569.232L26.3916 569.107L26.3924 577.324ZM14.3572 611.685V613.553L12.1786 613.552L10 613.551L10.1423 615.835L10.2843 618.117H12.321H14.3572V632.227V646.336H16.4321H18.507V642.394V638.451H22.4493H26.3916V642.394V646.336H28.6739H30.9563V640.319V634.302H32.8237H34.6911V632.019V629.737H32.8465H31.0019L30.8754 627.766L30.7488 625.795H24.7316H18.7145L18.6016 617.806L18.4892 609.818H16.423H14.3572V611.685ZM26.3916 658.163V666.255H20.3744H14.3572V668.122C14.3572 669.971 14.3431 669.989 12.9388 669.989C10.5233 669.989 10.2075 670.282 10.2075 672.524V674.554H12.2712H14.3353L14.4498 680.675L14.5647 686.796L16.5359 686.923L18.507 687.049L18.5829 683.81C18.6249 682.029 18.6365 680.151 18.6087 679.638C18.5597 678.732 18.6751 678.704 22.475 678.704H26.3916V682.602C26.3916 686.94 26.4339 687.003 29.3304 687.003H30.9563V672.687V658.37H32.8237H34.6911V656.295V654.22H32.8237H30.9563V652.145V650.071H28.6739H26.3916V658.163ZM14.3572 692.398V694.473H12.2824H10.2075V696.755V699.038H12.2824H14.3572V713.147V727.256H16.4172H18.4771L18.5958 723.21L18.7145 719.164L22.553 719.045L26.3916 718.925V723.113V727.3L28.5702 727.174L30.7488 727.049L30.8637 721.135L30.9791 715.222H32.8349H34.6911V712.939V710.657H32.8237H30.9563V708.582V706.507H24.7316H18.507V698.415V690.323H16.4321H14.3572V692.398Z" fill="#13161B"/>
<path fill-rule="evenodd" clip-rule="evenodd" d="M39.2558 857.298V970H42.1594H45.0634L45.168 857.298L45.273 727.5H42.2644H39.2558V857.298ZM26.3916 739.237V747.329H20.3744H14.3572V749.404V751.479H12.2608H10.1639L10.2897 753.657C10.3955 755.5 10.5428 755.843 11.2449 755.878C11.7014 755.902 12.5882 755.948 13.2161 755.982L14.3572 756.044V762.061V768.078L16.5359 768.079L18.7145 768.079L18.5834 763.929L18.4518 759.778H22.4219H26.3916V763.95V768.121L28.5702 767.996L30.7488 767.87L30.8579 753.865L30.9675 739.859H32.8291H34.6911V737.577V735.295H32.8237H30.9563V733.22V731.145H28.6739H26.3916V739.237ZM14.3572 773.472V775.547H12.2824H10.2075V777.83V780.112H12.2824H14.3572V794.221V808.33H16.4321H18.507V804.181V800.031H22.4493H26.3916V804.181V808.33H28.6739H30.9563V802.313V796.296H32.8237H34.6911V794.014V791.731H32.8237H30.9563V789.657V787.582H24.7316H18.507V779.49V771.398H16.4321H14.3572V773.472ZM26.3924 819.824L26.3928 828.042L20.3752 827.917L14.3572 827.792V829.888V831.984H12.2824H10.2075V834.266V836.549H12.2824H14.3572V842.566V848.583H16.4135C18.4385 848.583 18.4734 848.561 18.7444 847.117C18.8958 846.31 18.939 844.536 18.8407 843.174L18.6614 840.699H22.5265H26.3916V844.641V848.583H28.6739H30.9563V834.474V820.365H32.8237H34.6911V818.082V815.8H32.8465H31.0019L30.8754 813.829L30.7488 811.858L28.5702 811.732L26.3916 811.607L26.3924 819.824ZM14.3572 854.185V856.053L12.1786 856.052L10 856.051L10.1423 858.335L10.2843 860.617H12.321H14.3572V874.727V888.836H16.4321H18.507V884.894V880.951H22.4493H26.3916V884.894V888.836H28.6739H30.9563V882.819V876.802H32.8237H34.6911V874.519V872.237H32.8465H31.0019L30.8754 870.266L30.7488 868.295H24.7316H18.7145L18.6016 860.306L18.4892 852.318H16.423H14.3572V854.185ZM26.3916 900.663V908.755H20.3744H14.3572V910.622C14.3572 912.471 14.3431 912.489 12.9388 912.489C10.5233 912.489 10.2075 912.782 10.2075 915.024V917.054H12.2712H14.3353L14.4498 923.175L14.5647 929.296L16.5359 929.423L18.507 929.549L18.5829 926.31C18.6249 924.529 18.6365 922.651 18.6087 922.138C18.5597 921.232 18.6751 921.204 22.475 921.204H26.3916V925.102C26.3916 929.44 26.4339 929.503 29.3304 929.503H30.9563V915.187V900.87H32.8237H34.6911V898.795V896.72H32.8237H30.9563V894.645V892.571H28.6739H26.3916V900.663ZM14.3572 934.898V936.973H12.2824H10.2075V939.255V941.538H12.2824H14.3572V955.647V969.756H16.4172H18.4771L18.5958 965.71L18.7145 961.664L22.553 961.545L26.3916 961.425V965.613V969.8L28.5702 969.674L30.7488 969.549L30.8637 963.635L30.9791 957.722H32.8349H34.6911V955.439V953.157H32.8237H30.9563V951.082V949.007H24.7316H18.507V940.915V932.823H16.4321H14.3572V934.898Z" fill="#13161B"/>
</svg>
