<svg width="11" height="14" viewBox="0 0 11 14" fill="none" xmlns="http://www.w3.org/2000/svg">
<path d="M0.666504 12.6665H9.99984M7.7665 4.6665C8.34834 5.32809 8.6684 6.17947 8.6665 7.0605C8.6665 9.05184 7.06917 10.6665 5.0985 10.6665C4.46733 10.6656 3.84775 10.4968 3.30326 10.1776C2.75876 9.8584 2.30892 9.40015 1.99984 8.84984M0.666504 8.6665H4.6665M4.95784 5.7085L3.99984 6.6665M7.8725 2.82184L9.30917 1.38517M8.59117 0.666504L10.0278 2.10317M3.99984 10.6665V12.6665M6.6665 10.6665V12.6665M7.15384 2.10317L4.2805 4.97717L5.71717 6.41384L8.5905 3.5405L7.15384 2.10317Z" stroke="white" stroke-width="1.33333" stroke-linecap="round" stroke-linejoin="round"/>
</svg>
