<svg width="22" height="22" viewBox="0 0 22 22" fill="none" xmlns="http://www.w3.org/2000/svg">
<path d="M18.6489 15.7266H17.1386C17.0354 15.7266 16.9388 15.7717 16.8743 15.8512C16.7239 16.0338 16.5628 16.21 16.3931 16.3776C15.6989 17.0725 14.8766 17.6262 13.9718 18.0082C13.0343 18.4042 12.0267 18.6073 11.0091 18.6055C9.97997 18.6055 8.98309 18.4035 8.04638 18.0082C7.1415 17.6262 6.31925 17.0725 5.62509 16.3776C4.92968 15.685 4.37517 14.8642 3.99227 13.9606C3.59481 13.0239 3.39501 12.0291 3.39501 11C3.39501 9.97093 3.59696 8.9762 3.99227 8.03949C4.3747 7.13499 4.9247 6.32074 5.62509 5.62249C6.32548 4.92425 7.13974 4.37425 8.04638 3.99183C8.98309 3.59652 9.97997 3.39456 11.0091 3.39456C12.0382 3.39456 13.035 3.59437 13.9718 3.99183C14.8784 4.37425 15.6927 4.92425 16.3931 5.62249C16.5628 5.79222 16.7218 5.96839 16.8743 6.14886C16.9388 6.22835 17.0376 6.27347 17.1386 6.27347H18.6489C18.7843 6.27347 18.8681 6.12308 18.7929 6.00921C17.145 3.44827 14.2618 1.75316 10.9854 1.76175C5.83778 1.77464 1.71063 5.95335 1.7622 11.0946C1.81376 16.1541 5.93446 20.2383 11.0091 20.2383C14.2768 20.2383 17.1472 18.5453 18.7929 15.9909C18.8659 15.877 18.7843 15.7266 18.6489 15.7266ZM20.5589 10.8647L17.5102 8.45843C17.3964 8.3682 17.2309 8.44984 17.2309 8.59378V10.2266H10.4849C10.3903 10.2266 10.313 10.3039 10.313 10.3985V11.6016C10.313 11.6961 10.3903 11.7735 10.4849 11.7735H17.2309V13.4063C17.2309 13.5502 17.3985 13.6319 17.5102 13.5416L20.5589 11.1354C20.5794 11.1193 20.596 11.0988 20.6075 11.0753C20.6189 11.0519 20.6248 11.0261 20.6248 11C20.6248 10.9739 20.6189 10.9482 20.6075 10.9248C20.596 10.9013 20.5794 10.8808 20.5589 10.8647Z" fill="#FF4747"/>
</svg>
