<svg width="22" height="22" viewBox="0 0 22 22" fill="none" xmlns="http://www.w3.org/2000/svg">
<path fill-rule="evenodd" clip-rule="evenodd" d="M2.75 2.35714C2.64581 2.35714 2.54588 2.39853 2.47221 2.47221C2.39853 2.54588 2.35714 2.64581 2.35714 2.75V5.10714C2.35714 5.41972 2.23297 5.71949 2.01195 5.94052C1.79092 6.16154 1.49115 6.28571 1.17857 6.28571C0.865995 6.28571 0.566221 6.16154 0.345196 5.94052C0.124171 5.71949 0 5.41972 0 5.10714L0 2.75C0 2.02065 0.289731 1.32118 0.805456 0.805456C1.32118 0.289731 2.02065 0 2.75 0L5.10714 0C5.41972 0 5.71949 0.124171 5.94052 0.345196C6.16154 0.566221 6.28571 0.865995 6.28571 1.17857C6.28571 1.49115 6.16154 1.79092 5.94052 2.01195C5.71949 2.23297 5.41972 2.35714 5.10714 2.35714H2.75ZM20.8214 15.7143C21.134 15.7143 21.4338 15.8385 21.6548 16.0595C21.8758 16.2805 22 16.5803 22 16.8929V19.25C22 19.9793 21.7103 20.6788 21.1945 21.1945C20.6788 21.7103 19.9793 22 19.25 22H16.8929C16.5803 22 16.2805 21.8758 16.0595 21.6548C15.8385 21.4338 15.7143 21.134 15.7143 20.8214C15.7143 20.5089 15.8385 20.2091 16.0595 19.9881C16.2805 19.767 16.5803 19.6429 16.8929 19.6429H19.25C19.3542 19.6429 19.4541 19.6015 19.5278 19.5278C19.6015 19.4541 19.6429 19.3542 19.6429 19.25V16.8929C19.6429 16.5803 19.767 16.2805 19.9881 16.0595C20.2091 15.8385 20.5089 15.7143 20.8214 15.7143ZM2.35714 16.8929C2.35714 16.5803 2.23297 16.2805 2.01195 16.0595C1.79092 15.8385 1.49115 15.7143 1.17857 15.7143C0.865995 15.7143 0.566221 15.8385 0.345196 16.0595C0.124171 16.2805 0 16.5803 0 16.8929L0 19.25C0 19.9793 0.289731 20.6788 0.805456 21.1945C1.32118 21.7103 2.02065 22 2.75 22H5.10714C5.41972 22 5.71949 21.8758 5.94052 21.6548C6.16154 21.4338 6.28571 21.134 6.28571 20.8214C6.28571 20.5089 6.16154 20.2091 5.94052 19.9881C5.71949 19.767 5.41972 19.6429 5.10714 19.6429H2.75C2.64581 19.6429 2.54588 19.6015 2.47221 19.5278C2.39853 19.4541 2.35714 19.3542 2.35714 19.25V16.8929ZM15.7143 1.17857C15.7143 0.865995 15.8385 0.566221 16.0595 0.345196C16.2805 0.124171 16.5803 0 16.8929 0L19.25 0C19.9793 0 20.6788 0.289731 21.1945 0.805456C21.7103 1.32118 22 2.02065 22 2.75V5.10714C22 5.41972 21.8758 5.71949 21.6548 5.94052C21.4338 6.16154 21.134 6.28571 20.8214 6.28571C20.5089 6.28571 20.2091 6.16154 19.9881 5.94052C19.767 5.71949 19.6429 5.41972 19.6429 5.10714V2.75C19.6429 2.64581 19.6015 2.54588 19.5278 2.47221C19.4541 2.39853 19.3542 2.35714 19.25 2.35714H16.8929C16.5803 2.35714 16.2805 2.23297 16.0595 2.01195C15.8385 1.79092 15.7143 1.49115 15.7143 1.17857ZM9.82143 6.28571C8.8837 6.28571 7.98438 6.65823 7.3213 7.3213C6.65823 7.98438 6.28571 8.8837 6.28571 9.82143C6.28571 10.7592 6.65823 11.6585 7.3213 12.3216C7.98438 12.9846 8.8837 13.3571 9.82143 13.3571C10.7592 13.3571 11.6585 12.9846 12.3216 12.3216C12.9846 11.6585 13.3571 10.7592 13.3571 9.82143C13.3571 8.8837 12.9846 7.98438 12.3216 7.3213C11.6585 6.65823 10.7592 6.28571 9.82143 6.28571ZM3.92857 9.82143C3.92885 8.90265 4.14397 7.99666 4.55674 7.17581C4.96952 6.35497 5.56851 5.64202 6.30588 5.09389C7.04326 4.54577 7.89859 4.17766 8.80356 4.01896C9.70854 3.86026 10.6381 3.91536 11.518 4.17988C12.3978 4.44439 13.2037 4.91099 13.8711 5.5424C14.5386 6.17381 15.0491 6.95254 15.362 7.8164C15.6749 8.68026 15.7815 9.60532 15.6732 10.5177C15.5649 11.4301 15.2448 12.3045 14.7384 13.0711L17.3329 15.6671C17.4487 15.775 17.5415 15.9052 17.6059 16.0497C17.6704 16.1943 17.705 16.3504 17.7078 16.5086C17.7106 16.6669 17.6815 16.824 17.6222 16.9708C17.5629 17.1175 17.4747 17.2509 17.3628 17.3628C17.2509 17.4747 17.1175 17.5629 16.9708 17.6222C16.824 17.6815 16.6669 17.7106 16.5086 17.7078C16.3504 17.705 16.1943 17.6704 16.0497 17.6059C15.9052 17.5415 15.775 17.4487 15.6671 17.3329L13.0711 14.74C12.1828 15.3273 11.1519 15.6628 10.0881 15.711C9.02433 15.7592 7.96734 15.5182 7.02954 15.0137C6.09174 14.5092 5.30818 13.76 4.76216 12.8457C4.21614 11.9315 3.92807 10.8863 3.92857 9.82143Z" fill="#FF9500"/>
</svg>
