<svg width="20" height="20" viewBox="0 0 20 20" fill="none" xmlns="http://www.w3.org/2000/svg">
<path d="M10.0001 17.5C11.7352 17.5 13.4167 16.8983 14.758 15.7975C16.0993 14.6968 17.0174 13.1649 17.3559 11.4631C17.6944 9.76129 17.4324 7.99475 16.6144 6.46448C15.7964 4.9342 14.4732 3.73489 12.8701 3.07088C11.267 2.40688 9.48327 2.31926 7.82283 2.82296C6.16238 3.32667 4.72796 4.39053 3.76396 5.83327C2.79997 7.27601 2.36604 9.00837 2.53613 10.7352C2.70622 12.462 3.46979 14.0764 4.69674 15.3033" stroke="#161F2E" stroke-width="1.83333" stroke-linecap="round"/>
<path d="M13.3327 8.33313L10.3343 11.9315C9.78852 12.5865 9.51518 12.9148 9.14768 12.9315C8.78018 12.9481 8.47852 12.6456 7.87518 12.0423L6.66602 10.8331" stroke="#161F2E" stroke-width="1.83333" stroke-linecap="round"/>
</svg>
