<svg width="18" height="18" viewBox="0 0 18 18" fill="none" xmlns="http://www.w3.org/2000/svg">
<path d="M11.5675 1.29331H6.43415C6.00247 1.27236 5.57993 1.42248 5.25824 1.7111C4.93654 1.99972 4.74164 2.40356 4.71582 2.83498V7.89915C4.73183 8.73214 4.97501 9.54496 5.41911 10.2499C5.86321 10.9548 6.49137 11.5251 7.23582 11.8991C7.77945 12.1875 8.38545 12.3383 9.00082 12.3383C9.61619 12.3383 10.2222 12.1875 10.7658 11.8991C11.5103 11.5251 12.1384 10.9548 12.5825 10.2499C13.0266 9.54496 13.2698 8.73214 13.2858 7.89915V2.83498C13.26 2.40356 13.0651 1.99972 12.7434 1.7111C12.4217 1.42248 11.9992 1.27236 11.5675 1.29331Z" stroke="currentColor" stroke-width="1.25" stroke-linecap="round"/>
<path d="M13.2855 2.83496H14.9971C15.4276 2.81603 15.8482 2.96707 16.1682 3.25548C16.4883 3.54389 16.6821 3.94657 16.708 4.37663C16.7056 5.34313 16.456 6.29295 15.983 7.13579C15.4879 8.00728 14.7966 8.7514 13.9638 9.30913L13.2855 9.77163L12.623 10.1725M4.71547 2.83496H3.0038C2.57338 2.81603 2.15277 2.96707 1.83271 3.25548C1.51265 3.54389 1.3188 3.94657 1.29297 4.37663C1.29547 5.34329 1.54464 6.29329 2.01797 7.13579C2.51302 8.00728 3.20436 8.7514 4.03714 9.30913L4.71547 9.77163L5.37797 10.1725M7.28963 14.3958V11.9216M10.7113 14.3958V11.9216M6.34214 14.3958H11.6588C11.8725 14.3956 12.0841 14.4375 12.2816 14.5192C12.479 14.6008 12.6584 14.7207 12.8095 14.8717C12.9606 15.0228 13.0804 15.2022 13.1621 15.3997C13.2438 15.5972 13.2857 15.8088 13.2855 16.0225V16.3C13.2855 16.4083 13.2424 16.5121 13.1659 16.5887C13.0893 16.6653 12.9854 16.7083 12.8771 16.7083H5.1238C5.01551 16.7083 4.91164 16.6653 4.83507 16.5887C4.75849 16.5121 4.71547 16.4083 4.71547 16.3V16.0225C4.71525 15.8089 4.75715 15.5973 4.83877 15.3999C4.92038 15.2025 5.04012 15.0231 5.19113 14.872C5.34213 14.721 5.52144 14.6011 5.7188 14.5194C5.91616 14.4377 6.12769 14.3957 6.3413 14.3958H6.34214Z" stroke="currentColor" stroke-width="1.25" stroke-linecap="round"/>
<path d="M9 8.58659V4.41992" stroke="currentColor" stroke-width="1.25" stroke-miterlimit="10" stroke-linecap="round"/>
<path d="M7.08984 6.83252L8.72901 8.47169C8.76463 8.50746 8.80696 8.53585 8.85358 8.55523C8.9002 8.5746 8.95019 8.58457 9.00068 8.58457C9.05116 8.58457 9.10115 8.5746 9.14777 8.55523C9.19439 8.53585 9.23673 8.50746 9.27234 8.47169L10.9115 6.83252" stroke="currentColor" stroke-width="1.25" stroke-linecap="round" stroke-linejoin="round"/>
</svg>
