<svg width="20" height="20" viewBox="0 0 20 20" fill="none" xmlns="http://www.w3.org/2000/svg">
<path d="M16.667 6.66663H11.9903L12.9262 3.86079C13.0945 3.35413 13.0095 2.79246 12.697 2.35913C12.3845 1.92579 11.8778 1.66663 11.3437 1.66663H10.0003C9.75283 1.66663 9.51866 1.77663 9.35949 1.96663L5.44283 6.66663H3.33366C2.41449 6.66663 1.66699 7.41413 1.66699 8.33329V15.8333C1.66699 16.7525 2.41449 17.5 3.33366 17.5H14.4228C14.7619 17.4988 15.0926 17.3948 15.3713 17.2017C15.65 17.0086 15.8636 16.7354 15.9837 16.4183L18.2812 10.2925C18.316 10.1989 18.3338 10.0998 18.3337 9.99996V8.33329C18.3337 7.41413 17.5862 6.66663 16.667 6.66663ZM3.33366 8.33329H5.00033V15.8333H3.33366V8.33329ZM16.667 9.84913L14.4228 15.8333H6.66699V7.80163L10.3903 3.33329H11.3453L10.0437 7.23579C10.0014 7.36105 9.98962 7.49459 10.0093 7.62531C10.0289 7.75604 10.0795 7.8802 10.1567 7.98749C10.2339 8.09479 10.3356 8.18212 10.4534 8.24226C10.5711 8.3024 10.7015 8.3336 10.8337 8.33329H16.667V9.84913Z" fill="#586072"/>
</svg>
