<svg width="20" height="20" viewBox="0 0 20 20" fill="none" xmlns="http://www.w3.org/2000/svg">
<g clip-path="url(#clip0_560_283)">
<path d="M8.74935 18.3334C4.3771 18.3334 0.832683 14.6025 0.832683 10.0001C0.832683 5.39771 4.3771 1.66675 8.74935 1.66675C13.1216 1.66675 16.666 5.39771 16.666 10.0001C16.666 14.6025 13.1216 18.3334 8.74935 18.3334Z" stroke="#586072" stroke-width="1.66667" stroke-linecap="round" stroke-linejoin="round"/>
<path d="M10.833 7.33341C10.3027 6.90315 9.64089 6.66783 8.95801 6.66675C7.23217 6.66675 5.83301 8.15841 5.83301 10.0001C5.83301 11.8417 7.23217 13.3334 8.95801 13.3334C9.66134 13.3334 10.3105 13.0851 10.833 12.6667" stroke="#586072" stroke-width="1.66667" stroke-linecap="round" stroke-linejoin="round"/>
<path d="M8.33301 1.66675C11.9438 1.66675 19.1663 2.50008 19.1663 10.0001C19.1663 17.5001 11.9438 18.3334 8.33301 18.3334" stroke="#586072" stroke-width="1.66667"/>
</g>
<defs>
<clipPath id="clip0_560_283">
<rect width="20" height="20" fill="white"/>
</clipPath>
</defs>
</svg>
