<svg width="20" height="20" viewBox="0 0 20 20" fill="none" xmlns="http://www.w3.org/2000/svg">
<path d="M9.99992 12.9779C9.88881 12.9779 9.78464 12.9606 9.68742 12.9262C9.5902 12.8918 9.49992 12.8326 9.41659 12.7487L6.41658 9.7487C6.24992 9.58203 6.16992 9.38759 6.17659 9.16537C6.18325 8.94314 6.26325 8.7487 6.41658 8.58203C6.58325 8.41537 6.78131 8.3287 7.01075 8.32203C7.2402 8.31537 7.43797 8.39509 7.60408 8.5612L9.16658 10.1237V4.16537C9.16658 3.92926 9.24659 3.73148 9.40659 3.57203C9.56659 3.41259 9.76436 3.33259 9.99992 3.33203C10.2355 3.33148 10.4335 3.41148 10.5941 3.57203C10.7546 3.73259 10.8344 3.93037 10.8333 4.16537V10.1237L12.3958 8.5612C12.5624 8.39453 12.7605 8.31453 12.9899 8.3212C13.2194 8.32787 13.4171 8.41481 13.5833 8.58203C13.736 8.7487 13.816 8.94314 13.8233 9.16537C13.8305 9.38759 13.7505 9.58203 13.5833 9.7487L10.5833 12.7487C10.4999 12.832 10.4096 12.8912 10.3124 12.9262C10.2152 12.9612 10.111 12.9784 9.99992 12.9779ZM4.99992 16.6654C4.54159 16.6654 4.14936 16.5023 3.82325 16.1762C3.49714 15.8501 3.33381 15.4576 3.33325 14.9987V13.332C3.33325 13.0959 3.41325 12.8981 3.57325 12.7387C3.73325 12.5793 3.93103 12.4993 4.16659 12.4987C4.40214 12.4981 4.6002 12.5781 4.76075 12.7387C4.92131 12.8993 5.00103 13.097 4.99992 13.332V14.9987H14.9999V13.332C14.9999 13.0959 15.0799 12.8981 15.2399 12.7387C15.3999 12.5793 15.5977 12.4993 15.8333 12.4987C16.0688 12.4981 16.2669 12.5781 16.4274 12.7387C16.588 12.8993 16.6677 13.097 16.6666 13.332V14.9987C16.6666 15.457 16.5035 15.8495 16.1774 16.1762C15.8513 16.5029 15.4588 16.6659 14.9999 16.6654H4.99992Z" fill="CurrentColor"/>
</svg>
