<svg width="16" height="16" viewBox="0 0 16 16" fill="none" xmlns="http://www.w3.org/2000/svg">
<path d="M11.5017 8.32658C11.3123 9.90324 10.2797 10.5332 9.83366 10.9906C9.387 11.4492 9.467 11.5406 9.497 12.2132C9.502 12.2965 9.48991 12.3798 9.46148 12.4582C9.43304 12.5366 9.38885 12.6083 9.33164 12.669C9.27442 12.7296 9.2054 12.7779 9.12881 12.8108C9.05223 12.8438 8.96971 12.8607 8.88633 12.8606H7.11433C7.03101 12.8604 6.9486 12.8433 6.87211 12.8103C6.79563 12.7772 6.72668 12.7289 6.66947 12.6684C6.61227 12.6078 6.568 12.5362 6.53938 12.4579C6.51076 12.3797 6.49838 12.2964 6.503 12.2132C6.503 11.5532 6.56433 11.3999 6.167 10.9906C5.66033 10.4839 4.46833 9.76858 4.46833 7.80124C4.46529 7.31258 4.56351 6.82858 4.75681 6.37975C4.9501 5.93093 5.23428 5.52702 5.59143 5.19348C5.94858 4.85993 6.37095 4.60399 6.83192 4.44179C7.29289 4.27959 7.78247 4.21464 8.26979 4.25104C8.75711 4.28744 9.2316 4.4244 9.66336 4.65328C10.0951 4.88216 10.4748 5.19801 10.7784 5.5809C11.0821 5.9638 11.3031 6.40545 11.4276 6.87801C11.552 7.35056 11.5773 7.84378 11.5017 8.32658Z" stroke="white" stroke-linecap="round" stroke-linejoin="round"/>
<path d="M6.97347 12.8243V13.8323C6.97347 14.1076 7.1268 14.3336 7.31547 14.3336H8.68414C8.87414 14.3336 9.0268 14.107 9.0268 13.8323V12.8243M7.48014 5.79763C7.08649 5.7978 6.70903 5.9543 6.43075 6.23271C6.15247 6.51112 5.99614 6.88865 5.99614 7.28229M12.8881 7.93629H14.1108M11.6575 3.92829L12.5248 3.06096M12.3241 11.3336L13.1915 12.2003M8.00014 1.58496V2.57363M3.49347 3.06029L4.3548 3.92829M2.8268 12.2003L3.68814 11.3336M3.11214 7.93629H1.89014" stroke="white" stroke-linecap="round" stroke-linejoin="round"/>
</svg>
