<svg width="22" height="22" viewBox="0 0 22 22" fill="none" xmlns="http://www.w3.org/2000/svg">
<path d="M18.6522 3.3428C17.6569 2.34284 16.4716 1.54997 15.1653 1.0104C13.859 0.470828 12.4578 0.195347 11.0434 0.200009C5.11693 0.200009 0.286785 5.006 0.286785 10.9028C0.286785 12.7928 0.786082 14.6288 1.71955 16.2488L0.199951 21.7999L5.89844 20.3096C7.47231 21.1628 9.24156 21.6164 11.0434 21.6164C16.9698 21.6164 21.7999 16.8104 21.7999 10.9136C21.7999 8.05159 20.682 5.3624 18.6522 3.3428ZM11.0434 19.802C9.43693 19.802 7.86307 19.37 6.48457 18.56L6.15894 18.3656L2.77241 19.2512L3.67332 15.968L3.45623 15.6332C2.56352 14.2152 2.0896 12.576 2.08859 10.9028C2.08859 5.99959 6.10467 2.0036 11.0325 2.0036C13.4205 2.0036 15.6673 2.9324 17.3497 4.6172C18.1829 5.44217 18.8432 6.42354 19.2922 7.50438C19.7412 8.58523 19.9701 9.74404 19.9656 10.9136C19.9873 15.8168 15.9712 19.802 11.0434 19.802ZM15.9495 13.1492C15.6781 13.0196 14.3539 12.3716 14.1151 12.2744C13.8655 12.188 13.6918 12.1448 13.5073 12.404C13.3228 12.674 12.8126 13.2788 12.6607 13.4516C12.5087 13.6352 12.3459 13.6568 12.0745 13.5164C11.8032 13.3868 10.9348 13.0952 9.91452 12.188C9.11131 11.4752 8.57945 10.6004 8.41663 10.3304C8.26467 10.0604 8.39492 9.91998 8.53603 9.77958C8.65543 9.66078 8.80739 9.46638 8.93764 9.31518C9.06789 9.16399 9.12216 9.04519 9.20899 8.87239C9.29583 8.68879 9.25241 8.53759 9.18729 8.40799C9.12216 8.27839 8.57945 6.96079 8.36236 6.42079C8.14528 5.90239 7.91734 5.96719 7.75452 5.95639H7.23352C7.04899 5.95639 6.76678 6.02119 6.51714 6.29119C6.27834 6.56119 5.58367 7.20919 5.58367 8.52679C5.58367 9.84438 6.5497 11.1188 6.67995 11.2916C6.8102 11.4752 8.57945 14.1752 11.2713 15.3308C11.9117 15.6116 12.411 15.7736 12.8018 15.8924C13.4422 16.0976 14.0283 16.0652 14.495 16.0004C15.016 15.9248 16.0906 15.3524 16.3077 14.726C16.5356 14.0996 16.5356 13.5704 16.4596 13.4516C16.3837 13.3328 16.2209 13.2788 15.9495 13.1492Z" fill="#0FB263"/>
</svg>
