<svg width="18" height="20" viewBox="0 0 18 20" fill="none" xmlns="http://www.w3.org/2000/svg">
<path d="M17.3569 5.75C17.3522 5.61822 17.2991 5.49279 17.2078 5.39763C17.1165 5.30247 16.9934 5.24423 16.8619 5.234C15.985 5.15376 15.1482 4.82874 14.4469 4.296C13.9264 3.90137 13.4909 3.40565 13.1667 2.83858C12.8424 2.27151 12.636 1.64478 12.5599 0.996C12.5493 0.864421 12.4908 0.741303 12.3955 0.649913C12.3003 0.558523 12.1749 0.505192 12.0429 0.5H9.93495C9.8662 0.499987 9.79815 0.513684 9.73476 0.540288C9.67138 0.566893 9.61393 0.605872 9.56579 0.654944C9.51765 0.704016 9.47978 0.762196 9.45439 0.82608C9.42901 0.889964 9.41662 0.95827 9.41795 1.027V13.617C9.41439 13.9969 9.3334 14.372 9.17994 14.7195C9.02648 15.067 8.80376 15.3796 8.52541 15.6381C8.24705 15.8966 7.91891 16.0956 7.56102 16.223C7.20314 16.3504 6.82304 16.4035 6.44394 16.379C6.01095 16.3548 5.5894 16.2309 5.21219 16.0169C4.83498 15.8029 4.5123 15.5047 4.26934 15.1455C4.02637 14.7863 3.86969 14.3758 3.81151 13.946C3.75333 13.5163 3.79523 13.0789 3.93394 12.668C4.14503 12.0601 4.5566 11.542 5.10105 11.1989C5.64549 10.8558 6.29044 10.7081 6.92995 10.78C7.00063 10.7873 7.07206 10.7796 7.13959 10.7575C7.20711 10.7354 7.26922 10.6993 7.32186 10.6515C7.3745 10.6038 7.41649 10.5455 7.44511 10.4804C7.47373 10.4154 7.48832 10.3451 7.48795 10.274V7.807C7.48795 7.807 6.59195 7.744 6.28594 7.744C5.50185 7.74035 4.72682 7.91172 4.01736 8.2456C3.3079 8.57949 2.68188 9.06748 2.18494 9.674C1.5245 10.3861 1.05343 11.2525 0.814945 12.194C0.539992 13.3045 0.596116 14.4712 0.976393 15.5502C1.35667 16.6292 2.04447 17.5733 2.95494 18.266C3.99655 19.0692 5.27563 19.5033 6.59094 19.5C6.89161 19.5 7.19028 19.479 7.48695 19.437C8.73946 19.2513 9.90006 18.6708 10.7999 17.78C11.3498 17.2406 11.7875 16.5977 12.0878 15.8883C12.3882 15.179 12.5452 14.4173 12.5499 13.647V6.71C13.7673 7.64973 15.2342 8.21067 16.7679 8.323C16.8393 8.3273 16.9107 8.31678 16.9777 8.29209C17.0447 8.26741 17.1059 8.2291 17.1574 8.17958C17.2089 8.13007 17.2496 8.07042 17.2769 8.0044C17.3042 7.93838 17.3175 7.86742 17.3159 7.796V5.751L17.3569 5.75Z" fill="white"/>
</svg>
