<svg width="17" height="17" viewBox="0 0 17 17" fill="none" xmlns="http://www.w3.org/2000/svg">
<g clip-path="url(#clip0_515_183)">
<path d="M6.3467 0.64429C4.74805 1.19888 3.36938 2.2515 2.41319 3.64754C1.457 5.04359 0.973689 6.70947 1.03425 8.4005C1.09482 10.0915 1.69606 11.7186 2.74967 13.0426C3.80328 14.3667 5.25372 15.318 6.88795 15.7568C8.21285 16.0987 9.60096 16.1137 10.933 15.8005C12.1396 15.5295 13.2552 14.9497 14.1705 14.118C15.1231 13.226 15.8145 12.0911 16.1705 10.8355C16.5574 9.47013 16.6262 8.03421 16.3717 6.63804H8.9317V9.72429H13.2404C13.1543 10.2165 12.9698 10.6863 12.6979 11.1056C12.426 11.5248 12.0723 11.8849 11.658 12.1643C11.1318 12.5123 10.5387 12.7465 9.9167 12.8518C9.29288 12.9678 8.65302 12.9678 8.0292 12.8518C7.39694 12.7211 6.79882 12.4601 6.27295 12.0855C5.42814 11.4875 4.7938 10.6379 4.46045 9.65804C4.12147 8.65978 4.12147 7.57755 4.46045 6.57929C4.69773 5.87956 5.08999 5.24246 5.60795 4.71554C6.20069 4.10147 6.95112 3.66254 7.77689 3.44688C8.60267 3.23123 9.4719 3.2472 10.2892 3.49304C10.9277 3.68903 11.5115 4.03146 11.9942 4.49304C12.48 4.00971 12.965 3.52512 13.4492 3.03929C13.6992 2.77804 13.9717 2.52929 14.2179 2.26179C13.4812 1.57614 12.6163 1.04261 11.6729 0.69179C9.95508 0.0680269 8.07542 0.0512639 6.3467 0.64429Z" fill="white"/>
<path d="M6.3467 0.644409C8.07528 0.05098 9.95494 0.0673018 11.6729 0.690659C12.6165 1.04386 13.4809 1.57996 14.2167 2.26816C13.9667 2.53566 13.703 2.78566 13.448 3.04566C12.963 3.52983 12.4784 4.01233 11.9942 4.49316C11.5115 4.03158 10.9277 3.68915 10.2892 3.49316C9.47217 3.24646 8.60297 3.22957 7.77697 3.44434C6.95098 3.65911 6.20009 4.09724 5.6067 4.71066C5.08874 5.23758 4.69648 5.87468 4.4592 6.57441L1.86795 4.56816C2.79546 2.72886 4.40139 1.32194 6.3467 0.644409Z" fill="#E33629"/>
<path d="M1.18045 6.55586C1.31972 5.8656 1.55095 5.19714 1.86795 4.56836L4.4592 6.57961C4.12022 7.57787 4.12022 8.6601 4.4592 9.65836C3.59586 10.325 2.73211 10.995 1.86795 11.6684C1.07439 10.0888 0.832364 8.28899 1.18045 6.55586Z" fill="#F8BD00"/>
<path d="M8.9317 6.63672H16.3717C16.6262 8.03288 16.5574 9.4688 16.1705 10.8342C15.8145 12.0898 15.1231 13.2247 14.1705 14.1167C13.3342 13.4642 12.4942 12.8167 11.658 12.1642C12.0725 11.8846 12.4264 11.5241 12.6983 11.1044C12.9703 10.6847 13.1547 10.2144 13.2405 9.72172H8.9317C8.93045 8.69422 8.9317 7.66547 8.9317 6.63672Z" fill="#587DBD"/>
<path d="M1.8667 11.6682C2.73087 11.0015 3.59462 10.3315 4.45795 9.6582C4.79196 10.6385 5.42721 11.4881 6.27295 12.0857C6.80046 12.4585 7.39986 12.7174 8.03295 12.8457C8.65677 12.9617 9.29663 12.9617 9.92045 12.8457C10.5424 12.7404 11.1356 12.5062 11.6617 12.1582C12.4979 12.8107 13.3379 13.4582 14.1742 14.1107C13.2591 14.9429 12.1435 15.5231 10.9367 15.7945C9.60471 16.1076 8.2166 16.0926 6.8917 15.7507C5.84383 15.4709 4.86504 14.9777 4.0167 14.302C3.11878 13.5891 2.38539 12.6907 1.8667 11.6682Z" fill="#0FB263"/>
</g>
<defs>
<clipPath id="clip0_515_183">
<rect width="16" height="16" fill="white" transform="translate(0.772949 0.118164)"/>
</clipPath>
</defs>
</svg>
