<svg width="16" height="16" viewBox="0 0 16 16" fill="none" xmlns="http://www.w3.org/2000/svg">
<g clip-path="url(#clip0_1312_560)">
<path d="M5.57338 0.526126C3.97473 1.08071 2.59606 2.13333 1.63987 3.52938C0.683675 4.92542 0.200366 6.59131 0.26093 8.28233C0.321493 9.97336 0.922737 11.6004 1.97635 12.9245C3.02996 14.2485 4.4804 15.1998 6.11463 15.6386C7.43953 15.9805 8.82764 15.9955 10.1596 15.6824C11.3663 15.4113 12.4819 14.8316 13.3971 13.9999C14.3497 13.1078 15.0412 11.973 15.3971 10.7174C15.784 9.35196 15.8529 7.91604 15.5984 6.51988H8.15838V9.60613H12.4671C12.381 10.0984 12.1965 10.5682 11.9246 10.9874C11.6527 11.4067 11.2989 11.7668 10.8846 12.0461C10.3585 12.3942 9.76537 12.6283 9.14338 12.7336C8.51956 12.8496 7.8797 12.8496 7.25588 12.7336C6.62361 12.6029 6.0255 12.3419 5.49963 11.9674C4.65481 11.3694 4.02047 10.5198 3.68713 9.53988C3.34815 8.54162 3.34815 7.45938 3.68713 6.46113C3.92441 5.7614 4.31667 5.12429 4.83463 4.59738C5.42737 3.98331 6.17779 3.54437 7.00357 3.32872C7.82935 3.11307 8.69858 3.12904 9.51588 3.37488C10.1543 3.57086 10.7382 3.9133 11.2209 4.37488C11.7067 3.89154 12.1917 3.40696 12.6759 2.92113C12.9259 2.65988 13.1984 2.41113 13.4446 2.14363C12.7078 1.45797 11.843 0.924447 10.8996 0.573626C9.18176 -0.0501371 7.3021 -0.0669002 5.57338 0.526126Z" fill="white"/>
<path d="M5.57348 0.526245C7.30206 -0.067184 9.18171 -0.0508623 10.8997 0.572495C11.8432 0.925699 12.7077 1.46179 13.4435 2.14999C13.1935 2.41749 12.9297 2.66749 12.6747 2.92749C12.1897 3.41166 11.7051 3.89416 11.221 4.37499C10.7383 3.91342 10.1544 3.57098 9.51598 3.37499C8.69895 3.1283 7.82975 3.1114 7.00375 3.32617C6.17775 3.54094 5.42687 3.97907 4.83348 4.59249C4.31552 5.11941 3.92326 5.75652 3.68598 6.45624L1.09473 4.44999C2.02224 2.6107 3.62816 1.20377 5.57348 0.526245Z" fill="#E33629"/>
<path d="M0.407926 6.4377C0.547203 5.74744 0.778431 5.07898 1.09543 4.4502L3.68668 6.46145C3.34769 7.4597 3.34769 8.54194 3.68668 9.5402C2.82334 10.2069 1.95959 10.8769 1.09543 11.5502C0.301864 9.97059 0.0598419 8.17082 0.407926 6.4377Z" fill="#F8BD00"/>
<path d="M8.15876 6.51855H15.5988C15.8533 7.91472 15.7844 9.35064 15.3975 10.7161C15.0416 11.9717 14.3501 13.1065 13.3975 13.9986C12.5613 13.3461 11.7213 12.6986 10.885 12.0461C11.2996 11.7664 11.6535 11.4059 11.9254 10.9862C12.1973 10.5665 12.3817 10.0962 12.4675 9.60355H8.15876C8.15751 8.57605 8.15876 7.5473 8.15876 6.51855Z" fill="#587DBD"/>
<path d="M1.09375 11.55C1.95792 10.8834 2.82167 10.2134 3.685 9.54004C4.01901 10.5203 4.65426 11.3699 5.5 11.9675C6.02751 12.3404 6.62691 12.5992 7.26 12.7275C7.88382 12.8435 8.52368 12.8435 9.1475 12.7275C9.76949 12.6223 10.3626 12.3881 10.8888 12.04C11.725 12.6925 12.565 13.34 13.4012 13.9925C12.4861 14.8247 11.3705 15.4049 10.1637 15.6763C8.83176 15.9894 7.44365 15.9744 6.11875 15.6325C5.07088 15.3528 4.09209 14.8595 3.24375 14.1838C2.34583 13.4709 1.61244 12.5725 1.09375 11.55Z" fill="#0FB263"/>
</g>
<defs>
<clipPath id="clip0_1312_560">
<rect width="16" height="16" fill="white"/>
</clipPath>
</defs>
</svg>
