<svg width="18" height="19" viewBox="0 0 18 19" fill="none" xmlns="http://www.w3.org/2000/svg">
<path fill-rule="evenodd" clip-rule="evenodd" d="M7.82164 0.750083C8.11663 0.455478 8.51132 0.282128 8.92785 0.264233C9.34437 0.246338 9.75247 0.385198 10.0716 0.653416L10.1783 0.750916L11.7616 2.33342H14C14.4203 2.33349 14.8251 2.49239 15.1332 2.77828C15.4414 3.06417 15.6301 3.45593 15.6616 3.87508L15.6666 4.00008V6.23842L17.25 7.82175C17.5448 8.11678 17.7183 8.51164 17.7362 8.92836C17.7541 9.34508 17.6151 9.75336 17.3466 10.0726L17.2491 10.1784L15.6658 11.7617V14.0001C15.6659 14.4206 15.5071 14.8256 15.2212 15.1339C14.9353 15.4422 14.5434 15.631 14.1241 15.6626L14 15.6667H11.7625L10.1791 17.2501C9.88411 17.5449 9.48925 17.7184 9.07253 17.7363C8.65581 17.7542 8.24753 17.6152 7.92831 17.3468L7.82247 17.2501L6.23914 15.6667H3.99998C3.57949 15.6669 3.1745 15.5081 2.86619 15.2222C2.55787 14.9363 2.36901 14.5444 2.33748 14.1251L2.33331 14.0001V11.7617L0.749975 10.1784C0.455137 9.88338 0.28164 9.48852 0.263743 9.07181C0.245846 8.65509 0.384851 8.24681 0.653309 7.92758L0.749975 7.82175L2.33331 6.23842V4.00008C2.33339 3.57975 2.49228 3.17496 2.77817 2.86682C3.06406 2.55868 3.45582 2.36994 3.87498 2.33842L3.99998 2.33342H6.23831L7.82164 0.750083ZM11.5658 6.48592L8.02914 10.0226L6.55581 8.54925C6.39944 8.39299 6.18741 8.30525 5.96635 8.30533C5.74529 8.30541 5.53332 8.3933 5.37706 8.54967C5.2208 8.70603 5.13306 8.91807 5.13314 9.13913C5.13322 9.36019 5.22111 9.57216 5.37748 9.72842L7.38081 11.7317C7.46593 11.8169 7.56701 11.8845 7.67825 11.9306C7.78949 11.9767 7.90873 12.0004 8.02914 12.0004C8.14956 12.0004 8.26879 11.9767 8.38003 11.9306C8.49128 11.8845 8.59235 11.8169 8.67747 11.7317L12.7441 7.66425C12.8959 7.50708 12.9799 7.29658 12.978 7.07808C12.9761 6.85958 12.8885 6.65057 12.734 6.49607C12.5795 6.34156 12.3705 6.25392 12.152 6.25202C11.9335 6.25012 11.723 6.33412 11.5658 6.48592Z" fill="#161F2E"/>
</svg>
