<svg width="27" height="26" viewBox="0 0 22 23" fill="none" xmlns="http://www.w3.org/2000/svg">
<g clip-path="url(#clip0_483_426)">
<path d="M22 3.9375C22 4.71094 21.3855 5.42422 20.35 6C19.0996 6.6918 17.2348 7.18164 15.0949 7.32773C14.9359 7.25039 14.777 7.17734 14.6094 7.11289C12.9164 6.40391 10.6648 6 8.25 6C7.89336 6 7.54531 6.00859 7.19727 6.02578L7.15 6C6.11445 5.42422 5.5 4.71094 5.5 3.9375C5.5 2.03828 9.19531 0.5 13.75 0.5C18.3047 0.5 22 2.03828 22 3.9375ZM6.90508 7.42227C7.34336 7.39219 7.79453 7.375 8.25 7.375C10.9227 7.375 13.2945 7.90352 14.8027 8.72422C15.8684 9.3043 16.5 10.0262 16.5 10.8125C16.5 10.9844 16.4699 11.152 16.4098 11.3152C16.2121 11.8824 15.6793 12.4023 14.9059 12.8406C14.9016 12.8449 14.893 12.8449 14.8887 12.8492C14.8758 12.8578 14.8629 12.8621 14.85 12.8707C13.3461 13.7043 10.9484 14.2457 8.25 14.2457C5.68906 14.2457 3.39883 13.7602 1.88203 12.9953C1.80039 12.9566 1.72305 12.9137 1.6457 12.8707C0.614453 12.2992 0 11.5859 0 10.8125C0 9.31719 2.29453 8.04102 5.5 7.57266C5.95117 7.5082 6.41953 7.45664 6.90508 7.42227ZM17.875 10.8125C17.875 9.87148 17.4195 9.09805 16.8395 8.51797C18.0555 8.32891 19.1684 8.02813 20.1137 7.63711C20.8141 7.34492 21.4672 6.98398 22 6.54141V8.0625C22 8.8918 21.291 9.65664 20.118 10.2496C19.4906 10.5676 18.7258 10.8383 17.8664 11.0445C17.8707 10.9672 17.875 10.8941 17.875 10.8168V10.8125ZM16.5 14.9375C16.5 15.7109 15.8855 16.4242 14.85 17C14.7727 17.043 14.6953 17.0816 14.6137 17.1246C13.1012 17.8895 10.8109 18.375 8.25 18.375C5.55156 18.375 3.15391 17.8336 1.65 17C0.614453 16.4242 0 15.7109 0 14.9375V13.4164C0.537109 13.859 1.18594 14.2199 1.88633 14.5121C3.58359 15.2211 5.83516 15.625 8.25 15.625C10.6648 15.625 12.9164 15.2211 14.6137 14.5121C14.9488 14.3746 15.2711 14.2156 15.5762 14.0438C15.8383 13.8977 16.0832 13.7344 16.3152 13.5625C16.3797 13.5152 16.4398 13.4637 16.5 13.4164V14.9375ZM17.875 14.9375V12.4496C18.6914 12.2691 19.4434 12.0414 20.1137 11.7621C20.8141 11.4699 21.4672 11.109 22 10.6664V12.1875C22 12.6387 21.7852 13.0898 21.3598 13.5152C20.6594 14.2156 19.4262 14.7914 17.8664 15.1652C17.8707 15.0922 17.875 15.0148 17.875 14.9375ZM8.25 19.75C10.6648 19.75 12.9164 19.3461 14.6137 18.6371C15.3141 18.3449 15.9672 17.984 16.5 17.5414V19.0625C16.5 20.9617 12.8047 22.5 8.25 22.5C3.69531 22.5 0 20.9617 0 19.0625V17.5414C0.537109 17.984 1.18594 18.3449 1.88633 18.6371C3.58359 19.3461 5.83516 19.75 8.25 19.75Z" fill="#FF9500"/>
</g>
<defs>
<clipPath id="clip0_483_426">
<rect width="22" height="22" fill="white" transform="translate(0 0.5)"/>
</clipPath>
</defs>
</svg>
