<svg width="16" height="12" viewBox="0 0 16 12" fill="none" xmlns="http://www.w3.org/2000/svg">
<path d="M8 8.5C9.38071 8.5 10.5 7.38071 10.5 6C10.5 4.61929 9.38071 3.5 8 3.5C6.61929 3.5 5.5 4.61929 5.5 6C5.5 7.38071 6.61929 8.5 8 8.5Z" stroke="#05080F" stroke-width="1.4"/>
<path d="M14.8231 5.11167C15.1464 5.505 15.3081 5.70083 15.3081 6C15.3081 6.29917 15.1464 6.495 14.8231 6.88833C13.6397 8.325 11.0297 11 7.99974 11C4.96974 11 2.35974 8.325 1.17641 6.88833C0.853073 6.495 0.691406 6.29917 0.691406 6C0.691406 5.70083 0.853073 5.505 1.17641 5.11167C2.35974 3.675 4.96974 1 7.99974 1C11.0297 1 13.6397 3.675 14.8231 5.11167Z" stroke="#05080F" stroke-width="1.4"/>
</svg>
