<svg width="40" height="41" viewBox="0 0 40 41" fill="none" xmlns="http://www.w3.org/2000/svg">
<path d="M21.6663 5.50333C20.883 5.50111 20.0497 5.5 19.1663 5.5C11.703 5.5 7.96967 5.5 5.65134 7.81833C3.33301 10.1367 3.33301 13.8683 3.33301 21.3333C3.33301 28.7967 3.33301 32.53 5.65134 34.8483C7.96967 37.1667 11.7013 37.1667 19.1663 37.1667C26.6297 37.1667 30.363 37.1667 32.6813 34.8483C34.9997 32.53 34.9997 28.7983 34.9997 21.3333C34.9997 20.45 34.9986 19.6167 34.9963 18.8333" stroke="#586072" stroke-width="2" stroke-linecap="round" stroke-linejoin="round"/>
<path d="M11.666 29.6663C15.5527 25.5963 22.7377 25.4047 26.666 29.6663M30.8327 3.83301L31.2627 4.99467C31.826 6.51801 32.1077 7.27967 32.6627 7.83467C33.2193 8.39134 33.981 8.67301 35.5043 9.23634L36.666 9.66634L35.5043 10.0963C33.981 10.6597 33.2194 10.9413 32.6644 11.4963C32.1077 12.053 31.826 12.8147 31.2627 14.338L30.8327 15.4997L30.4027 14.338C29.8393 12.8147 29.5577 12.053 29.0027 11.498C28.446 10.9413 27.6843 10.6597 26.161 10.0963L24.9993 9.66634L26.161 9.23634C27.6843 8.67301 28.446 8.39134 29.001 7.83634C29.5577 7.27967 29.8393 6.51801 30.4027 4.99467L30.8327 3.83301ZM23.3243 17.1663C23.3243 19.4663 21.4577 21.333 19.1527 21.333C18.6049 21.3339 18.0624 21.2268 17.5561 21.0178C17.0498 20.8088 16.5897 20.502 16.2021 20.115C15.8145 19.728 15.507 19.2684 15.2972 18.7624C15.0873 18.2564 14.9793 17.7141 14.9793 17.1663C14.9793 14.8663 16.846 12.9997 19.1527 12.9997C19.7003 12.999 20.2426 13.1063 20.7487 13.3154C21.2548 13.5245 21.7148 13.8313 22.1022 14.2183C22.4896 14.6053 22.797 15.0648 23.0067 15.5707C23.2164 16.0765 23.3243 16.6187 23.3243 17.1663Z" stroke="#586072" stroke-width="2" stroke-linecap="round" stroke-linejoin="round"/>
</svg>
