<svg width="20" height="20" viewBox="0 0 20 20" fill="none" xmlns="http://www.w3.org/2000/svg">
<path fill-rule="evenodd" clip-rule="evenodd" d="M4.74286 4.04254C4.74279 3.41856 4.93113 2.80973 5.28222 2.29901C5.6333 1.78829 6.13006 1.40051 6.70479 1.18853C7.27953 0.976539 7.9043 0.950645 8.49397 1.11437C9.08364 1.2781 9.60954 1.62349 10 2.10348C10.4822 1.50656 11.1695 1.12031 11.9214 1.02374C12.6732 0.927157 13.4328 1.12755 14.0448 1.58392C14.6567 2.04029 15.0748 2.71816 15.2135 3.47887C15.3522 4.23959 15.201 5.02566 14.7909 5.67632H15.4857C16.1525 5.67632 16.7921 5.94681 17.2636 6.42829C17.7351 6.90976 18 7.56278 18 8.24369V10.1109C18.0002 10.468 17.8858 10.8154 17.6743 11.0998C17.4627 11.3843 17.1658 11.5901 16.8288 11.6858C16.9605 13.3906 16.8837 15.1074 16.6002 16.7954C16.5177 17.2858 16.2814 17.7356 15.9269 18.0771C15.5723 18.4185 15.1188 18.6332 14.6345 18.6887L13.7979 18.7839C11.2735 19.072 8.72555 19.072 6.20114 18.7839L5.36549 18.6887C4.88119 18.6332 4.42765 18.4185 4.07314 18.0771C3.71862 17.7356 3.48231 17.2858 3.39977 16.7954C3.11538 15.1086 3.03859 13.3921 3.1712 11.6858C2.83423 11.5901 2.53725 11.3843 2.32573 11.0998C2.11421 10.8154 1.9998 10.468 2 10.1109V8.24369C2 7.56278 2.2649 6.90976 2.73642 6.42829C3.20794 5.94681 3.84746 5.67632 4.51429 5.67632H5.20914C4.9038 5.18852 4.74197 4.62148 4.74286 4.04254ZM9.31429 4.04254C9.31429 3.60924 9.14572 3.19368 8.84566 2.88729C8.5456 2.58089 8.13863 2.40876 7.71429 2.40876C7.28994 2.40876 6.88297 2.58089 6.58291 2.88729C6.28286 3.19368 6.11429 3.60924 6.11429 4.04254C6.11429 4.47585 6.28286 4.89141 6.58291 5.1978C6.88297 5.50419 7.28994 5.67632 7.71429 5.67632C8.13863 5.67632 8.5456 5.50419 8.84566 5.1978C9.14572 4.89141 9.31429 4.47585 9.31429 4.04254ZM12.2857 5.67632C12.4958 5.67632 12.7039 5.63407 12.898 5.55196C13.0921 5.46986 13.2685 5.34951 13.4171 5.1978C13.5657 5.04609 13.6835 4.86598 13.7639 4.66776C13.8443 4.46955 13.8857 4.2571 13.8857 4.04254C13.8857 3.82799 13.8443 3.61554 13.7639 3.41732C13.6835 3.2191 13.5657 3.039 13.4171 2.88729C13.2685 2.73558 13.0921 2.61523 12.898 2.53313C12.7039 2.45102 12.4958 2.40876 12.2857 2.40876C11.8614 2.40876 11.4544 2.58089 11.1543 2.88729C10.8543 3.19368 10.6857 3.60924 10.6857 4.04254C10.6857 4.47585 10.8543 4.89141 11.1543 5.1978C11.4544 5.50419 11.8614 5.67632 12.2857 5.67632ZM3.37143 8.24369C3.37143 7.59952 3.88343 7.07671 4.51429 7.07671H9.31429V10.3443H3.6C3.53938 10.3443 3.48124 10.3197 3.43838 10.2759C3.39551 10.2321 3.37143 10.1728 3.37143 10.1109V8.24369ZM10.6857 11.7446H15.4574C15.5854 13.3504 15.5159 14.9683 15.2489 16.5582C15.2166 16.7495 15.1244 16.925 14.986 17.0582C14.8477 17.1913 14.6708 17.2751 14.4818 17.2967L13.6462 17.3929C12.6618 17.5049 11.675 17.5715 10.6857 17.5926V11.7446ZM10.6857 10.3443H16.4C16.4606 10.3443 16.5188 10.3197 16.5616 10.2759C16.6045 10.2321 16.6286 10.1728 16.6286 10.1109V8.24369C16.6286 7.59952 16.1166 7.07671 15.4857 7.07671H10.6857V10.3443ZM9.31429 11.7446V17.5926C8.32503 17.5715 7.33721 17.5049 6.35383 17.3929L5.51817 17.2967C5.32936 17.2751 5.15252 17.1915 5.0142 17.0585C4.87587 16.9255 4.78355 16.7503 4.75109 16.5592C4.48418 14.9696 4.41414 13.3521 4.54263 11.7446H9.31429Z" fill="#586072"/>
</svg>
