<svg width="32" height="26" viewBox="0 0 28 23" fill="none" xmlns="http://www.w3.org/2000/svg">
<g clip-path="url(#clip0_483_424)">
<path d="M4.125 10.125C5.6418 10.125 6.875 8.8918 6.875 7.375C6.875 5.8582 5.6418 4.625 4.125 4.625C2.6082 4.625 1.375 5.8582 1.375 7.375C1.375 8.8918 2.6082 10.125 4.125 10.125ZM23.375 10.125C24.8918 10.125 26.125 8.8918 26.125 7.375C26.125 5.8582 24.8918 4.625 23.375 4.625C21.8582 4.625 20.625 5.8582 20.625 7.375C20.625 8.8918 21.8582 10.125 23.375 10.125ZM24.75 11.5H22C21.2437 11.5 20.5605 11.8051 20.0621 12.2992C21.7937 13.2488 23.0227 14.9633 23.2891 17H26.125C26.8855 17 27.5 16.3855 27.5 15.625V14.25C27.5 12.7332 26.2668 11.5 24.75 11.5ZM13.75 11.5C16.4098 11.5 18.5625 9.34727 18.5625 6.6875C18.5625 4.02773 16.4098 1.875 13.75 1.875C11.0902 1.875 8.9375 4.02773 8.9375 6.6875C8.9375 9.34727 11.0902 11.5 13.75 11.5ZM17.05 12.875H16.6934C15.7996 13.3047 14.807 13.5625 13.75 13.5625C12.693 13.5625 11.7047 13.3047 10.8066 12.875H10.45C7.71719 12.875 5.5 15.0922 5.5 17.825V19.0625C5.5 20.2012 6.42383 21.125 7.5625 21.125H19.9375C21.0762 21.125 22 20.2012 22 19.0625V17.825C22 15.0922 19.7828 12.875 17.05 12.875ZM7.43789 12.2992C6.93945 11.8051 6.25625 11.5 5.5 11.5H2.75C1.2332 11.5 0 12.7332 0 14.25V15.625C0 16.3855 0.614453 17 1.375 17H4.20664C4.47734 14.9633 5.70625 13.2488 7.43789 12.2992Z" fill="#FF9500"/>
</g>
<defs>
<clipPath id="clip0_483_424">
<rect width="27.5" height="22" fill="white" transform="translate(0 0.5)"/>
</clipPath>
</defs>
</svg>
