<svg width="18" height="18" viewBox="0 0 18 18" fill="none" xmlns="http://www.w3.org/2000/svg">
<path d="M8.25391 1.5L13.7274 3.21C13.8801 3.25766 14.0135 3.35286 14.1082 3.48172C14.2029 3.61057 14.254 3.76633 14.2539 3.92625V5.25H15.7539C15.9528 5.25 16.1436 5.32902 16.2842 5.46967C16.4249 5.61032 16.5039 5.80109 16.5039 6V12C16.5039 12.1989 16.4249 12.3897 16.2842 12.5303C16.1436 12.671 15.9528 12.75 15.7539 12.75L13.3389 12.7507C13.0487 13.1332 12.6962 13.4707 12.2889 13.7482L8.25391 16.5L4.21891 13.749C3.6133 13.3361 3.11772 12.7815 2.77526 12.1334C2.4328 11.4854 2.25383 10.7635 2.25391 10.0305V3.92625C2.254 3.76646 2.30512 3.61087 2.39983 3.48216C2.49453 3.35346 2.62787 3.25837 2.78041 3.21075L8.25391 1.5ZM8.25391 3.0705L3.75391 4.4775V10.0305C3.7538 10.4897 3.85909 10.9427 4.06168 11.3548C4.26427 11.7669 4.55874 12.1269 4.92241 12.4072L5.06416 12.5093L8.25391 14.6842L11.0904 12.75H7.50391C7.30499 12.75 7.11423 12.671 6.97358 12.5303C6.83292 12.3897 6.75391 12.1989 6.75391 12V6C6.75391 5.80109 6.83292 5.61032 6.97358 5.46967C7.11423 5.32902 7.30499 5.25 7.50391 5.25H12.7539V4.4775L8.25391 3.0705ZM8.25391 9V11.25H15.0039V9H8.25391ZM8.25391 7.5H15.0039V6.75H8.25391V7.5Z" fill="#FF9500"/>
</svg>
