<svg width="20" height="19" viewBox="0 0 20 19" fill="none" xmlns="http://www.w3.org/2000/svg">
<mask id="mask0_1280_712" style="mask-type:luminance" maskUnits="userSpaceOnUse" x="0" y="0" width="20" height="19">
<path d="M10.0003 17.8332C11.0949 17.8345 12.1789 17.6196 13.1901 17.2007C14.2014 16.7818 15.1198 16.1673 15.8928 15.3923C16.6678 14.6194 17.2823 13.7009 17.7012 12.6896C18.1201 11.6784 18.335 10.5944 18.3337 9.49984C18.335 8.4053 18.1201 7.32127 17.7012 6.31005C17.2823 5.29882 16.6678 4.38033 15.8928 3.60734C15.1198 2.83241 14.2014 2.21785 13.1901 1.79897C12.1789 1.3801 11.0949 1.16516 10.0003 1.16651C8.90579 1.16516 7.82176 1.3801 6.81054 1.79897C5.79931 2.21785 4.88082 2.83241 4.10783 3.60734C3.3329 4.38033 2.71834 5.29882 2.29946 6.31005C1.88059 7.32127 1.66565 8.4053 1.667 9.49984C1.66565 10.5944 1.88059 11.6784 2.29946 12.6896C2.71834 13.7009 3.3329 14.6194 4.10783 15.3923C4.88082 16.1673 5.79931 16.7818 6.81054 17.2007C7.82176 17.6196 8.90579 17.8345 10.0003 17.8332Z" fill="white" stroke="white" stroke-width="2" stroke-linejoin="round"/>
<path d="M6.66699 9.49976L9.16699 11.9998L14.167 6.99976" stroke="black" stroke-width="2" stroke-linecap="round" stroke-linejoin="round"/>
</mask>
<g mask="url(#mask0_1280_712)">
<path d="M0 -0.5H20V19.5H0V-0.5Z" fill="currentColor"/>
</g>
</svg>
