<svg width="40" height="40" viewBox="0 0 49 49" fill="none" xmlns="http://www.w3.org/2000/svg">
<circle cx="24.5" cy="24.5" r="24.25" fill="white" stroke="#D4D4D4" stroke-width="0.5"/>
<path d="M24.5007 29.8051C24.3254 29.8051 24.1632 29.7763 24.014 29.7186C23.8648 29.6608 23.7194 29.5607 23.5779 29.418L19.2985 25.1403C19.1396 24.9813 19.0568 24.7941 19.0503 24.5785C19.0437 24.3629 19.1265 24.1652 19.2985 23.9856C19.4793 23.8048 19.6737 23.7128 19.8816 23.7095C20.0907 23.7063 20.2851 23.795 20.4647 23.9758L23.684 27.1951V13.8834C23.684 13.6515 23.7619 13.4571 23.9176 13.3003C24.0733 13.1435 24.2677 13.0656 24.5007 13.0667C24.7337 13.0678 24.9281 13.1457 25.0838 13.3003C25.2395 13.4549 25.3174 13.6493 25.3174 13.8834V27.1951L28.5367 23.9758C28.6957 23.8168 28.8846 23.7335 29.1034 23.7259C29.3223 23.7182 29.5216 23.8048 29.7013 23.9856C29.8755 24.1652 29.9642 24.358 29.9675 24.5638C29.9707 24.7696 29.8825 24.9617 29.7029 25.1403L25.4235 29.4197C25.282 29.5612 25.1366 29.6608 24.9874 29.7186C24.8394 29.7763 24.6771 29.8051 24.5007 29.8051ZM15.7068 35.9334C14.9544 35.9334 14.3267 35.6819 13.8236 35.1788C13.3205 34.6757 13.0685 34.0474 13.0674 33.2939V30.153C13.0674 29.9211 13.1452 29.7273 13.3009 29.5716C13.4567 29.4158 13.651 29.3374 13.884 29.3364C14.1171 29.3353 14.3114 29.4137 14.4671 29.5716C14.6229 29.7294 14.7007 29.9233 14.7007 30.153V33.2939C14.7007 33.5455 14.8052 33.7763 15.0143 33.9865C15.2234 34.1966 15.4537 34.3011 15.7052 34.3001H33.2962C33.5467 34.3001 33.777 34.1955 33.9871 33.9865C34.1973 33.7774 34.3018 33.5465 34.3007 33.2939V30.153C34.3007 29.9211 34.3786 29.7273 34.5343 29.5716C34.69 29.4158 34.8844 29.3374 35.1174 29.3364C35.3504 29.3353 35.5448 29.4137 35.7005 29.5716C35.8562 29.7294 35.934 29.9233 35.934 30.153V33.2939C35.934 34.0463 35.6825 34.6741 35.1794 35.1772C34.6764 35.6802 34.0481 35.9323 33.2946 35.9334H15.7068Z" fill="#323232"/>
</svg>
