<svg width="26" height="26" viewBox="0 0 26 26" fill="none" xmlns="http://www.w3.org/2000/svg">
<path d="M1.34513 14.6964L0.844081 14.7188L0.867071 15.2297L1.37892 15.1953L1.34513 14.6964ZM25.1593 14.6964L25.1255 15.1953L25.6374 15.2297L25.6604 14.7188L25.1593 14.6964ZM13.2522 19.6315L13.2016 20.1289L13.2522 20.1341L13.3028 20.1289L13.2522 19.6315ZM10.1991 19.3231L10.2496 18.8256L9.40919 18.7407L9.73677 19.5169L10.1991 19.3231ZM11.1102 21.4821L10.6479 21.6761C10.7262 21.8615 10.9084 21.9821 11.1102 21.9821V21.4821ZM15.3846 21.4821V21.9821C15.5858 21.9821 15.7675 21.8623 15.8461 21.6777L15.3846 21.4821ZM16.3052 19.3231L16.7669 19.5187L17.0988 18.7403L16.2547 18.8256L16.3052 19.3231ZM22.045 17.1639L22.1554 16.6762L22.1237 16.6691L22.0913 16.6661L22.045 17.1639ZM1.34513 14.6964C1.84618 14.674 1.84619 14.6741 1.84619 14.6743C1.84619 14.6743 1.8462 14.6744 1.84619 14.6743C1.84619 14.6741 1.84617 14.6737 1.84614 14.6731C1.84609 14.6718 1.846 14.6695 1.84588 14.6663C1.84564 14.6599 1.8453 14.6497 1.8449 14.6359C1.8441 14.6082 1.84312 14.5659 1.84249 14.5101C1.84124 14.3984 1.8414 14.2328 1.84727 14.0217C1.85903 13.5994 1.89365 12.9964 1.98522 12.2809C2.16888 10.8461 2.57914 8.97913 3.47831 7.21156L3.031 6.98538L2.58367 6.75925C1.61521 8.66306 1.18254 10.6516 0.990178 12.1544C0.893748 12.9078 0.857071 13.5442 0.844551 13.994C0.838288 14.219 0.838056 14.3977 0.839448 14.5213C0.840144 14.5831 0.841241 14.6312 0.8422 14.6645C0.842677 14.6811 0.843116 14.6941 0.843454 14.7032C0.843623 14.7077 0.843768 14.7113 0.843874 14.7139C0.843924 14.7153 0.843968 14.7163 0.844006 14.7171C0.844025 14.7175 0.844037 14.7179 0.84405 14.7182C0.844056 14.7183 0.844081 14.7187 0.844081 14.7188C0.844087 14.7189 0.844081 14.7188 1.34513 14.6964ZM3.031 6.98538L2.76085 7.40669L6.57052 9.83444L6.84067 9.41313L7.11082 8.99187L3.30113 6.56413L3.031 6.98538ZM3.031 6.98538L3.47831 7.21156C4.30642 5.58362 5.54321 4.05089 7.39325 3.00564L7.14599 2.57064L6.89866 2.13565C4.83982 3.29886 3.47953 4.99819 2.58367 6.75925L3.031 6.98538ZM7.14599 2.57064L7.39325 3.00564C8.88187 2.16463 10.7921 1.625 13.2522 1.625V1.125V0.625C10.6398 0.625 8.55536 1.19965 6.89866 2.13565L7.14599 2.57064ZM6.84067 9.41313L7.30341 9.60606C7.77644 8.47838 8.49134 7.41225 9.56799 6.67169L9.28311 6.26019L8.99829 5.84863C7.71801 6.72925 6.90035 7.97475 6.37792 9.22025L6.84067 9.41313ZM9.28311 6.26019L9.56799 6.67169C10.4755 6.0475 11.6683 5.63475 13.2522 5.63475V5.13475V4.63475C11.4822 4.63475 10.0872 5.09969 8.99829 5.84863L9.28311 6.26019ZM7.14599 2.57064L6.71164 2.82068L8.84883 6.51019L9.28311 6.26019L9.71746 6.01013L7.58033 2.32061L7.14599 2.57064ZM13.2522 1.125L12.7506 1.12499V5.13475H13.2522H13.7537V1.12501L13.2522 1.125ZM13.2522 1.125V1.625C15.7123 1.625 17.6225 2.16463 19.1111 3.00564L19.3584 2.57064L19.6057 2.13564C17.949 1.19965 15.8646 0.625 13.2522 0.625V1.125ZM13.2522 5.13475V5.63475C14.836 5.63475 16.0288 6.0475 16.9363 6.67169L17.2212 6.26019L17.506 5.84863C16.4172 5.09969 15.0221 4.63475 13.2522 4.63475V5.13475ZM19.3584 2.57064L18.9241 2.32061L16.7868 6.01013L17.2212 6.26019L17.6555 6.51019L19.7927 2.82069L19.3584 2.57064ZM19.3584 2.57064L19.1111 3.00564C21.0213 4.08487 22.2779 5.684 23.1058 7.371L23.5563 7.15131L24.0068 6.93156C23.1127 5.10956 21.7318 3.33685 19.6057 2.13564L19.3584 2.57064ZM23.5563 7.15131L23.1058 7.371C23.963 9.11788 24.3531 10.9455 24.5273 12.3452C24.6142 13.0432 24.6468 13.6301 24.6577 14.0407C24.6632 14.2459 24.6632 14.4068 24.6619 14.5151C24.6613 14.5693 24.6603 14.6102 24.6595 14.6371C24.6591 14.6505 24.6588 14.6604 24.6586 14.6666C24.6585 14.6697 24.6583 14.6719 24.6583 14.6731C24.6583 14.6738 24.6583 14.6741 24.6583 14.6743C24.6583 14.6743 24.6583 14.6744 24.6583 14.6743C24.6583 14.6741 24.6583 14.674 25.1593 14.6964C25.6604 14.7188 25.6604 14.7189 25.6604 14.7188C25.6604 14.7187 25.6604 14.7189 25.6604 14.7188C25.6604 14.7185 25.6604 14.7176 25.6604 14.7171C25.6605 14.7164 25.6605 14.7153 25.6606 14.7141C25.6607 14.7115 25.6608 14.708 25.661 14.7036C25.6613 14.6947 25.6617 14.6821 25.6622 14.6659C25.6631 14.6336 25.6643 14.5869 25.6649 14.5268C25.6663 14.4067 25.6663 14.2331 25.6604 14.0142C25.6488 13.5767 25.6143 12.9571 25.5228 12.2221C25.3403 10.7558 24.929 8.81075 24.0068 6.93156L23.5563 7.15131ZM17.2212 6.26019L16.9363 6.67169C18.0129 7.41225 18.7279 8.47838 19.2009 9.60606L19.6637 9.41313L20.1263 9.22025C19.6039 7.97475 18.7863 6.72925 17.506 5.84863L17.2212 6.26019ZM23.5563 7.15131L23.3037 6.71931L19.4111 8.98119L19.6637 9.41313L19.9162 9.84513L23.8089 7.58325L23.5563 7.15131ZM5.9277 14.388C6.42883 14.3678 6.42883 14.3678 6.42883 14.3679C6.42883 14.3677 6.42883 14.3676 6.42883 14.3669C6.42876 14.3656 6.4287 14.3633 6.42858 14.36C6.42839 14.3534 6.42808 14.3428 6.42776 14.3285C6.42713 14.2999 6.42645 14.2562 6.42632 14.199C6.42607 14.0844 6.42814 13.9154 6.43754 13.7031C6.45635 13.2782 6.50444 12.6828 6.62142 12.0053L6.12714 11.9204L5.63287 11.8356C5.50726 12.5631 5.45565 13.2015 5.43539 13.6591C5.42524 13.8881 5.42293 14.0726 5.42319 14.2011C5.42333 14.2653 5.42411 14.3157 5.42488 14.3506C5.42527 14.3681 5.42566 14.3818 5.42596 14.3914C5.42612 14.3962 5.42625 14.4001 5.42635 14.4029C5.4264 14.4043 5.42645 14.4054 5.42648 14.4063C5.4265 14.4067 5.42651 14.4071 5.42652 14.4074C5.42651 14.4073 5.42653 14.4076 5.42652 14.4074C5.42652 14.4075 5.42655 14.408 5.42655 14.4081C5.42655 14.4081 5.42655 14.4082 5.9277 14.388ZM6.12714 11.9204L6.62142 12.0053C6.7502 11.2597 6.96104 10.4222 7.30341 9.60606L6.84067 9.41313L6.37792 9.22025C5.99921 10.1231 5.77078 11.0369 5.63287 11.8356L6.12714 11.9204ZM19.6637 9.41313L19.2009 9.60606C19.5433 10.4222 19.7541 11.2597 19.8829 12.0053L20.3772 11.9204L20.8715 11.8356C20.7335 11.0369 20.5051 10.1231 20.1263 9.22025L19.6637 9.41313ZM20.3772 11.9204L19.8829 12.0053C19.9999 12.6828 20.048 13.2782 20.0668 13.7031C20.0762 13.9154 20.0783 14.0844 20.0781 14.199C20.0779 14.2562 20.0773 14.2999 20.0766 14.3285C20.0763 14.3428 20.076 14.3534 20.0757 14.36C20.0757 14.3633 20.0756 14.3656 20.0756 14.3669C20.0755 14.3676 20.0755 14.3679 20.0755 14.3681C20.0755 14.3681 20.0755 14.3678 20.5767 14.388C21.0778 14.4082 21.0778 14.4081 21.0778 14.4081C21.0779 14.4077 21.0779 14.4067 21.0779 14.4063C21.0779 14.4054 21.0779 14.4043 21.078 14.4029C21.0781 14.4001 21.0782 14.3962 21.0784 14.3914C21.0787 14.3818 21.079 14.3681 21.0795 14.3506C21.0802 14.3157 21.081 14.2653 21.0812 14.2011C21.0814 14.0726 21.0791 13.8881 21.069 13.6591C21.0487 13.2015 20.997 12.5631 20.8715 11.8356L20.3772 11.9204ZM6.12714 11.9204V12.4204H8.97785V11.9204V11.4204H6.12714V11.9204ZM8.97785 11.9204C9.47815 11.9556 9.47815 11.9558 9.47809 11.956C9.47809 11.9559 9.47809 11.9561 9.47809 11.956C9.47815 11.9552 9.47834 11.9534 9.47859 11.9506C9.47903 11.9449 9.47991 11.9354 9.48123 11.9222C9.48392 11.8959 9.48843 11.8552 9.49571 11.8022C9.51013 11.6961 9.5352 11.5415 9.57708 11.3547C9.66122 10.9789 9.81062 10.4843 10.07 9.99506C10.5799 9.03363 11.5002 8.10225 13.2522 8.10225V7.60225V7.10225C11.0351 7.10225 9.81833 8.33 9.18324 9.52769C8.87021 10.118 8.69516 10.7029 8.59805 11.1368C8.54921 11.3548 8.51943 11.5375 8.50169 11.6676C8.49285 11.7326 8.48696 11.7847 8.48319 11.8217C8.48131 11.8402 8.48 11.8549 8.47906 11.8656C8.47862 11.8709 8.4783 11.8752 8.47799 11.8786C8.47787 11.8802 8.4778 11.8816 8.47768 11.8827C8.47768 11.8832 8.47761 11.8838 8.47761 11.8842C8.47755 11.8844 8.47755 11.8847 8.47755 11.8848C8.47755 11.8851 8.47749 11.8853 8.97785 11.9204ZM8.97785 11.9204V12.4204H17.5265V11.9204V11.4204H8.97785V11.9204ZM17.5265 11.9204V12.4204H20.3772V11.9204V11.4204H17.5265V11.9204ZM13.2522 7.60225V8.10225C15.0041 8.10225 15.9245 9.03363 16.4343 9.99506C16.6937 10.4843 16.8431 10.9789 16.9273 11.3547C16.9691 11.5415 16.9942 11.6961 17.0087 11.8022C17.0159 11.8552 17.0204 11.8959 17.0231 11.9222C17.0244 11.9354 17.0253 11.9449 17.0258 11.9506C17.026 11.9534 17.0262 11.9552 17.0262 11.9561C17.0262 11.9561 17.0262 11.9565 17.0262 11.9561C17.0262 11.9559 17.0262 11.9556 17.5265 11.9204C18.0268 11.8853 18.0268 11.8851 18.0268 11.8848C18.0268 11.8847 18.0268 11.8851 18.0268 11.8848C18.0267 11.8844 18.0266 11.8832 18.0266 11.8827C18.0265 11.8816 18.0265 11.8802 18.0263 11.8786C18.0261 11.8752 18.0257 11.8709 18.0253 11.8656C18.0243 11.8549 18.023 11.8402 18.0211 11.8217C18.0174 11.7847 18.0115 11.7326 18.0026 11.6676C17.9849 11.5375 17.9551 11.3548 17.9063 11.1368C17.8092 10.7029 17.6342 10.118 17.3211 9.52769C16.686 8.33 15.4692 7.10225 13.2522 7.10225V7.60225ZM7.14599 14.388C6.68719 14.5901 6.68725 14.5901 6.68732 14.5902C6.68725 14.5901 6.68732 14.5903 6.68732 14.5902C6.68738 14.5904 6.68763 14.591 6.68775 14.5913C6.68801 14.5919 6.68832 14.5926 6.68869 14.5935C6.68951 14.5953 6.69058 14.5976 6.69189 14.6005C6.69453 14.6063 6.69816 14.6144 6.70293 14.6246C6.71239 14.6451 6.726 14.6742 6.74355 14.7106C6.77866 14.7834 6.82976 14.8861 6.89521 15.0086C7.02555 15.2525 7.2157 15.5809 7.45325 15.9124C7.68867 16.241 7.98308 16.5902 8.32583 16.8615C8.66614 17.1309 9.09515 17.3555 9.58843 17.3555V16.8555V16.3555C9.40725 16.3555 9.19377 16.2717 8.94964 16.0784C8.70795 15.8871 8.47605 15.6194 8.26947 15.3311C8.06496 15.0457 7.8975 14.7572 7.78058 14.5385C7.72246 14.4297 7.67757 14.3395 7.6476 14.2774C7.63268 14.2464 7.62146 14.2224 7.61425 14.2068C7.61062 14.1989 7.60804 14.1932 7.60641 14.1897C7.6056 14.1879 7.6051 14.1867 7.60478 14.1861C7.60485 14.1861 7.60472 14.1859 7.14599 14.388ZM9.58843 16.8555V17.3555C10.2267 17.3555 10.7281 17.1683 11.1019 16.8503C11.4678 16.5391 11.6714 16.1367 11.7851 15.7691C11.8988 15.4016 11.9307 15.0433 11.9361 14.7838C11.9388 14.6524 11.9348 14.5422 11.9299 14.4633C11.9274 14.4237 11.9247 14.3917 11.9225 14.3686C11.9215 14.3571 11.9205 14.3477 11.9197 14.3407C11.9193 14.3372 11.919 14.3342 11.9187 14.3319C11.9186 14.3307 11.9185 14.3298 11.9183 14.3289C11.9183 14.3284 11.9183 14.3281 11.9182 14.3277C11.9182 14.3276 11.9182 14.3278 11.9182 14.3277C11.9182 14.3275 11.9181 14.3268 11.4203 14.388C10.9225 14.4492 10.9225 14.449 10.9225 14.4488C10.9225 14.4487 10.9225 14.4489 10.9225 14.4488C10.9225 14.4486 10.9224 14.4481 10.9224 14.448C10.9224 14.4481 10.9224 14.4483 10.9226 14.4494C10.9228 14.4517 10.9233 14.4563 10.9239 14.4627C10.9251 14.4758 10.9269 14.4969 10.9286 14.5248C10.9321 14.5808 10.9352 14.6633 10.9332 14.7633C10.929 14.9664 10.9037 15.2251 10.8265 15.4744C10.7494 15.7237 10.6287 15.9383 10.4507 16.0896C10.2806 16.2343 10.0188 16.3555 9.58843 16.3555V16.8555ZM19.3733 14.388C18.9145 14.1859 18.9145 14.1858 18.9146 14.1858C18.9143 14.1864 18.9136 14.1879 18.9128 14.1897C18.9112 14.1932 18.9086 14.1989 18.905 14.2068C18.8978 14.2224 18.8866 14.2464 18.8716 14.2774C18.8417 14.3395 18.7968 14.4297 18.7387 14.5385C18.6217 14.7572 18.4543 15.0457 18.2498 15.3311C18.0432 15.6194 17.8113 15.8871 17.5696 16.0784C17.3255 16.2717 17.112 16.3555 16.9308 16.3555V16.8555V17.3555C17.4241 17.3555 17.8531 17.1309 18.1934 16.8615C18.5362 16.5902 18.8306 16.241 19.066 15.9124C19.3035 15.5809 19.4937 15.2525 19.624 15.0086C19.6895 14.8861 19.7406 14.7834 19.7757 14.7106C19.7932 14.6742 19.8069 14.6451 19.8163 14.6246C19.8211 14.6144 19.8247 14.6063 19.8274 14.6005C19.8287 14.5976 19.8297 14.5953 19.8306 14.5935C19.8309 14.5926 19.8312 14.5919 19.8315 14.5913C19.8316 14.591 19.8317 14.5908 19.8318 14.5906C19.8318 14.5906 19.8319 14.5904 19.8318 14.5906C19.8319 14.5904 19.8321 14.5901 19.3733 14.388ZM16.9308 16.8555V16.3555C16.5004 16.3555 16.2386 16.2343 16.0685 16.0896C15.8906 15.9383 15.7698 15.7237 15.6927 15.4744C15.6155 15.2251 15.5903 14.9664 15.5861 14.7633C15.584 14.6633 15.5871 14.5808 15.5906 14.5248C15.5924 14.4969 15.5941 14.4758 15.5954 14.4627C15.596 14.4563 15.5964 14.4517 15.5967 14.4494C15.5968 14.4483 15.5969 14.4477 15.5969 14.4476C15.5969 14.4478 15.5968 14.4482 15.5968 14.4485C15.5968 14.4486 15.5969 14.4484 15.5968 14.4485C15.5968 14.4487 15.5967 14.4492 15.0989 14.388C14.6012 14.3268 14.6012 14.327 14.6011 14.3272C14.6011 14.3273 14.6012 14.3271 14.6011 14.3272C14.601 14.3276 14.601 14.3284 14.6009 14.3289C14.6008 14.3298 14.6007 14.3307 14.6005 14.3319C14.6003 14.3342 14.6 14.3372 14.5995 14.3407C14.5988 14.3477 14.5978 14.3571 14.5967 14.3686C14.5945 14.3917 14.5918 14.4237 14.5894 14.4633C14.5845 14.5422 14.5805 14.6524 14.5832 14.7838C14.5886 15.0433 14.6205 15.4016 14.7341 15.7691C14.8479 16.1367 15.0515 16.5391 15.4174 16.8503C15.7912 17.1683 16.2926 17.3555 16.9308 17.3555V16.8555ZM5.9277 14.388V14.888H13.2522V14.388V13.888H5.9277V14.388ZM13.2522 14.388V14.888H20.5767V14.388V13.888H13.2522V14.388ZM13.2522 14.388H12.7506V19.6315H13.2522H13.7537V14.388H13.2522ZM13.2522 19.6315L13.3028 19.1341L10.2496 18.8256L10.1991 19.3231L10.1485 19.8205L13.2016 20.1289L13.2522 19.6315ZM10.1991 19.3231L9.73677 19.5169L10.6479 21.6761L11.1102 21.4821L11.5725 21.2882L10.6614 19.1292L10.1991 19.3231ZM11.1102 21.4821V21.9821H15.3846V21.4821V20.9821H11.1102V21.4821ZM15.3846 21.4821L15.8461 21.6777L16.7669 19.5187L16.3052 19.3231L15.8437 19.1274L14.923 21.2865L15.3846 21.4821ZM16.3052 19.3231L16.2547 18.8256L13.2016 19.1341L13.2522 19.6315L13.3028 20.1289L16.3558 19.8205L16.3052 19.3231ZM1.34513 14.6964L1.37892 15.1953L4.73727 14.9693L4.70349 14.4704L4.6697 13.9715L1.31135 14.1976L1.34513 14.6964ZM4.70349 14.4704L4.73727 14.9693L5.96148 14.8869L5.9277 14.388L5.89391 13.8891L4.6697 13.9715L4.70349 14.4704ZM4.70349 17.1639L4.74976 16.6661C3.56798 16.5569 2.52944 17.5256 2.52944 18.7062H3.031H3.53255C3.53255 18.0999 4.07772 17.6083 4.65721 17.6618L4.70349 17.1639ZM3.031 18.7062H2.52944C2.52944 19.854 3.55355 20.9362 4.78196 20.7422L4.70349 20.2484L4.62501 19.7546C4.10602 19.8365 3.53255 19.3451 3.53255 18.7062H3.031ZM4.70349 20.2484L4.78196 20.7422C5.82346 20.5777 6.42927 19.6783 6.42927 18.7062H5.9277H5.42615C5.42615 19.2781 5.09353 19.6806 4.62501 19.7546L4.70349 20.2484ZM5.9277 18.7062H6.42927C6.42927 17.7048 5.79272 16.8962 4.81382 16.6762L4.70349 17.1639L4.59316 17.6517C5.10613 17.767 5.42615 18.1636 5.42615 18.7062H5.9277ZM20.3725 18.7062H19.871C19.871 19.854 20.8951 20.9362 22.1235 20.7422L22.045 20.2484L21.9665 19.7546C21.4476 19.8365 20.8741 19.3451 20.8741 18.7062H20.3725ZM22.045 20.2484L22.1235 20.7422C23.165 20.5777 23.7708 19.6783 23.7708 18.7062H23.2692H22.7677C22.7677 19.2781 22.4351 19.6806 21.9665 19.7546L22.045 20.2484ZM23.2692 18.7062H23.7708C23.7708 17.7048 23.1343 16.8962 22.1554 16.6762L22.045 17.1639L21.9347 17.6517C22.4477 17.767 22.7677 18.1636 22.7677 18.7062H23.2692ZM20.5767 14.388L20.5429 14.8869L21.7671 14.9693L21.8008 14.4704L21.8346 13.9715L20.6104 13.8891L20.5767 14.388ZM21.8008 14.4704L21.7671 14.9693L25.1255 15.1953L25.1593 14.6964L25.1931 14.1976L21.8346 13.9715L21.8008 14.4704ZM22.045 17.1639L22.0913 16.6661C21.9807 16.6559 21.8709 16.6552 21.763 16.6633L21.8008 17.1619L21.8388 17.6605C21.8913 17.6565 21.9447 17.6568 21.9988 17.6618L22.045 17.1639ZM21.8008 17.1619L21.763 16.6633C20.727 16.7416 19.871 17.6317 19.871 18.7062H20.3725H20.8741C20.8741 18.161 21.3195 17.6997 21.8388 17.6605L21.8008 17.1619ZM5.9277 14.388C5.42804 14.3445 5.42803 14.3447 5.428 14.345C5.42799 14.3451 5.42796 14.3454 5.42794 14.3457C5.42789 14.3463 5.42782 14.347 5.42775 14.3479C5.4276 14.3497 5.4274 14.3521 5.42715 14.3551C5.42665 14.3613 5.42598 14.3698 5.42515 14.3808C5.42351 14.4028 5.42127 14.4345 5.41877 14.4752C5.41377 14.5566 5.40769 14.6743 5.403 14.8229C5.39365 15.1201 5.38989 15.5424 5.41184 16.0482C5.4556 17.0568 5.60215 18.4127 6.01886 19.7771C6.43503 21.1397 7.12987 22.5411 8.29066 23.6046C9.46223 24.6779 11.074 25.375 13.2522 25.375V24.875V24.375C11.3087 24.375 9.94397 23.7612 8.96945 22.8682C7.98402 21.9654 7.36304 20.7449 6.97847 19.4859C6.59447 18.2286 6.45553 16.9627 6.41403 16.005C6.39328 15.5276 6.39692 15.1306 6.40563 14.8543C6.40996 14.7162 6.4156 14.6085 6.41999 14.5363C6.42224 14.5002 6.42413 14.473 6.42544 14.4553C6.42613 14.4465 6.42663 14.44 6.42695 14.436C6.42713 14.434 6.42726 14.4326 6.42732 14.4319C6.42732 14.4315 6.42739 14.4313 6.42739 14.4312C6.42739 14.4313 6.42732 14.4315 5.9277 14.388ZM13.2522 24.875V25.375C15.4304 25.375 17.0421 24.6779 18.2137 23.6046C19.3744 22.5411 20.0693 21.1397 20.4855 19.7771C20.9022 18.4127 21.0488 17.0568 21.0925 16.0482C21.1145 15.5424 21.1107 15.1201 21.1014 14.8229C21.0967 14.6743 21.0906 14.5566 21.0856 14.4752C21.0831 14.4345 21.0809 14.4028 21.0792 14.3808C21.0784 14.3698 21.0777 14.3613 21.0772 14.3551C21.0769 14.3521 21.0767 14.3497 21.0766 14.3479C21.0765 14.347 21.0765 14.3463 21.0764 14.3457C21.0763 14.3454 21.0763 14.3451 21.0763 14.345C21.0763 14.3447 21.0763 14.3445 20.5767 14.388C20.077 14.4315 20.077 14.4314 20.077 14.4312C20.077 14.4309 20.0771 14.4313 20.077 14.4312C20.0771 14.432 20.0772 14.434 20.0774 14.436C20.0777 14.44 20.0782 14.4465 20.0789 14.4553C20.0802 14.473 20.0821 14.5002 20.0843 14.5363C20.0888 14.6085 20.0944 14.7162 20.0987 14.8543C20.1074 15.1306 20.111 15.5276 20.0904 16.005C20.0488 16.9627 19.9099 18.2286 19.5259 19.4859C19.1414 20.7449 18.5203 21.9654 17.5349 22.8682C16.5604 23.7612 15.1956 24.375 13.2522 24.375V24.875ZM4.70349 14.4704C4.38538 14.8569 4.38529 14.8569 4.38522 14.8568C4.3861 14.8576 4.38799 14.8591 4.39053 14.8612C4.39559 14.8656 4.40384 14.8726 4.41478 14.8821C4.4367 14.9012 4.46921 14.9302 4.50862 14.9673C4.58817 15.0423 4.69213 15.1471 4.79299 15.268C4.89529 15.3906 4.98468 15.5184 5.04417 15.6391C5.1054 15.7634 5.11814 15.846 5.11459 15.8916L5.61465 15.9302L6.11473 15.9688C6.1373 15.6784 6.04921 15.4106 5.94448 15.1982C5.83802 14.9821 5.69635 14.787 5.56434 14.6287C5.43087 14.4686 5.29725 14.3344 5.19779 14.2407C5.14769 14.1934 5.10534 14.1556 5.07479 14.129C5.05949 14.1157 5.04708 14.1051 5.03806 14.0975C5.03355 14.0938 5.02989 14.0907 5.02712 14.0884C5.02574 14.0873 5.02459 14.0863 5.02366 14.0855C5.0232 14.0851 5.0228 14.0848 5.02246 14.0845C5.02228 14.0844 5.02259 14.0846 5.02246 14.0845C5.02238 14.0844 5.02182 14.084 5.02178 14.084C5.02169 14.0839 5.0216 14.0838 4.70349 14.4704ZM5.61465 15.9302L5.11459 15.8916C5.10943 15.9579 5.05565 16.0504 4.81764 16.2511C4.72755 16.3271 4.58198 16.4427 4.47488 16.5556C4.37063 16.6655 4.20193 16.8726 4.20193 17.1639H4.70349H5.20504C5.20504 17.27 5.14442 17.3052 5.20373 17.2426C5.26019 17.1831 5.33367 17.1258 5.46554 17.0146C5.67146 16.8409 6.07329 16.5017 6.11473 15.9688L5.61465 15.9302ZM21.8008 14.4704C21.4853 14.0817 21.4852 14.0818 21.4851 14.0819C21.4851 14.0819 21.4852 14.0819 21.4851 14.0819C21.4849 14.0821 21.4846 14.0823 21.4844 14.0824C21.4841 14.0827 21.4837 14.0831 21.4832 14.0834C21.4823 14.0842 21.4811 14.0852 21.4797 14.0863C21.4769 14.0886 21.4732 14.0916 21.4687 14.0954C21.4595 14.103 21.447 14.1136 21.4316 14.1269C21.4007 14.1534 21.3578 14.1911 21.3073 14.2383C21.2068 14.3318 21.0716 14.4659 20.9367 14.6257C20.8033 14.7839 20.66 14.9792 20.5523 15.1956C20.4463 15.4085 20.3571 15.6774 20.3801 15.9694L20.8802 15.9302L21.3802 15.891C21.3766 15.8461 21.3892 15.764 21.4509 15.6401C21.5109 15.5196 21.601 15.3919 21.7044 15.2694C21.8064 15.1486 21.9114 15.0441 21.9918 14.9692C22.0317 14.9321 22.0645 14.9032 22.0867 14.8841C22.0978 14.8746 22.1061 14.8676 22.1112 14.8633C22.1138 14.8612 22.1156 14.8597 22.1164 14.859C22.1169 14.8586 22.1171 14.8584 22.1171 14.8584C22.1171 14.8585 22.1172 14.8584 22.1171 14.8584C22.1171 14.8584 22.1169 14.8586 22.1164 14.859C22.1164 14.8591 22.1164 14.859 21.8008 14.4704ZM20.8802 15.9302L20.3801 15.9694C20.4005 16.2277 20.5054 16.4573 20.6167 16.6379C20.7302 16.822 20.8693 16.9856 20.9965 17.1177C21.125 17.2511 21.2503 17.3614 21.3429 17.4383C21.3895 17.477 21.4288 17.5079 21.457 17.5296C21.4712 17.5405 21.4827 17.5491 21.4911 17.5554C21.4953 17.5585 21.4987 17.5611 21.5013 17.5629C21.5026 17.5639 21.5037 17.5647 21.5046 17.5653C21.5051 17.5656 21.5054 17.5659 21.5057 17.5662C21.5056 17.5661 21.5059 17.5663 21.5057 17.5662C21.5059 17.5662 21.5064 17.5666 21.5064 17.5667C21.5065 17.5668 21.5066 17.5668 21.8008 17.1619C22.0951 16.757 22.0953 16.7571 22.0953 16.7571C22.0953 16.7571 22.0954 16.7572 22.0953 16.7571C22.0954 16.7573 22.0959 16.7576 22.0959 16.7576C22.0959 16.7576 22.0962 16.7578 22.0959 16.7576C22.0951 16.7571 22.0933 16.7556 22.091 16.7539C22.0866 16.7506 22.0793 16.7452 22.0695 16.7376C22.0498 16.7225 22.0205 16.6994 21.9845 16.6696C21.9119 16.6094 21.8158 16.5245 21.72 16.4251C21.623 16.3243 21.535 16.2176 21.4713 16.1144C21.4056 16.0077 21.3835 15.9331 21.3802 15.891L20.8802 15.9302Z" fill="#F7982A"/>
</svg>
