<svg width="36" height="36" viewBox="0 0 36 36" fill="none" xmlns="http://www.w3.org/2000/svg">
<rect width="36" height="36" rx="18" fill="#FF9500"/>
<path d="M6.48951 19.645L6.00515 19.6667L6.02738 20.1622L6.52218 20.1288L6.48951 19.645ZM29.5105 19.645L29.4778 20.1288L29.9726 20.1622L29.9949 19.6667L29.5105 19.645ZM17.9999 24.4305L17.9511 24.9129L17.9999 24.9179L18.0489 24.9129L17.9999 24.4305ZM15.0485 24.1315L15.0974 23.6491L14.285 23.5667L14.6016 24.3195L15.0485 24.1315ZM15.9293 26.2251L15.4824 26.4132C15.5581 26.593 15.7342 26.7099 15.9293 26.7099V26.2251ZM20.0613 26.2251V26.7099C20.2558 26.7099 20.4315 26.5938 20.5075 26.4148L20.0613 26.2251ZM20.9513 24.1315L21.3976 24.3212L21.7184 23.5664L20.9025 23.6491L20.9513 24.1315ZM26.4999 22.0378L26.6066 21.5648L26.5759 21.5579L26.5447 21.555L26.4999 22.0378ZM6.48951 19.645C6.97387 19.6233 6.97388 19.6234 6.97388 19.6235C6.97388 19.6236 6.97389 19.6236 6.97388 19.6235C6.97388 19.6234 6.97386 19.623 6.97384 19.6224C6.97379 19.6211 6.9737 19.6189 6.97358 19.6158C6.97335 19.6096 6.97302 19.5997 6.97263 19.5863C6.97186 19.5595 6.97092 19.5184 6.97031 19.4643C6.9691 19.3561 6.96925 19.1955 6.97493 18.9908C6.9863 18.5812 7.01976 17.9965 7.10828 17.3027C7.28582 15.9114 7.68242 14.101 8.55164 12.387L8.11922 12.1676L7.6868 11.9484C6.7506 13.7945 6.33234 15.7227 6.14638 17.18C6.05316 17.9106 6.01771 18.5277 6.00561 18.9639C5.99955 19.1821 5.99933 19.3553 6.00067 19.4752C6.00134 19.5352 6.00241 19.5818 6.00333 19.6141C6.00379 19.6302 6.00422 19.6427 6.00454 19.6516C6.00471 19.6559 6.00485 19.6595 6.00495 19.662C6.005 19.6633 6.00504 19.6643 6.00508 19.6651C6.0051 19.6655 6.00511 19.6658 6.00512 19.6661C6.00513 19.6662 6.00515 19.6667 6.00515 19.6667C6.00516 19.6668 6.00515 19.6667 6.48951 19.645ZM8.11922 12.1676L7.85808 12.5762L11.5409 14.9304L11.802 14.5218L12.0632 14.1133L8.38036 11.7592L8.11922 12.1676ZM8.11922 12.1676L8.55164 12.387C9.35217 10.8084 10.5478 9.32207 12.3362 8.3085L12.0972 7.88668L11.8581 7.46487C9.8678 8.59283 8.55282 10.2407 7.6868 11.9484L8.11922 12.1676ZM12.0972 7.88668L12.3362 8.3085C13.7752 7.49297 15.6218 6.9697 17.9999 6.9697V6.48485V6C15.4746 6 13.4596 6.55724 11.8581 7.46487L12.0972 7.88668ZM11.802 14.5218L12.2493 14.7089C12.7066 13.6154 13.3977 12.5816 14.4385 11.8635L14.1631 11.4644L13.8878 11.0653C12.6501 11.9193 11.8597 13.127 11.3547 14.3348L11.802 14.5218ZM14.1631 11.4644L14.4385 11.8635C15.3158 11.2582 16.4688 10.8579 17.9999 10.8579V10.3731V9.88824C16.2889 9.88824 14.9404 10.3391 13.8878 11.0653L14.1631 11.4644ZM12.0972 7.88668L11.6773 8.12915L13.7433 11.7068L14.1631 11.4644L14.583 11.2219L12.517 7.64423L12.0972 7.88668ZM17.9999 6.48485L17.5151 6.48484V10.3731H17.9999H18.4848V6.48485L17.9999 6.48485ZM17.9999 6.48485V6.9697C20.3781 6.9697 22.2247 7.49297 23.6637 8.3085L23.9028 7.88668L24.1418 7.46487C22.5403 6.55724 20.5253 6 17.9999 6V6.48485ZM17.9999 10.3731V10.8579C19.531 10.8579 20.6841 11.2582 21.5614 11.8635L21.8367 11.4644L22.1121 11.0653C21.0595 10.3391 19.7109 9.88824 17.9999 9.88824V10.3731ZM23.9028 7.88668L23.4829 7.64422L21.4169 11.2219L21.8367 11.4644L22.2566 11.7068L24.3227 8.12915L23.9028 7.88668ZM23.9028 7.88668L23.6637 8.3085C25.5103 9.35502 26.7251 10.9057 27.5253 12.5416L27.9609 12.3285L28.3964 12.1155C27.5321 10.3487 26.1971 8.62967 24.1418 7.46487L23.9028 7.88668ZM27.9609 12.3285L27.5253 12.5416C28.354 14.2355 28.7312 16.0078 28.8995 17.365C28.9835 18.0419 29.015 18.611 29.0256 19.0092C29.0309 19.2081 29.0309 19.3641 29.0296 19.4692C29.029 19.5217 29.0281 19.5615 29.0273 19.5875C29.027 19.6005 29.0266 19.6101 29.0264 19.6161C29.0263 19.6191 29.0262 19.6212 29.0262 19.6224C29.0261 19.623 29.0261 19.6234 29.0261 19.6235C29.0261 19.6236 29.0261 19.6236 29.0261 19.6235C29.0261 19.6234 29.0261 19.6233 29.5105 19.645C29.9949 19.6667 29.9949 19.6668 29.9949 19.6667C29.9949 19.6667 29.9949 19.6668 29.9949 19.6667C29.9949 19.6664 29.9949 19.6655 29.9949 19.6651C29.995 19.6644 29.995 19.6633 29.995 19.6621C29.9952 19.6596 29.9953 19.6562 29.9955 19.6519C29.9958 19.6433 29.9962 19.6312 29.9966 19.6155C29.9975 19.5841 29.9986 19.5388 29.9993 19.4805C30.0006 19.3641 30.0006 19.1957 29.9949 18.9835C29.9837 18.5592 29.9503 17.9584 29.8619 17.2456C29.6855 15.8238 29.2878 13.9377 28.3964 12.1155L27.9609 12.3285ZM21.8367 11.4644L21.5614 11.8635C22.6021 12.5816 23.2933 13.6154 23.7506 14.7089L24.1979 14.5218L24.6452 14.3348C24.1401 13.127 23.3498 11.9193 22.1121 11.0653L21.8367 11.4644ZM27.9609 12.3285L27.7167 11.9096L23.9537 14.103L24.1979 14.5218L24.442 14.9407L28.205 12.7474L27.9609 12.3285ZM10.9194 19.3459C11.4039 19.3263 11.4039 19.3264 11.4039 19.3264C11.4039 19.3262 11.4039 19.3261 11.4039 19.3255C11.4038 19.3242 11.4038 19.3219 11.4036 19.3188C11.4035 19.3124 11.4032 19.3021 11.4029 19.2882C11.4022 19.2605 11.4016 19.2182 11.4015 19.1627C11.4012 19.0515 11.4032 18.8876 11.4123 18.6818C11.4305 18.2698 11.477 17.6924 11.5901 17.0354L11.1122 16.9532L10.6344 16.8709C10.513 17.5764 10.4631 18.1954 10.4435 18.6391C10.4337 18.8612 10.4315 19.0401 10.4317 19.1647C10.4319 19.227 10.4326 19.2758 10.4334 19.3097C10.4338 19.3267 10.4341 19.3399 10.4344 19.3493C10.4346 19.3539 10.4347 19.3577 10.4348 19.3604C10.4348 19.3618 10.4349 19.3628 10.4349 19.3637C10.4349 19.3641 10.4349 19.3645 10.435 19.3648C10.435 19.3647 10.435 19.365 10.435 19.3648C10.435 19.3648 10.435 19.3653 10.435 19.3654C10.435 19.3655 10.435 19.3655 10.9194 19.3459ZM11.1122 16.9532L11.5901 17.0354C11.7145 16.3124 11.9184 15.5003 12.2493 14.7089L11.802 14.5218L11.3547 14.3348C10.9886 15.2103 10.7678 16.0964 10.6344 16.8709L11.1122 16.9532ZM24.1979 14.5218L23.7506 14.7089C24.0815 15.5003 24.2853 16.3124 24.4098 17.0354L24.8876 16.9532L25.3655 16.8709C25.2321 16.0964 25.0113 15.2103 24.6452 14.3348L24.1979 14.5218ZM24.8876 16.9532L24.4098 17.0354C24.5229 17.6924 24.5694 18.2698 24.5876 18.6818C24.5967 18.8876 24.5987 19.0515 24.5985 19.1627C24.5984 19.2182 24.5977 19.2605 24.597 19.2882C24.5967 19.3021 24.5965 19.3124 24.5963 19.3188C24.5962 19.3219 24.5961 19.3242 24.5961 19.3255C24.596 19.3261 24.596 19.3265 24.596 19.3267C24.596 19.3266 24.596 19.3263 25.0805 19.3459C25.5649 19.3655 25.5649 19.3655 25.5649 19.3654C25.565 19.3651 25.565 19.3641 25.565 19.3637C25.565 19.3628 25.565 19.3618 25.5651 19.3604C25.5652 19.3577 25.5653 19.3539 25.5655 19.3493C25.5658 19.3399 25.5661 19.3267 25.5666 19.3097C25.5673 19.2758 25.568 19.227 25.5682 19.1647C25.5684 19.0401 25.5662 18.8612 25.5564 18.6391C25.5368 18.1954 25.4869 17.5764 25.3655 16.8709L24.8876 16.9532ZM11.1122 16.9532V17.438H13.868V16.9532V16.4683H11.1122V16.9532ZM13.868 16.9532C14.3516 16.9873 14.3516 16.9875 14.3516 16.9876C14.3516 16.9876 14.3516 16.9877 14.3516 16.9876C14.3516 16.9868 14.3518 16.9851 14.3521 16.9824C14.3525 16.9768 14.3533 16.9676 14.3546 16.9549C14.3572 16.9294 14.3616 16.8899 14.3686 16.8385C14.3825 16.7356 14.4068 16.5857 14.4473 16.4045C14.5286 16.0401 14.673 15.5605 14.9238 15.0861C15.4167 14.1538 16.3064 13.2507 17.9999 13.2507V12.7658V12.281C15.8567 12.281 14.6805 13.4715 14.0665 14.6329C13.7639 15.2053 13.5947 15.7725 13.5009 16.1933C13.4536 16.4047 13.4249 16.5818 13.4077 16.7079C13.3992 16.771 13.3935 16.8216 13.3898 16.8574C13.388 16.8753 13.3867 16.8896 13.3858 16.8999C13.3854 16.9052 13.3851 16.9093 13.3848 16.9125C13.3847 16.9141 13.3846 16.9155 13.3845 16.9165C13.3845 16.9171 13.3844 16.9176 13.3844 16.918C13.3844 16.9182 13.3844 16.9185 13.3844 16.9186C13.3844 16.9188 13.3843 16.9191 13.868 16.9532ZM13.868 16.9532V17.438H22.1319V16.9532V16.4683H13.868V16.9532ZM22.1319 16.9532V17.438H24.8876V16.9532V16.4683H22.1319V16.9532ZM17.9999 12.7658V13.2507C19.6935 13.2507 20.5833 14.1538 21.0761 15.0861C21.3269 15.5605 21.4713 16.0401 21.5527 16.4045C21.5931 16.5857 21.6173 16.7356 21.6313 16.8385C21.6383 16.8899 21.6427 16.9294 21.6453 16.9549C21.6466 16.9676 21.6474 16.9768 21.6479 16.9824C21.6481 16.9851 21.6482 16.9869 21.6483 16.9877C21.6483 16.9878 21.6483 16.9881 21.6483 16.9877C21.6483 16.9875 21.6482 16.9873 22.1319 16.9532C22.6156 16.9191 22.6156 16.9188 22.6155 16.9186C22.6155 16.9185 22.6155 16.9188 22.6155 16.9186C22.6155 16.9182 22.6154 16.9171 22.6154 16.9165C22.6153 16.9155 22.6152 16.9141 22.6151 16.9125C22.6149 16.9093 22.6145 16.9052 22.6141 16.8999C22.6132 16.8896 22.6119 16.8753 22.6101 16.8574C22.6064 16.8216 22.6007 16.771 22.5922 16.7079C22.575 16.5818 22.5463 16.4047 22.499 16.1933C22.4052 15.7725 22.236 15.2053 21.9333 14.6329C21.3194 13.4715 20.1432 12.281 17.9999 12.281V12.7658ZM12.0972 19.3459C11.6536 19.5419 11.6537 19.5419 11.6538 19.5421C11.6537 19.5419 11.6538 19.5421 11.6538 19.5421C11.6538 19.5422 11.6541 19.5428 11.6542 19.5431C11.6544 19.5436 11.6547 19.5444 11.6551 19.5452C11.6559 19.5469 11.6569 19.5492 11.6582 19.552C11.6607 19.5576 11.6642 19.5655 11.6689 19.5754C11.678 19.5953 11.6912 19.6235 11.7081 19.6588C11.7421 19.7294 11.7915 19.8289 11.8547 19.9477C11.9807 20.1842 12.1645 20.5027 12.3942 20.8241C12.6218 21.1428 12.9064 21.4814 13.2377 21.7445C13.5667 22.0058 13.9814 22.2235 14.4582 22.2235V21.7387V21.2538C14.2831 21.2538 14.0767 21.1725 13.8407 20.9852C13.6071 20.7996 13.3829 20.54 13.1832 20.2605C12.9855 19.9837 12.8236 19.704 12.7106 19.4919C12.6544 19.3864 12.611 19.2989 12.5821 19.2387C12.5676 19.2086 12.5568 19.1854 12.5498 19.1702C12.5463 19.1626 12.5438 19.157 12.5422 19.1536C12.5415 19.1519 12.541 19.1507 12.5407 19.1501C12.5407 19.1502 12.5406 19.15 12.0972 19.3459ZM14.4582 21.7387V22.2235C15.0752 22.2235 15.5599 22.042 15.9213 21.7336C16.275 21.4318 16.4718 21.0416 16.5818 20.6852C16.6916 20.3288 16.7225 19.9814 16.7277 19.7298C16.7303 19.6024 16.7264 19.4955 16.7217 19.4189C16.7193 19.3805 16.7167 19.3496 16.7146 19.3272C16.7136 19.3159 16.7126 19.3068 16.7119 19.3001C16.7115 19.2967 16.7112 19.2938 16.7109 19.2916C16.7108 19.2904 16.7107 19.2895 16.7106 19.2886C16.7105 19.2882 16.7105 19.2878 16.7104 19.2875C16.7104 19.2873 16.7104 19.2876 16.7104 19.2875C16.7104 19.2873 16.7103 19.2865 16.2291 19.3459C15.7479 19.4053 15.7479 19.4051 15.7479 19.4049C15.7479 19.4048 15.7479 19.405 15.7479 19.4049C15.7479 19.4047 15.7478 19.4042 15.7478 19.4041C15.7478 19.4042 15.7478 19.4044 15.7479 19.4055C15.7482 19.4078 15.7486 19.4121 15.7492 19.4184C15.7504 19.4311 15.7521 19.4515 15.7538 19.4786C15.7572 19.5329 15.7602 19.6129 15.7582 19.7098C15.7541 19.9068 15.7297 20.1576 15.6551 20.3995C15.5805 20.6412 15.4638 20.8492 15.2918 20.996C15.1274 21.1363 14.8743 21.2538 14.4582 21.2538V21.7387ZM23.9172 19.3459C23.4737 19.15 23.4737 19.1499 23.4738 19.1498C23.4735 19.1504 23.4729 19.1519 23.4721 19.1536C23.4705 19.157 23.468 19.1626 23.4645 19.1702C23.4575 19.1854 23.4467 19.2086 23.4323 19.2387C23.4033 19.2989 23.3599 19.3864 23.3037 19.4919C23.1907 19.704 23.0288 19.9837 22.8311 20.2605C22.6314 20.54 22.4072 20.7996 22.1736 20.9852C21.9376 21.1725 21.7312 21.2538 21.5561 21.2538V21.7387V22.2235C22.0329 22.2235 22.4476 22.0058 22.7766 21.7445C23.108 21.4814 23.3926 21.1428 23.6201 20.8241C23.8498 20.5027 24.0336 20.1842 24.1596 19.9477C24.2229 19.8289 24.2723 19.7294 24.3062 19.6588C24.3232 19.6235 24.3363 19.5953 24.3455 19.5754C24.3501 19.5655 24.3536 19.5576 24.3561 19.552C24.3574 19.5492 24.3584 19.5469 24.3592 19.5452C24.3596 19.5444 24.3599 19.5436 24.3601 19.5431C24.3603 19.5428 24.3604 19.5425 24.3604 19.5424C24.3604 19.5424 24.3605 19.5422 24.3604 19.5424C24.3605 19.5422 24.3607 19.5419 23.9172 19.3459ZM21.5561 21.7387V21.2538C21.14 21.2538 20.8869 21.1363 20.7225 20.996C20.5505 20.8492 20.4338 20.6412 20.3592 20.3995C20.2846 20.1576 20.2602 19.9068 20.2561 19.7098C20.2541 19.6129 20.2572 19.5329 20.2605 19.4786C20.2622 19.4515 20.2639 19.4311 20.2651 19.4184C20.2657 19.4121 20.2661 19.4078 20.2664 19.4055C20.2665 19.4044 20.2666 19.4038 20.2666 19.4038C20.2666 19.4039 20.2665 19.4044 20.2665 19.4046C20.2665 19.4047 20.2666 19.4045 20.2665 19.4046C20.2665 19.4048 20.2664 19.4053 19.7852 19.3459C19.304 19.2865 19.304 19.2868 19.3039 19.287C19.3039 19.2871 19.304 19.2868 19.3039 19.287C19.3039 19.2873 19.3038 19.2882 19.3038 19.2886C19.3036 19.2895 19.3035 19.2904 19.3034 19.2916C19.3032 19.2938 19.3029 19.2967 19.3024 19.3001C19.3017 19.3068 19.3007 19.3159 19.2997 19.3272C19.2976 19.3496 19.295 19.3805 19.2926 19.4189C19.2879 19.4955 19.284 19.6024 19.2866 19.7298C19.2918 19.9814 19.3227 20.3288 19.4326 20.6852C19.5425 21.0416 19.7393 21.4318 20.093 21.7336C20.4544 22.042 20.9391 22.2235 21.5561 22.2235V21.7387ZM10.9194 19.3459V19.8308H17.9999V19.3459V18.8611H10.9194V19.3459ZM17.9999 19.3459V19.8308H25.0805V19.3459V18.8611H17.9999V19.3459ZM17.9999 19.3459H17.5151V24.4305H17.9999H18.4848V19.3459H17.9999ZM17.9999 24.4305L18.0489 23.9482L15.0974 23.6491L15.0485 24.1315L14.9996 24.6138L17.9511 24.9129L17.9999 24.4305ZM15.0485 24.1315L14.6016 24.3195L15.4824 26.4132L15.9293 26.2251L16.3762 26.0371L15.4955 23.9435L15.0485 24.1315ZM15.9293 26.2251V26.7099H20.0613V26.2251V25.7402H15.9293V26.2251ZM20.0613 26.2251L20.5075 26.4148L21.3976 24.3212L20.9513 24.1315L20.5052 23.9418L19.6151 26.0354L20.0613 26.2251ZM20.9513 24.1315L20.9025 23.6491L17.9511 23.9482L17.9999 24.4305L18.0489 24.9129L21.0002 24.6138L20.9513 24.1315ZM6.48951 19.645L6.52218 20.1288L9.76867 19.9096L9.73601 19.4258L9.70335 18.9421L6.45685 19.1613L6.48951 19.645ZM9.73601 19.4258L9.76867 19.9096L10.9521 19.8297L10.9194 19.3459L10.8868 18.8622L9.70335 18.9421L9.73601 19.4258ZM9.73601 22.0378L9.78074 21.555C8.63832 21.4492 7.63438 22.3885 7.63438 23.5333H8.11922H8.60407C8.60407 22.9454 9.13109 22.4687 9.69127 22.5205L9.73601 22.0378ZM8.11922 23.5333H7.63438C7.63438 24.6463 8.62438 25.6957 9.81187 25.5076L9.73601 25.0287L9.66015 24.5499C9.15844 24.6293 8.60407 24.1528 8.60407 23.5333H8.11922ZM9.73601 25.0287L9.81187 25.5076C10.8187 25.3481 11.4043 24.4759 11.4043 23.5333H10.9194H10.4346C10.4346 24.0879 10.1131 24.4781 9.66015 24.5499L9.73601 25.0287ZM10.9194 23.5333H11.4043C11.4043 22.5622 10.789 21.7782 9.84266 21.5648L9.73601 22.0378L9.62936 22.5107C10.1252 22.6225 10.4346 23.0071 10.4346 23.5333H10.9194ZM24.8832 23.5333H24.3983C24.3983 24.6463 25.3883 25.6957 26.5758 25.5076L26.4999 25.0287L26.4241 24.5499C25.9224 24.6293 25.368 24.1528 25.368 23.5333H24.8832ZM26.4999 25.0287L26.5758 25.5076C27.5826 25.3481 28.1682 24.4759 28.1682 23.5333H27.6833H27.1985C27.1985 24.0879 26.877 24.4781 26.4241 24.5499L26.4999 25.0287ZM27.6833 23.5333H28.1682C28.1682 22.5622 27.5529 21.7782 26.6066 21.5648L26.4999 22.0378L26.3933 22.5107C26.8892 22.6225 27.1985 23.0071 27.1985 23.5333H27.6833ZM25.0805 19.3459L25.0478 19.8297L26.2313 19.9096L26.2639 19.4258L26.2966 18.9421L25.1131 18.8622L25.0805 19.3459ZM26.2639 19.4258L26.2313 19.9096L29.4778 20.1288L29.5105 19.645L29.5432 19.1613L26.2966 18.9421L26.2639 19.4258ZM26.4999 22.0378L26.5447 21.555C26.4377 21.5451 26.3316 21.5444 26.2273 21.5523L26.2639 22.0358L26.3006 22.5193C26.3513 22.5154 26.403 22.5157 26.4552 22.5205L26.4999 22.0378ZM26.2639 22.0358L26.2273 21.5523C25.2258 21.6282 24.3983 22.4913 24.3983 23.5333H24.8832H25.368C25.368 23.0046 25.7986 22.5573 26.3006 22.5193L26.2639 22.0358ZM10.9194 19.3459C10.4364 19.3038 10.4364 19.3039 10.4364 19.3042C10.4364 19.3044 10.4364 19.3047 10.4363 19.3049C10.4363 19.3055 10.4362 19.3062 10.4361 19.3071C10.436 19.3088 10.4358 19.3112 10.4356 19.3141C10.4351 19.32 10.4344 19.3283 10.4336 19.339C10.432 19.3603 10.4299 19.391 10.4275 19.4305C10.4226 19.5095 10.4168 19.6235 10.4122 19.7677C10.4032 20.0559 10.3995 20.4653 10.4208 20.9558C10.4631 21.9339 10.6047 23.2487 11.0076 24.5718C11.4099 25.8931 12.0816 27.2519 13.2037 28.2832C14.3362 29.3241 15.8943 30 17.9999 30V29.5152V29.0303C16.1212 29.0303 14.8019 28.4351 13.8599 27.5692C12.9073 26.6938 12.307 25.5102 11.9352 24.2893C11.564 23.0701 11.4297 21.8426 11.3896 20.9139C11.3695 20.451 11.373 20.066 11.3815 19.7981C11.3856 19.6642 11.3911 19.5598 11.3953 19.4898C11.3975 19.4548 11.3993 19.4284 11.4006 19.4112C11.4013 19.4027 11.4018 19.3964 11.4021 19.3925C11.4022 19.3905 11.4024 19.3892 11.4024 19.3885C11.4024 19.3881 11.4025 19.3879 11.4025 19.3878C11.4025 19.3879 11.4024 19.3881 10.9194 19.3459ZM17.9999 29.5152V30C20.1056 30 21.6636 29.3241 22.7962 28.2832C23.9183 27.2519 24.59 25.8931 24.9923 24.5718C25.3952 23.2487 25.5369 21.9339 25.5792 20.9558C25.6004 20.4653 25.5967 20.0559 25.5877 19.7677C25.5832 19.6235 25.5773 19.5095 25.5724 19.4305C25.57 19.391 25.5679 19.3603 25.5663 19.339C25.5655 19.3283 25.5648 19.32 25.5643 19.3141C25.5641 19.3112 25.5639 19.3088 25.5638 19.3071C25.5637 19.3062 25.5636 19.3055 25.5636 19.3049C25.5635 19.3047 25.5635 19.3044 25.5635 19.3042C25.5635 19.3039 25.5635 19.3038 25.0805 19.3459C24.5975 19.3881 24.5975 19.388 24.5975 19.3879C24.5975 19.3875 24.5975 19.3879 24.5975 19.3879C24.5975 19.3886 24.5976 19.3905 24.5978 19.3925C24.5981 19.3964 24.5986 19.4027 24.5993 19.4112C24.6006 19.4284 24.6024 19.4548 24.6046 19.4898C24.6089 19.5598 24.6143 19.6642 24.6184 19.7981C24.6269 20.066 24.6304 20.451 24.6104 20.9139C24.5702 21.8426 24.4359 23.0701 24.0647 24.2893C23.693 25.5102 23.0926 26.6938 22.14 27.5692C21.1979 28.4351 19.8787 29.0303 17.9999 29.0303V29.5152ZM9.73601 19.4258C9.42849 19.8007 9.42841 19.8006 9.42834 19.8005C9.4292 19.8013 9.43102 19.8028 9.43347 19.8048C9.43837 19.809 9.44634 19.8158 9.45692 19.825C9.47811 19.8436 9.50953 19.8717 9.54763 19.9077C9.62453 19.9804 9.72503 20.082 9.82253 20.1993C9.92143 20.3182 10.0078 20.4421 10.0653 20.5592C10.1245 20.6796 10.1368 20.7598 10.1334 20.8039L10.6168 20.8414L11.1002 20.8788C11.1221 20.5973 11.0369 20.3376 10.9357 20.1316C10.8328 19.9221 10.6958 19.7328 10.5682 19.5793C10.4392 19.4241 10.31 19.294 10.2139 19.2031C10.1654 19.1573 10.1245 19.1206 10.0949 19.0948C10.0802 19.0819 10.0682 19.0716 10.0594 19.0642C10.0551 19.0606 10.0515 19.0576 10.0489 19.0554C10.0475 19.0543 10.0464 19.0533 10.0455 19.0526C10.0451 19.0522 10.0447 19.0519 10.0444 19.0516C10.0442 19.0515 10.0445 19.0518 10.0444 19.0516C10.0443 19.0516 10.0437 19.0512 10.0437 19.0512C10.0436 19.051 10.0435 19.051 9.73601 19.4258ZM10.6168 20.8414L10.1334 20.8039C10.1284 20.8683 10.0764 20.9579 9.84636 21.1526C9.75927 21.2263 9.61855 21.3384 9.51501 21.4478C9.41424 21.5544 9.25116 21.7553 9.25116 22.0378H9.73601H10.2209C10.2209 22.1406 10.1623 22.1747 10.2196 22.1141C10.2742 22.0564 10.3452 22.0008 10.4727 21.8929C10.6717 21.7245 11.0602 21.3956 11.1002 20.8788L10.6168 20.8414ZM26.2639 19.4258C25.9589 19.049 25.9587 19.049 25.9587 19.0492C25.9586 19.0492 25.9587 19.0491 25.9587 19.0492C25.9585 19.0493 25.9582 19.0495 25.958 19.0496C25.9577 19.0499 25.9573 19.0502 25.9569 19.0506C25.9559 19.0513 25.9548 19.0523 25.9535 19.0534C25.9507 19.0556 25.9472 19.0585 25.9428 19.0622C25.9339 19.0696 25.9218 19.0798 25.9069 19.0927C25.877 19.1184 25.8356 19.155 25.7867 19.2007C25.6896 19.2915 25.559 19.4215 25.4286 19.5765C25.2996 19.7299 25.161 19.9192 25.0569 20.1291C24.9545 20.3355 24.8683 20.5962 24.8905 20.8794L25.3739 20.8414L25.8572 20.8034C25.8538 20.7598 25.8659 20.6802 25.9256 20.5601C25.9836 20.4432 26.0707 20.3195 26.1707 20.2007C26.2692 20.0835 26.3708 19.9821 26.4485 19.9095C26.487 19.8735 26.5188 19.8455 26.5403 19.827C26.5509 19.8178 26.559 19.811 26.5639 19.8068C26.5664 19.8048 26.5681 19.8034 26.569 19.8027C26.5694 19.8023 26.5696 19.8021 26.5696 19.8021C26.5696 19.8022 26.5697 19.8021 26.5696 19.8021C26.5696 19.8021 26.5694 19.8023 26.569 19.8027C26.5689 19.8027 26.569 19.8027 26.2639 19.4258ZM25.3739 20.8414L24.8905 20.8794C24.9102 21.1299 25.0116 21.3525 25.1192 21.5277C25.2289 21.7062 25.3634 21.8649 25.4864 21.9929C25.6106 22.1222 25.7316 22.2293 25.8212 22.3038C25.8663 22.3413 25.9042 22.3713 25.9315 22.3924C25.9452 22.4029 25.9564 22.4113 25.9644 22.4173C25.9685 22.4204 25.9718 22.4228 25.9743 22.4247C25.9756 22.4256 25.9767 22.4264 25.9775 22.427C25.9779 22.4273 25.9783 22.4276 25.9786 22.4278C25.9785 22.4278 25.9788 22.4279 25.9786 22.4278C25.9787 22.4279 25.9792 22.4282 25.9793 22.4283C25.9793 22.4284 25.9795 22.4284 26.2639 22.0358C26.5484 21.6432 26.5485 21.6432 26.5486 21.6433C26.5485 21.6433 26.5487 21.6433 26.5486 21.6433C26.5487 21.6434 26.5491 21.6437 26.5491 21.6437C26.5492 21.6437 26.5494 21.6439 26.5491 21.6437C26.5484 21.6432 26.5466 21.6418 26.5444 21.6402C26.5401 21.637 26.533 21.6317 26.5236 21.6244C26.5046 21.6097 26.4762 21.5873 26.4414 21.5584C26.3712 21.5 26.2784 21.4177 26.1858 21.3213C26.0919 21.2236 26.0069 21.1201 25.9453 21.02C25.8818 20.9165 25.8604 20.8442 25.8572 20.8034L25.3739 20.8414Z" fill="#1B2638"/>
</svg>
