<svg width="19" height="20" viewBox="0 0 19 20" fill="none" xmlns="http://www.w3.org/2000/svg">
<path d="M17.242 10.6049C17.095 10.4377 17.014 10.2226 17.014 9.99994C17.014 9.77728 17.095 9.56223 17.242 9.39495L18.4153 8.07494C18.5446 7.93072 18.6249 7.74926 18.6447 7.55658C18.6644 7.3639 18.6226 7.16991 18.5253 7.00244L16.692 3.83078C16.5956 3.66351 16.449 3.53092 16.2728 3.45191C16.0967 3.3729 15.9001 3.35151 15.7111 3.39078L13.9878 3.73911C13.7685 3.78442 13.5402 3.7479 13.346 3.63644C13.1518 3.52499 13.0051 3.3463 12.9336 3.13411L12.3745 1.45661C12.313 1.27454 12.1958 1.1164 12.0396 1.00455C11.8833 0.892695 11.6958 0.832782 11.5036 0.833278H7.83698C7.63708 0.822844 7.43927 0.878127 7.27375 0.990682C7.10822 1.10324 6.98409 1.26688 6.92031 1.45661L6.40698 3.13411C6.33548 3.3463 6.18879 3.52499 5.99458 3.63644C5.80038 3.7479 5.57209 3.78442 5.35281 3.73911L3.58365 3.39078C3.40448 3.36546 3.22184 3.39373 3.05871 3.47203C2.89559 3.55033 2.75929 3.67515 2.66698 3.83078L0.833645 7.00244C0.733875 7.16804 0.689015 7.36094 0.705479 7.55357C0.721943 7.74619 0.798887 7.92868 0.925312 8.07494L2.08948 9.39495C2.23644 9.56223 2.31748 9.77728 2.31748 9.99994C2.31748 10.2226 2.23644 10.4377 2.08948 10.6049L0.925312 11.9249C0.798887 12.0712 0.721943 12.2537 0.705479 12.4463C0.689015 12.6389 0.733875 12.8319 0.833645 12.9974L2.66698 16.1691C2.76332 16.3364 2.91 16.469 3.08613 16.548C3.26225 16.627 3.45882 16.6484 3.64781 16.6091L5.37114 16.2608C5.59043 16.2155 5.81871 16.252 6.01292 16.3634C6.20712 16.4749 6.35381 16.6536 6.42531 16.8658L6.98448 18.5433C7.04826 18.733 7.17239 18.8967 7.33791 19.0092C7.50344 19.1218 7.70125 19.177 7.90114 19.1666H11.5678C11.76 19.1671 11.9475 19.1072 12.1037 18.9953C12.26 18.8835 12.3771 18.7253 12.4386 18.5433L12.9978 16.8658C13.0693 16.6536 13.216 16.4749 13.4102 16.3634C13.6044 16.252 13.8327 16.2155 14.052 16.2608L15.7753 16.6091C15.9643 16.6484 16.1609 16.627 16.337 16.548C16.5131 16.469 16.6598 16.3364 16.7561 16.1691L18.5895 12.9974C18.6868 12.83 18.7286 12.636 18.7088 12.4433C18.6891 12.2506 18.6088 12.0692 18.4795 11.9249L17.242 10.6049ZM15.8761 11.8333L16.6095 12.6583L15.4361 14.6933L14.3545 14.4733C13.6943 14.3383 13.0075 14.4505 12.4245 14.7884C11.8415 15.1264 11.4029 15.6666 11.192 16.3066L10.8436 17.3333H8.49698L8.16698 16.2883C7.95601 15.6483 7.51741 15.1081 6.93443 14.7701C6.35145 14.4321 5.66468 14.32 5.00448 14.4549L3.92281 14.6749L2.73115 12.6491L3.46448 11.8241C3.91544 11.3199 4.16475 10.6672 4.16475 9.99078C4.16475 9.31434 3.91544 8.66163 3.46448 8.15744L2.73115 7.33244L3.90448 5.31578L4.98615 5.53578C5.64635 5.67073 6.33312 5.55859 6.9161 5.22063C7.49908 4.88267 7.93768 4.34242 8.14864 3.70244L8.49698 2.66661H10.8436L11.192 3.71161C11.4029 4.35159 11.8415 4.89183 12.4245 5.22979C13.0075 5.56775 13.6943 5.6799 14.3545 5.54494L15.4361 5.32494L16.6095 7.35994L15.8761 8.18495C15.4302 8.68797 15.184 9.3369 15.184 10.0091C15.184 10.6813 15.4302 11.3302 15.8761 11.8333ZM9.67031 6.33328C8.94511 6.33328 8.2362 6.54832 7.63322 6.95122C7.03024 7.35412 6.56027 7.92678 6.28275 8.59677C6.00523 9.26677 5.93262 10.004 6.0741 10.7153C6.21558 11.4265 6.56479 12.0799 7.07759 12.5927C7.59038 13.1055 8.24372 13.4547 8.95498 13.5962C9.66624 13.7376 10.4035 13.665 11.0735 13.3875C11.7435 13.11 12.3161 12.64 12.719 12.037C13.1219 11.4341 13.337 10.7251 13.337 9.99994C13.337 9.02748 12.9507 8.09485 12.263 7.40722C11.5754 6.71959 10.6428 6.33328 9.67031 6.33328ZM9.67031 11.8333C9.30771 11.8333 8.95326 11.7258 8.65177 11.5243C8.35028 11.3229 8.11529 11.0365 7.97653 10.7015C7.83777 10.3665 7.80147 9.99791 7.87221 9.64228C7.94294 9.28665 8.11755 8.95998 8.37395 8.70358C8.63034 8.44719 8.95701 8.27258 9.31265 8.20184C9.66828 8.1311 10.0369 8.1674 10.3719 8.30617C10.7069 8.44493 10.9932 8.67991 11.1947 8.9814C11.3961 9.28289 11.5036 9.63735 11.5036 9.99994C11.5036 10.4862 11.3105 10.9525 10.9667 11.2963C10.6229 11.6401 10.1565 11.8333 9.67031 11.8333Z" fill="#B9BBC0"/>
</svg>
