<svg width="18" height="18" viewBox="0 0 18 18" fill="none" xmlns="http://www.w3.org/2000/svg">
<path d="M6.24994 9.45842L3.95827 11.7501L6.24994 14.0417L8.54161 11.7501L6.24994 9.45842ZM11.7499 0.291748C10.2462 0.291772 8.79807 0.860382 7.69604 1.88352C6.59402 2.90665 5.91962 4.30864 5.80811 5.80825C4.67043 5.89282 3.58095 6.30223 2.66912 6.98782C1.75729 7.6734 1.06144 8.60635 0.664265 9.67579C0.26709 10.7452 0.185282 11.9062 0.428561 13.0208C0.671841 14.1354 1.22998 15.1567 2.03666 15.9634C2.84334 16.77 3.86465 17.3282 4.97922 17.5715C6.0938 17.8147 7.25479 17.7329 8.32423 17.3358C9.39368 16.9386 10.3266 16.2427 11.0122 15.3309C11.6978 14.4191 12.1072 13.3296 12.1918 12.1919C13.7293 12.0773 15.1624 11.3711 16.1902 10.2218C17.2179 9.07258 17.7601 7.5697 17.7029 6.02901C17.6457 4.48832 16.9935 3.02979 15.8834 1.9599C14.7733 0.890014 13.2917 0.29208 11.7499 0.291748ZM12.046 10.365C11.7892 9.29441 11.2413 8.31573 10.4628 7.53724C9.68429 6.75875 8.70561 6.21079 7.63503 5.954C7.69189 5.16547 7.97414 4.40989 8.4482 3.77721C8.92225 3.14453 9.56812 2.6614 10.3089 2.38534C11.0497 2.10928 11.8543 2.05192 12.6268 2.22008C13.3992 2.38824 14.1071 2.77484 14.6662 3.33387C15.2252 3.89289 15.6118 4.60078 15.7799 5.37326C15.9481 6.14574 15.8907 6.95028 15.6147 7.69109C15.3386 8.4319 14.8555 9.07778 14.2228 9.55183C13.5901 10.0259 12.8346 10.3081 12.046 10.365ZM10.3749 11.7501C10.3749 12.8441 9.94034 13.8933 9.16676 14.6669C8.39317 15.4405 7.34396 15.8751 6.24994 15.8751C5.15592 15.8751 4.10671 15.4405 3.33313 14.6669C2.55954 13.8933 2.12494 12.8441 2.12494 11.7501C2.12494 10.6561 2.55954 9.60685 3.33313 8.83327C4.10671 8.05968 5.15592 7.62508 6.24994 7.62508C7.34396 7.62508 8.39317 8.05968 9.16676 8.83327C9.94034 9.60685 10.3749 10.6561 10.3749 11.7501ZM0.749942 4.41675C0.749942 3.44429 1.13625 2.51166 1.82388 1.82402C2.51152 1.13639 3.44415 0.750081 4.41661 0.750081H5.79161V2.58342H4.41661C3.93038 2.58342 3.46406 2.77657 3.12025 3.12039C2.77643 3.4642 2.58328 3.93052 2.58328 4.41675V5.79175H0.749942V4.41675ZM15.4166 13.5834V12.2084H17.2499V13.5834C17.2499 14.5559 16.8636 15.4885 16.176 16.1761C15.4884 16.8638 14.5557 17.2501 13.5833 17.2501H12.2083V15.4167H13.5833C14.0695 15.4167 14.5358 15.2236 14.8796 14.8798C15.2235 14.536 15.4166 14.0696 15.4166 13.5834Z" fill="#1C2027"/>
</svg>
