<svg width="22" height="22" viewBox="0 0 22 22" fill="none" xmlns="http://www.w3.org/2000/svg">
<path fill-rule="evenodd" clip-rule="evenodd" d="M6.64258 6.41667C6.64258 8.81833 8.59508 10.7708 10.9967 10.7708C13.3984 10.7708 15.3509 8.81833 15.3509 6.41667C15.3509 4.015 13.3984 2.0625 10.9967 2.0625C8.59508 2.0625 6.64258 4.015 6.64258 6.41667ZM8.01758 6.41667C8.01758 4.77583 9.35591 3.4375 10.9967 3.4375C12.6376 3.4375 13.9759 4.77583 13.9759 6.41667C13.9759 8.0575 12.6376 9.39583 10.9967 9.39583C9.35591 9.39583 8.01758 8.0575 8.01758 6.41667Z" fill="#FF9500"/>
<path fill-rule="evenodd" clip-rule="evenodd" d="M3.89258 14.6667C3.89258 13.2733 5.02008 12.1458 6.41341 12.1458H15.5801C16.9734 12.1458 18.1009 13.2733 18.1009 14.6667C18.1009 17.5725 15.7359 19.9375 12.8301 19.9375H9.16341C6.25758 19.9375 3.89258 17.5725 3.89258 14.6667ZM6.41132 17.4188C5.68123 16.6887 5.27 15.6992 5.26758 14.6667C5.26758 14.0342 5.78091 13.5208 6.41341 13.5208H15.5801C16.2126 13.5208 16.7259 14.0342 16.7259 14.6667C16.7235 15.6992 16.3123 16.6887 15.5822 17.4188C14.8521 18.1488 13.8626 18.5601 12.8301 18.5625H9.16341C8.13092 18.5601 7.1414 18.1488 6.41132 17.4188Z" fill="#FF9500"/>
</svg>
