<svg width="17" height="18" viewBox="0 0 17 18" fill="none" xmlns="http://www.w3.org/2000/svg">
<path d="M8.50033 2.33268C12.1762 2.33268 15.167 5.32352 15.167 8.99935C15.167 12.6752 12.1762 15.666 8.50033 15.666C4.82449 15.666 1.83366 12.6752 1.83366 8.99935C1.83366 5.32352 4.82449 2.33268 8.50033 2.33268ZM8.50033 0.666016C3.89783 0.666016 0.166992 4.39685 0.166992 8.99935C0.166992 13.6018 3.89783 17.3327 8.50033 17.3327C13.1028 17.3327 16.8337 13.6018 16.8337 8.99935C16.8337 4.39685 13.1028 0.666016 8.50033 0.666016ZM12.667 8.16602H9.33366V4.83268H7.66699V8.16602H4.33366V9.83268H7.66699V13.166H9.33366V9.83268H12.667V8.16602Z" fill="black"/>
</svg>
