<svg width="16" height="17" viewBox="0 0 16 17" fill="none" xmlns="http://www.w3.org/2000/svg">
<path d="M10.8712 1.51484C10.9999 1.54696 11.1104 1.62884 11.1787 1.74248C11.247 1.85612 11.2673 1.99221 11.2352 2.12084L10.9852 3.12084C10.9706 3.18585 10.9431 3.24728 10.9044 3.30152C10.8657 3.35576 10.8166 3.40171 10.7598 3.43668C10.7031 3.47165 10.64 3.49493 10.5741 3.50515C10.5083 3.51537 10.4411 3.51233 10.3764 3.4962C10.3118 3.48007 10.251 3.45118 10.1977 3.41123C10.1443 3.37127 10.0995 3.32106 10.0659 3.26355C10.0322 3.20603 10.0104 3.14237 10.0017 3.0763C9.99302 3.01024 9.99762 2.9431 10.0152 2.87884L10.2652 1.87884C10.2974 1.75023 10.3792 1.63964 10.4929 1.57138C10.6065 1.50312 10.7426 1.48278 10.8712 1.51484ZM13.8542 2.64684C13.948 2.7406 14.0006 2.86776 14.0006 3.00034C14.0006 3.13292 13.948 3.26008 13.8542 3.35384L12.8542 4.35384C12.8081 4.40159 12.7529 4.43969 12.6919 4.46589C12.6309 4.49209 12.5653 4.50589 12.4989 4.50646C12.4326 4.50704 12.3667 4.49439 12.3053 4.46925C12.2438 4.44411 12.188 4.40698 12.141 4.36004C12.0941 4.31309 12.057 4.25726 12.0318 4.19582C12.0067 4.13437 11.994 4.06853 11.9946 4.00214C11.9952 3.93575 12.009 3.87014 12.0352 3.80914C12.0614 3.74813 12.0995 3.69296 12.1472 3.64684L13.1472 2.64684C13.241 2.5531 13.3682 2.50045 13.5007 2.50045C13.6333 2.50045 13.7605 2.5531 13.8542 2.64684ZM6.28425 13.5328C6.5352 13.9507 6.9301 14.2624 7.39473 14.4096C7.85936 14.5568 8.36175 14.5293 8.80751 14.3322C9.25327 14.1351 9.61172 13.782 9.81552 13.3393C10.0193 12.8966 10.0544 12.3946 9.91425 11.9278L6.28425 13.5328ZM5.36425 13.9388L4.36625 14.3808C4.10803 14.4949 3.82137 14.5283 3.54386 14.4765C3.26636 14.4247 3.01099 14.2903 2.81125 14.0908L2.41125 13.6918C2.21151 13.4938 2.07656 13.2397 2.02425 12.9634C1.97194 12.687 2.00471 12.4012 2.11825 12.1438L5.98925 3.33584C6.08097 3.12784 6.22196 2.94531 6.40003 2.80401C6.5781 2.66272 6.78791 2.56691 7.01131 2.52487C7.23471 2.48283 7.46499 2.49582 7.68224 2.56272C7.8995 2.62962 8.09719 2.74841 8.25825 2.90884L13.5902 8.22484C13.7509 8.38505 13.87 8.58202 13.9373 8.79868C14.0046 9.01533 14.0181 9.24514 13.9765 9.46817C13.9349 9.6912 13.8396 9.90072 13.6988 10.0786C13.5579 10.2564 13.3758 10.3973 13.1682 10.4888L10.8332 11.5208C11.0801 12.2322 11.0504 13.0103 10.7501 13.7008C10.4497 14.3913 9.90077 14.9436 9.21212 15.2481C8.52347 15.5525 7.74551 15.5869 7.03268 15.3444C6.31986 15.1018 5.7243 14.6001 5.36425 13.9388ZM14.5002 5.49984H13.5002C13.3676 5.49984 13.2405 5.55252 13.1467 5.64629C13.0529 5.74005 13.0002 5.86723 13.0002 5.99984C13.0002 6.13245 13.0529 6.25962 13.1467 6.35339C13.2405 6.44716 13.3676 6.49984 13.5002 6.49984H14.5002C14.6329 6.49984 14.76 6.44716 14.8538 6.35339C14.9476 6.25962 15.0002 6.13245 15.0002 5.99984C15.0002 5.86723 14.9476 5.74005 14.8538 5.64629C14.76 5.55252 14.6329 5.49984 14.5002 5.49984ZM6.90525 3.73784L3.03325 12.5458C3.00067 12.6186 2.99116 12.6996 3.006 12.7779C3.02083 12.8562 3.05931 12.9281 3.11625 12.9838L3.51725 13.3838C3.57439 13.4406 3.64735 13.4788 3.72657 13.4935C3.80579 13.5081 3.88759 13.4985 3.96125 13.4658L12.7632 9.57384C12.8219 9.5479 12.8733 9.50809 12.9131 9.45784C12.9529 9.40759 12.9798 9.34841 12.9916 9.28542C13.0035 9.22242 12.9998 9.15749 12.9809 9.09624C12.962 9.03498 12.9285 8.97925 12.8832 8.93384L7.55325 3.61584C7.50736 3.57022 7.45109 3.53641 7.38926 3.51732C7.32744 3.49822 7.26191 3.49441 7.19828 3.50621C7.13466 3.51801 7.07486 3.54507 7.02399 3.58507C6.97312 3.62506 6.93272 3.6768 6.90625 3.73584" fill="#FF9500"/>
</svg>
