<svg width="48" height="49" viewBox="0 0 48 49" fill="none" xmlns="http://www.w3.org/2000/svg">
<rect y="0.5" width="48" height="48" rx="24" fill="#1C2027"/>
<path fill-rule="evenodd" clip-rule="evenodd" d="M19.208 19.0834C19.2079 18.5264 19.3796 17.9829 19.6996 17.5271C20.0196 17.0712 20.4724 16.7251 20.9962 16.5358C21.5201 16.3466 22.0895 16.3235 22.627 16.4696C23.1645 16.6158 23.6438 16.9241 23.9997 17.3525C24.4392 16.8197 25.0656 16.4749 25.7509 16.3887C26.4362 16.3025 27.1285 16.4814 27.6863 16.8888C28.2441 17.2961 28.6251 17.9012 28.7515 18.5802C28.878 19.2593 28.7402 19.9609 28.3663 20.5417H28.9997C29.6075 20.5417 30.1904 20.7831 30.6201 21.2129C31.0499 21.6427 31.2913 22.2256 31.2913 22.8334V24.5C31.2915 24.8188 31.1872 25.1289 30.9944 25.3828C30.8017 25.6367 30.531 25.8204 30.2238 25.9059C30.3438 27.4275 30.2738 28.96 30.0155 30.4667C29.9403 30.9045 29.7249 31.306 29.4018 31.6108C29.0786 31.9156 28.6653 32.1071 28.2238 32.1567L27.4613 32.2417C25.1604 32.4989 22.8381 32.4989 20.5372 32.2417L19.7755 32.1567C19.3341 32.1071 18.9207 31.9156 18.5976 31.6108C18.2745 31.306 18.0591 30.9045 17.9838 30.4667C17.7246 28.961 17.6546 27.4289 17.7755 25.9059C17.4684 25.8204 17.1977 25.6367 17.0049 25.3828C16.8121 25.1289 16.7078 24.8188 16.708 24.5V22.8334C16.708 22.2256 16.9495 21.6427 17.3792 21.2129C17.809 20.7831 18.3919 20.5417 18.9997 20.5417H19.633C19.3547 20.1063 19.2072 19.6001 19.208 19.0834ZM23.3747 19.0834C23.3747 18.6966 23.221 18.3257 22.9475 18.0522C22.674 17.7787 22.3031 17.625 21.9163 17.625C21.5296 17.625 21.1586 17.7787 20.8851 18.0522C20.6117 18.3257 20.458 18.6966 20.458 19.0834C20.458 19.4701 20.6117 19.8411 20.8851 20.1146C21.1586 20.3881 21.5296 20.5417 21.9163 20.5417C22.3031 20.5417 22.674 20.3881 22.9475 20.1146C23.221 19.8411 23.3747 19.4701 23.3747 19.0834ZM26.083 20.5417C26.2745 20.5417 26.4642 20.504 26.6411 20.4307C26.818 20.3574 26.9788 20.25 27.1142 20.1146C27.2496 19.9791 27.357 19.8184 27.4303 19.6414C27.5036 19.4645 27.5413 19.2749 27.5413 19.0834C27.5413 18.8919 27.5036 18.7022 27.4303 18.5253C27.357 18.3484 27.2496 18.1876 27.1142 18.0522C26.9788 17.9168 26.818 17.8093 26.6411 17.736C26.4642 17.6628 26.2745 17.625 26.083 17.625C25.6962 17.625 25.3253 17.7787 25.0518 18.0522C24.7783 18.3257 24.6247 18.6966 24.6247 19.0834C24.6247 19.4701 24.7783 19.8411 25.0518 20.1146C25.3253 20.3881 25.6962 20.5417 26.083 20.5417ZM17.958 22.8334C17.958 22.2584 18.4247 21.7917 18.9997 21.7917H23.3747V24.7084H18.1663C18.1111 24.7084 18.0581 24.6864 18.019 24.6473C17.98 24.6083 17.958 24.5553 17.958 24.5V22.8334ZM24.6247 25.9584H28.9738C29.0905 27.3917 29.0272 28.8359 28.7838 30.255C28.7544 30.4258 28.6703 30.5824 28.5442 30.7013C28.4182 30.8202 28.2569 30.8949 28.0847 30.9142L27.323 31C26.4258 31.1 25.5263 31.1595 24.6247 31.1784V25.9584ZM24.6247 24.7084H29.833C29.8883 24.7084 29.9413 24.6864 29.9803 24.6473C30.0194 24.6083 30.0413 24.5553 30.0413 24.5V22.8334C30.0413 22.2584 29.5747 21.7917 28.9997 21.7917H24.6247V24.7084ZM23.3747 25.9584V31.1784C22.473 31.1595 21.5726 31.1 20.6763 31L19.9147 30.9142C19.7426 30.8949 19.5814 30.8203 19.4553 30.7016C19.3292 30.5829 19.2451 30.4265 19.2155 30.2559C18.9722 28.837 18.9084 27.3932 19.0255 25.9584H23.3747Z" fill="white"/>
</svg>
