<svg width="48" height="48" viewBox="0 0 48 48" fill="none" xmlns="http://www.w3.org/2000/svg">
<rect width="48" height="48" rx="24" fill="#1C2027"/>
<path fill-rule="evenodd" clip-rule="evenodd" d="M24.0003 17.3333C22.2322 17.3333 20.5365 18.0357 19.2863 19.2859C18.036 20.5362 17.3337 22.2318 17.3337 24C17.3337 25.7681 18.036 27.4638 19.2863 28.714C20.5365 29.9642 22.2322 30.6666 24.0003 30.6666C25.7684 30.6666 27.4641 29.9642 28.7144 28.714C29.9646 27.4638 30.667 25.7681 30.667 24C30.667 22.2318 29.9646 20.5362 28.7144 19.2859C27.4641 18.0357 25.7684 17.3333 24.0003 17.3333ZM15.667 24C15.667 19.3975 19.3978 15.6666 24.0003 15.6666C28.6028 15.6666 32.3337 19.3975 32.3337 24C32.3337 28.6025 28.6028 32.3333 24.0003 32.3333C19.3978 32.3333 15.667 28.6025 15.667 24ZM21.0837 22.3333C20.9212 22.3333 20.7137 22.4366 20.5787 22.7066C20.4786 22.9024 20.3052 23.0508 20.0963 23.1193C19.8874 23.1879 19.6598 23.1711 19.4632 23.0725C19.2666 22.974 19.1169 22.8018 19.0468 22.5934C18.9766 22.385 18.9917 22.1573 19.0887 21.96C19.452 21.2333 20.1778 20.6666 21.0837 20.6666C21.9895 20.6666 22.7145 21.2333 23.0787 21.96C23.1756 22.1573 23.1907 22.385 23.1205 22.5934C23.0504 22.8018 22.9007 22.974 22.7041 23.0725C22.5075 23.1711 22.28 23.1879 22.071 23.1193C21.8621 23.0508 21.6887 22.9024 21.5887 22.7066C21.4537 22.4366 21.247 22.3333 21.0837 22.3333ZM26.917 22.3333C26.7545 22.3333 26.547 22.4366 26.412 22.7066C26.3635 22.8053 26.2959 22.8935 26.2132 22.9659C26.1305 23.0384 26.0342 23.0938 25.93 23.1288C25.8257 23.1639 25.7156 23.178 25.6059 23.1704C25.4962 23.1627 25.3891 23.1334 25.2908 23.0841C25.1924 23.0348 25.1048 22.9666 25.033 22.8833C24.9612 22.8 24.9066 22.7033 24.8723 22.5988C24.838 22.4943 24.8247 22.3841 24.8333 22.2744C24.8418 22.1648 24.872 22.0579 24.922 21.96C25.2862 21.2333 26.0112 20.6666 26.917 20.6666C27.8228 20.6666 28.5478 21.2333 28.912 21.96C29.009 22.1573 29.024 22.385 28.9539 22.5934C28.8837 22.8018 28.734 22.974 28.5374 23.0725C28.3409 23.1711 28.1133 23.1879 27.9043 23.1193C27.6954 23.0508 27.522 22.9024 27.422 22.7066C27.287 22.4366 27.0803 22.3333 26.917 22.3333ZM21.1703 25.9483C21.2427 25.8662 21.3306 25.7991 21.429 25.751C21.5273 25.7029 21.6342 25.6746 21.7435 25.6678C21.8527 25.661 21.9623 25.6758 22.0658 25.7113C22.1694 25.7469 22.2649 25.8025 22.347 25.875C22.7887 26.265 23.3662 26.5 24.0003 26.5C24.6345 26.5 25.2128 26.265 25.6537 25.875C25.8194 25.7286 26.0365 25.6542 26.2572 25.6679C26.4778 25.6817 26.684 25.7825 26.8303 25.9483C26.9766 26.1141 27.0511 26.3311 27.0374 26.5518C27.0236 26.7725 26.9228 26.9786 26.757 27.125C25.9965 27.7977 25.0157 28.1683 24.0003 28.1666C22.9849 28.1683 22.0042 27.7977 21.2437 27.125C21.1615 27.0525 21.0945 26.9646 21.0464 26.8663C20.9983 26.768 20.97 26.6611 20.9632 26.5518C20.9564 26.4425 20.9711 26.333 21.0067 26.2294C21.0422 26.1259 21.0978 26.0304 21.1703 25.9483Z" fill="white"/>
</svg>
