<svg width="48" height="48" viewBox="0 0 48 48" fill="none" xmlns="http://www.w3.org/2000/svg">
<rect width="48" height="48" rx="24" fill="#1C2027"/>
<path d="M31.3121 29C31.9371 29 32.433 28.6075 32.8788 28.0584C33.7921 26.9334 32.293 26.0334 31.7213 25.5942C31.1405 25.1467 30.4913 24.8925 29.8338 24.8334M29.0005 23.1667C29.553 23.1667 30.0829 22.9472 30.4736 22.5565C30.8643 22.1658 31.0838 21.6359 31.0838 21.0834C31.0838 20.5308 30.8643 20.0009 30.4736 19.6102C30.0829 19.2195 29.553 19 29.0005 19M16.6888 29C16.0638 29 15.568 28.6075 15.1221 28.0584C14.2088 26.9334 15.708 26.0334 16.2796 25.5942C16.8605 25.1467 17.5088 24.8917 18.1671 24.8334M18.5838 23.1667C18.0313 23.1667 17.5014 22.9472 17.1107 22.5565C16.72 22.1658 16.5005 21.6359 16.5005 21.0834C16.5005 20.5308 16.72 20.0009 17.1107 19.6102C17.5014 19.2195 18.0313 19 18.5838 19M20.7371 26.5925C19.8855 27.1192 17.653 28.1942 19.0121 29.5392C19.678 30.1967 20.4171 30.6667 21.348 30.6667H26.6546C27.5855 30.6667 28.3246 30.1967 28.9888 29.5392C30.3488 28.1942 28.1163 27.1192 27.2646 26.5925C26.2837 25.9875 25.1538 25.6671 24.0013 25.6671C22.8488 25.6671 21.7189 25.9875 20.738 26.5925M26.9171 20.25C26.9171 20.6331 26.8417 21.0123 26.6951 21.3662C26.5485 21.7201 26.3337 22.0416 26.0629 22.3124C25.792 22.5833 25.4705 22.7981 25.1166 22.9447C24.7628 23.0913 24.3835 23.1667 24.0005 23.1667C23.6174 23.1667 23.2382 23.0913 22.8843 22.9447C22.5304 22.7981 22.2089 22.5833 21.9381 22.3124C21.6672 22.0416 21.4524 21.7201 21.3058 21.3662C21.1592 21.0123 21.0838 20.6331 21.0838 20.25C21.0838 19.4765 21.3911 18.7346 21.9381 18.1876C22.4851 17.6407 23.2269 17.3334 24.0005 17.3334C24.774 17.3334 25.5159 17.6407 26.0629 18.1876C26.6098 18.7346 26.9171 19.4765 26.9171 20.25Z" stroke="white" stroke-width="1.375" stroke-linecap="round" stroke-linejoin="round"/>
</svg>
