<svg width="16" height="16" viewBox="0 0 16 16" fill="none" xmlns="http://www.w3.org/2000/svg">
<g clip-path="url(#clip0_2221_3190)">
<path fill-rule="evenodd" clip-rule="evenodd" d="M13.2931 3.00905e-05C13.6831 3.00905e-05 14.0001 0.31703 14.0001 0.70703V2.00003H15.2931C15.433 2 15.5697 2.04145 15.686 2.11913C15.8023 2.19682 15.8929 2.30725 15.9464 2.43645C16 2.56566 16.014 2.70784 15.9867 2.845C15.9594 2.98216 15.892 3.10815 15.7931 3.20703L14.3331 4.66703C14.1199 4.87973 13.8313 4.99945 13.5301 5.00003H12.0601L8.53011 8.53003C8.38794 8.66251 8.19989 8.73463 8.00559 8.73121C7.81129 8.72778 7.6259 8.64907 7.48849 8.51165C7.35108 8.37424 7.27237 8.18885 7.26894 7.99455C7.26551 7.80025 7.33763 7.6122 7.47011 7.47003L11.0001 3.94003V2.47003C11.0001 2.16903 11.1201 1.88003 11.3331 1.66603L12.7931 0.20603C12.8585 0.140071 12.9365 0.0877983 13.0223 0.0522589C13.1081 0.0167196 13.2002 -0.00137496 13.2931 -0.00096991M2.50011 8.00003C2.50001 7.18457 2.68123 6.37928 3.03067 5.64248C3.38011 4.90568 3.88901 4.25581 4.52054 3.73991C5.15207 3.224 5.89041 2.85499 6.68211 2.65957C7.47382 2.46416 8.29907 2.44723 9.09811 2.61003C9.29204 2.64703 9.49273 2.60608 9.65665 2.49606C9.82058 2.38604 9.93451 2.21582 9.97373 2.02233C10.013 1.82884 9.97431 1.62769 9.86617 1.46252C9.75804 1.29735 9.58914 1.18147 9.39611 1.14003C7.92178 0.840283 6.3901 1.02352 5.02808 1.66258C3.66606 2.30165 2.54618 3.36253 1.83441 4.688C1.12263 6.01348 0.856845 7.53301 1.07644 9.02139C1.29603 10.5098 1.98931 11.8878 3.05354 12.9513C4.11777 14.0147 5.4963 14.707 6.98485 14.9255C8.47339 15.144 9.99272 14.8771 11.3177 14.1643C12.6426 13.4516 13.7027 12.3309 14.3408 10.9684C14.9788 9.60595 15.1609 8.07414 14.8601 6.60003C14.8205 6.4051 14.705 6.2339 14.5391 6.12409C14.3732 6.01429 14.1705 5.97488 13.9756 6.01453C13.7807 6.05418 13.6095 6.16964 13.4997 6.33552C13.3899 6.50139 13.3505 6.7041 13.3901 6.89903C13.4628 7.25436 13.4994 7.62136 13.5001 8.00003C13.5001 9.45872 12.9207 10.8577 11.8892 11.8891C10.8578 12.9206 9.4588 13.5 8.00011 13.5C6.54142 13.5 5.14248 12.9206 4.11103 11.8891C3.07958 10.8577 2.50011 9.45872 2.50011 8.00003ZM7.86411 5.50403C8.06276 5.49342 8.24906 5.40434 8.38202 5.25637C8.51498 5.1084 8.58372 4.91368 8.57311 4.71503C8.5625 4.51638 8.47342 4.33009 8.32545 4.19712C8.17749 4.06416 7.98276 3.99542 7.78411 4.00603C7.01604 4.04742 6.27619 4.30939 5.6532 4.76055C5.03022 5.21171 4.55053 5.83293 4.27161 6.54976C3.99269 7.2666 3.92637 8.04866 4.08059 8.80223C4.23481 9.5558 4.60303 10.2489 5.14114 10.7985C5.67925 11.3482 6.36442 11.731 7.11455 11.9011C7.86469 12.0713 8.64797 12.0215 9.37056 11.7579C10.0931 11.4942 10.7244 11.0278 11.1886 10.4145C11.6529 9.80119 11.9305 9.06706 11.9881 8.30003C12.0028 8.10165 11.9381 7.90554 11.8083 7.75486C11.6784 7.60417 11.494 7.51125 11.2956 7.49653C11.0972 7.48181 10.9011 7.5465 10.7504 7.67637C10.5998 7.80624 10.5068 7.99065 10.4921 8.18903C10.4556 8.66817 10.2818 9.12665 9.99155 9.50957C9.70125 9.8925 9.30675 10.1837 8.85526 10.3482C8.40377 10.5127 7.91444 10.5436 7.44584 10.4372C6.97724 10.3308 6.54922 10.0917 6.21304 9.74831C5.87685 9.40497 5.64674 8.97201 5.55025 8.50127C5.45376 8.03053 5.49498 7.54195 5.66897 7.09404C5.84296 6.64612 6.14236 6.25783 6.53132 5.97566C6.92027 5.6935 7.38231 5.5294 7.86211 5.50303" fill="white"/>
</g>
<defs>
<clipPath id="clip0_2221_3190">
<rect width="16" height="16" fill="white"/>
</clipPath>
</defs>
</svg>
