<svg width="18" height="18" viewBox="0 0 18 18" fill="none" xmlns="http://www.w3.org/2000/svg">
<path d="M3.3928 13.9922C3.3928 14.3033 3.64417 14.5547 3.9553 14.5547H14.0451C14.3563 14.5547 14.6076 14.3033 14.6076 13.9922V9.89648C14.6076 6.79922 12.0975 4.28906 9.00023 4.28906C5.90296 4.28906 3.3928 6.79922 3.3928 9.89648V13.9922ZM4.65843 9.89648C4.65843 7.49883 6.60257 5.55469 9.00023 5.55469C11.3979 5.55469 13.342 7.49883 13.342 9.89648V13.2891H7.10179V10.2832C7.10179 10.1865 7.02269 10.1074 6.92601 10.1074H6.15257C6.05589 10.1074 5.97679 10.1865 5.97679 10.2832V13.2891H4.65843V9.89648ZM3.81292 5.45801L4.50902 4.76191C4.56351 4.70742 4.56351 4.61777 4.50902 4.56328L3.31546 3.36973C3.28903 3.34356 3.25334 3.32887 3.21614 3.32887C3.17895 3.32887 3.14326 3.34356 3.11683 3.36973L2.42073 4.06582C2.39456 4.09225 2.37988 4.12794 2.37988 4.16514C2.37988 4.20233 2.39456 4.23802 2.42073 4.26445L3.61429 5.45801C3.66878 5.5125 3.75667 5.5125 3.81292 5.45801ZM15.5832 4.06582L14.8871 3.36973C14.8607 3.34356 14.825 3.32887 14.7878 3.32887C14.7506 3.32887 14.7149 3.34356 14.6885 3.36973L13.495 4.56328C13.4688 4.58971 13.4541 4.6254 13.4541 4.6626C13.4541 4.69979 13.4688 4.73548 13.495 4.76191L14.191 5.45801C14.2455 5.5125 14.3352 5.5125 14.3897 5.45801L15.5832 4.26445C15.6377 4.2082 15.6377 4.12031 15.5832 4.06582ZM14.6252 15.6797H3.37523C3.06409 15.6797 2.81273 15.9311 2.81273 16.2422V16.6641C2.81273 16.7414 2.87601 16.8047 2.95335 16.8047H15.0471C15.1244 16.8047 15.1877 16.7414 15.1877 16.6641V16.2422C15.1877 15.9311 14.9364 15.6797 14.6252 15.6797ZM8.50804 3.16406H9.49241C9.56976 3.16406 9.63304 3.10078 9.63304 3.02344V1.33594C9.63304 1.25859 9.56976 1.19531 9.49241 1.19531H8.50804C8.4307 1.19531 8.36741 1.25859 8.36741 1.33594V3.02344C8.36741 3.10078 8.4307 3.16406 8.50804 3.16406Z" fill="#FF9500"/>
</svg>
