<svg width="20" height="16" viewBox="0 0 20 16" fill="none" xmlns="http://www.w3.org/2000/svg">
<path fill-rule="evenodd" clip-rule="evenodd" d="M10.459 0.666016C13.7497 0.666016 16.4173 3.33364 16.4173 6.62436C16.4173 7.93895 15.9916 9.15411 15.2705 10.1395L19.2881 14.157L17.9917 15.4534L13.9741 11.4358C12.9888 12.1569 11.7736 12.5827 10.459 12.5827C8.67703 12.5827 7.07777 11.8004 5.98585 10.5606L7.286 9.26041C8.04268 10.1701 9.1832 10.7494 10.459 10.7494C12.7372 10.7494 14.584 8.90252 14.584 6.62436C14.584 4.34616 12.7372 2.49936 10.459 2.49936C9.41656 2.49936 8.46437 2.88604 7.7382 3.52378L6.4399 2.22557C7.49951 1.25692 8.91022 0.666016 10.459 0.666016ZM5.22745 2.30948L9.08398 6.16602L5.22745 10.0225L3.93109 8.72618L5.57408 7.08267H0.833984V5.24936L5.57413 5.24932L3.93109 3.60585L5.22745 2.30948Z" fill="black"/>
</svg>
