<svg width="22" height="22" viewBox="0 0 22 22" fill="none" xmlns="http://www.w3.org/2000/svg">
<path d="M8.25 11.4584L5.95834 13.75L8.25 16.0417L10.5417 13.75L8.25 11.4584ZM13.75 2.29169C12.2463 2.29171 10.7981 2.86032 9.69611 3.88346C8.59408 4.90659 7.91968 6.30858 7.80817 7.80819C6.67049 7.89276 5.58101 8.30217 4.66918 8.98775C3.75735 9.67334 3.0615 10.6063 2.66433 11.6757C2.26715 12.7452 2.18534 13.9062 2.42862 15.0207C2.6719 16.1353 3.23004 17.1566 4.03672 17.9633C4.8434 18.77 5.86471 19.3281 6.97928 19.5714C8.09386 19.8147 9.25485 19.7329 10.3243 19.3357C11.3937 18.9385 12.3267 18.2427 13.0123 17.3308C13.6979 16.419 14.1073 15.3295 14.1918 14.1919C15.7293 14.0772 17.1625 13.371 18.1902 12.2218C19.2179 11.0725 19.7602 9.56964 19.703 8.02895C19.6457 6.48826 18.9936 5.02972 17.8835 3.95984C16.7734 2.88995 15.2918 2.29202 13.75 2.29169ZM14.0461 12.3649C13.7893 11.2944 13.2413 10.3157 12.4628 9.53718C11.6844 8.75869 10.7057 8.21073 9.63509 7.95394C9.69195 7.16541 9.97421 6.40983 10.4483 5.77715C10.9223 5.14447 11.5682 4.66134 12.309 4.38528C13.0498 4.10922 13.8543 4.05186 14.6268 4.22002C15.3993 4.38818 16.1072 4.77478 16.6662 5.3338C17.2252 5.89283 17.6118 6.60072 17.78 7.3732C17.9482 8.14568 17.8908 8.95022 17.6147 9.69103C17.3387 10.4318 16.8556 11.0777 16.2229 11.5518C15.5902 12.0258 14.8346 12.3081 14.0461 12.3649ZM12.375 13.75C12.375 14.844 11.9404 15.8932 11.1668 16.6668C10.3932 17.4404 9.34402 17.875 8.25 17.875C7.15598 17.875 6.10677 17.4404 5.33319 16.6668C4.5596 15.8932 4.125 14.844 4.125 13.75C4.125 12.656 4.5596 11.6068 5.33319 10.8332C6.10677 10.0596 7.15598 9.62502 8.25 9.62502C9.34402 9.62502 10.3932 10.0596 11.1668 10.8332C11.9404 11.6068 12.375 12.656 12.375 13.75ZM2.75 6.41669C2.75 5.44423 3.13631 4.5116 3.82394 3.82396C4.51158 3.13633 5.44421 2.75002 6.41667 2.75002H7.79167V4.58335H6.41667C5.93044 4.58335 5.46412 4.77651 5.12031 5.12032C4.77649 5.46414 4.58334 5.93046 4.58334 6.41669V7.79169H2.75V6.41669ZM17.4167 15.5834V14.2084H19.25V15.5834C19.25 16.5558 18.8637 17.4884 18.1761 18.1761C17.4884 18.8637 16.5558 19.25 15.5833 19.25H14.2083V17.4167H15.5833C16.0696 17.4167 16.5359 17.2235 16.8797 16.8797C17.2235 16.5359 17.4167 16.0696 17.4167 15.5834Z" fill="#FF9500"/>
</svg>
