<svg width="18" height="19" viewBox="0 0 18 19" fill="none" xmlns="http://www.w3.org/2000/svg">
<path d="M6.5 13.7125C4.68333 13.7125 3.146 13.0832 1.888 11.8245C0.63 10.5659 0.000667196 9.02852 5.29101e-07 7.21252C-0.000666138 5.39652 0.628667 3.85919 1.888 2.60052C3.14733 1.34186 4.68467 0.712524 6.5 0.712524C8.31533 0.712524 9.853 1.34186 11.113 2.60052C12.373 3.85919 13.002 5.39652 13 7.21252C13 7.94586 12.8833 8.63752 12.65 9.28752C12.4167 9.93752 12.1 10.5125 11.7 11.0125L17.3 16.6125C17.4833 16.7959 17.575 17.0292 17.575 17.3125C17.575 17.5959 17.4833 17.8292 17.3 18.0125C17.1167 18.1959 16.8833 18.2875 16.6 18.2875C16.3167 18.2875 16.0833 18.1959 15.9 18.0125L10.3 12.4125C9.8 12.8125 9.225 13.1292 8.575 13.3625C7.925 13.5959 7.23333 13.7125 6.5 13.7125ZM6.5 11.7125C7.75 11.7125 8.81267 11.2752 9.688 10.4005C10.5633 9.52586 11.0007 8.46319 11 7.21252C10.9993 5.96186 10.562 4.89952 9.688 4.02552C8.814 3.15152 7.75133 2.71386 6.5 2.71252C5.24867 2.71119 4.18633 3.14886 3.313 4.02552C2.43967 4.90219 2.002 5.96452 2 7.21252C1.998 8.46052 2.43567 9.52319 3.313 10.4005C4.19033 11.2779 5.25267 11.7152 6.5 11.7125Z" fill="#646464"/>
</svg>
