<svg width="22" height="22" viewBox="0 0 22 22" fill="none" xmlns="http://www.w3.org/2000/svg">
<path d="M19.25 11C19.25 9.36831 18.7662 7.77325 17.8596 6.41655C16.9531 5.05984 15.6646 4.00242 14.1571 3.378C12.6497 2.75357 10.9909 2.5902 9.39051 2.90853C7.79017 3.22685 6.32016 4.01259 5.16637 5.16637C4.01259 6.32016 3.22685 7.79017 2.90853 9.39051C2.5902 10.9909 2.75357 12.6497 3.378 14.1571C4.00242 15.6646 5.05984 16.9531 6.41655 17.8596C7.77325 18.7662 9.36831 19.25 11 19.25M8.25 9.16667H8.25917M13.75 9.16667H13.7592" stroke="currentColor" stroke-width="1.83333" stroke-linecap="round" stroke-linejoin="round"/>
<path d="M8.70801 13.75C9.31117 14.366 10.138 14.6667 10.9997 14.6667M18.5163 18.5167L20.1663 20.1667M13.7497 16.5C13.7497 17.2293 14.0394 17.9288 14.5551 18.4445C15.0709 18.9603 15.7703 19.25 16.4997 19.25C17.229 19.25 17.9285 18.9603 18.4442 18.4445C18.9599 17.9288 19.2497 17.2293 19.2497 16.5C19.2497 15.7707 18.9599 15.0712 18.4442 14.5555C17.9285 14.0397 17.229 13.75 16.4997 13.75C15.7703 13.75 15.0709 14.0397 14.5551 14.5555C14.0394 15.0712 13.7497 15.7707 13.7497 16.5Z" stroke="currentColor" stroke-width="1.83333" stroke-linecap="round" stroke-linejoin="round"/>
</svg>
