<svg width="16" height="16" viewBox="0 0 16 16" fill="none" xmlns="http://www.w3.org/2000/svg">
<path d="M8.00016 1.33301C11.6822 1.33301 14.6668 4.31767 14.6668 7.99967C14.6668 11.6817 11.6822 14.6663 8.00016 14.6663C4.31816 14.6663 1.3335 11.6817 1.3335 7.99967C1.3335 4.31767 4.31816 1.33301 8.00016 1.33301ZM8.00016 2.66634C6.58567 2.66634 5.22912 3.22824 4.22893 4.22844C3.22873 5.22863 2.66683 6.58519 2.66683 7.99967C2.66683 9.41416 3.22873 10.7707 4.22893 11.7709C5.22912 12.7711 6.58567 13.333 8.00016 13.333C9.41465 13.333 10.7712 12.7711 11.7714 11.7709C12.7716 10.7707 13.3335 9.41416 13.3335 7.99967C13.3335 6.58519 12.7716 5.22863 11.7714 4.22844C10.7712 3.22824 9.41465 2.66634 8.00016 2.66634ZM8.00016 3.99967C8.16345 3.9997 8.32105 4.05964 8.44308 4.16815C8.5651 4.27666 8.64306 4.42617 8.66216 4.58834L8.66683 4.66634V7.72367L10.4715 9.52834C10.5911 9.64831 10.6605 9.8093 10.6656 9.9786C10.6708 10.1479 10.6114 10.3128 10.4993 10.4399C10.3873 10.5669 10.2311 10.6465 10.0625 10.6626C9.8939 10.6787 9.72549 10.6299 9.5915 10.5263L9.52883 10.471L7.52883 8.47101C7.42522 8.36731 7.35867 8.23234 7.3395 8.08701L7.3335 7.99967V4.66634C7.3335 4.48953 7.40373 4.31996 7.52876 4.19494C7.65378 4.06991 7.82335 3.99967 8.00016 3.99967Z" fill="white"/>
</svg>
