<svg width="34" height="43" viewBox="0 0 34 43" fill="none" xmlns="http://www.w3.org/2000/svg">
<path d="M8.95991 27.128C8.57351 27.128 8.31311 27.1658 8.17871 27.2036V29.6774C8.33831 29.7152 8.53781 29.7257 8.81291 29.7257C9.81881 29.7257 10.4383 29.2175 10.4383 28.3586C10.4383 27.59 9.90491 27.128 8.95991 27.128ZM16.2826 27.1532C15.8626 27.1532 15.5896 27.191 15.4279 27.2288V32.7098C15.5896 32.7476 15.85 32.7476 16.0852 32.7476C17.8009 32.7602 18.9181 31.8152 18.9181 29.816C18.9307 28.073 17.9122 27.1532 16.2826 27.1532Z" fill="#F34646"/>
<path d="M21 0.5H4.2C3.08609 0.5 2.0178 0.942499 1.23015 1.73015C0.442499 2.5178 0 3.58609 0 4.7V38.3C0 39.4139 0.442499 40.4822 1.23015 41.2698C2.0178 42.0575 3.08609 42.5 4.2 42.5H29.4C30.5139 42.5 31.5822 42.0575 32.3698 41.2698C33.1575 40.4822 33.6 39.4139 33.6 38.3V13.1L21 0.5ZM11.5458 30.299C10.8969 30.908 9.9393 31.181 8.8242 31.181C8.60795 31.1851 8.3917 31.1724 8.1774 31.1432V34.1378H6.3V25.8722C7.1473 25.7462 8.00336 25.6886 8.8599 25.7C10.0296 25.7 10.8612 25.9226 11.4219 26.3699C11.9553 26.7941 12.3165 27.4892 12.3165 28.3082C12.3144 29.1314 12.0414 29.8265 11.5458 30.299ZM19.5405 33.1445C18.6585 33.8774 17.3166 34.226 15.6765 34.226C14.6937 34.226 13.9986 34.163 13.5261 34.1V25.8743C14.3737 25.751 15.2295 25.6928 16.086 25.7C17.6757 25.7 18.7089 25.9856 19.5153 26.5946C20.3868 27.2414 20.9328 28.2725 20.9328 29.753C20.9328 31.3553 20.3469 32.462 19.5405 33.1445ZM27.3 27.317H24.0828V29.2301H27.09V30.7715H24.0828V34.1399H22.1802V25.763H27.3V27.317ZM21 15.2H18.9V4.7L29.4 15.2H21Z" fill="#F34646"/>
</svg>
