<svg width="16" height="16" viewBox="0 0 16 16" fill="none" xmlns="http://www.w3.org/2000/svg">
<path fill-rule="evenodd" clip-rule="evenodd" d="M7.34266 3.19967C7.45732 3.04967 7.66532 2.83301 7.99999 2.83301C8.33466 2.83301 8.54266 3.04967 8.65732 3.19967C8.76732 3.34234 8.87732 3.54034 8.99066 3.74367L9.07132 3.88901L9.10932 3.95567L9.17532 3.97101L9.33399 4.00701C9.55199 4.05634 9.76932 4.10501 9.93599 4.17101C10.12 4.24367 10.3693 4.38434 10.466 4.69434C10.5607 4.99767 10.4413 5.25501 10.3373 5.42101C10.2407 5.57434 10.094 5.74501 9.94399 5.92034L9.83732 6.04567L9.78266 6.11034C9.78399 6.13434 9.78732 6.16234 9.79066 6.20034L9.80666 6.36701C9.82932 6.60101 9.85132 6.82767 9.84332 7.00901C9.83532 7.19967 9.78999 7.48767 9.53132 7.68301C9.26466 7.88567 8.97132 7.84167 8.78466 7.78767C8.61266 7.73901 8.40932 7.64501 8.20466 7.55101L8.05666 7.48234L7.99999 7.45634L7.94332 7.48301L7.79466 7.55101C7.59066 7.64501 7.38732 7.73901 7.21532 7.78767C7.02866 7.84101 6.73532 7.88567 6.46866 7.68301C6.21066 7.48767 6.16466 7.19967 6.15666 7.00968C6.14866 6.82767 6.16999 6.60101 6.19332 6.36634L6.20932 6.19967L6.21799 6.11034L6.16266 6.04567L6.05599 5.92034C5.90599 5.74501 5.75932 5.57367 5.66266 5.42034C5.55866 5.25501 5.43932 4.99767 5.53399 4.69367C5.62999 4.38501 5.87999 4.24367 6.06399 4.17101C6.23066 4.10501 6.44799 4.05634 6.66599 4.00701L6.82466 3.97101L6.89132 3.95567L6.92866 3.88901L7.00932 3.74367C7.12266 3.54034 7.23266 3.34234 7.34266 3.19967ZM7.99999 4.02234C7.96177 4.08901 7.91754 4.16767 7.86732 4.25834L7.80199 4.37567L7.78666 4.40234C7.73466 4.49834 7.64799 4.65701 7.50332 4.76701C7.35599 4.87901 7.17799 4.91767 7.07466 4.94034L7.04532 4.94634L6.91866 4.97501C6.80132 5.00167 6.70599 5.02301 6.62532 5.04367C6.67799 5.10834 6.74666 5.18967 6.83599 5.29434L6.92266 5.39567L6.94266 5.41834C7.01466 5.50167 7.13066 5.63501 7.18466 5.80834C7.23799 5.97901 7.21932 6.15501 7.20799 6.26567L7.20466 6.29701L7.19132 6.43234C7.18105 6.53448 7.17171 6.6367 7.16332 6.73901C7.23332 6.70834 7.31199 6.67234 7.40599 6.62901L7.52532 6.57434L7.55199 6.56101C7.64799 6.51634 7.81399 6.43767 7.99999 6.43767C8.18599 6.43767 8.35199 6.51634 8.44799 6.56167L8.47466 6.57434L8.59399 6.62901C8.68688 6.67212 8.76777 6.70879 8.83666 6.73901C8.82827 6.6367 8.81893 6.53448 8.80866 6.43234L8.79532 6.29701L8.79199 6.26567C8.78066 6.15434 8.76199 5.97901 8.81532 5.80834C8.86866 5.63501 8.98532 5.50167 9.05732 5.41834L9.07732 5.39567L9.16399 5.29434C9.25332 5.18967 9.32199 5.10834 9.37466 5.04367C9.29399 5.02367 9.19866 5.00167 9.08132 4.97501L8.95466 4.94634L8.92532 4.93967C8.82199 4.91767 8.64399 4.87901 8.49666 4.76634C8.35199 4.65701 8.26532 4.49834 8.21332 4.40301L8.19799 4.37567L8.13266 4.25834C8.08288 4.16767 8.03866 4.08901 7.99999 4.02234Z" fill="white"/>
<path fill-rule="evenodd" clip-rule="evenodd" d="M4.99883 1.0712C5.99087 0.908188 6.99483 0.828576 8.00016 0.833198C9.21883 0.833198 10.2262 0.940531 11.0015 1.0712L11.0915 1.08653C11.7648 1.1992 12.3248 1.2932 12.7622 1.83186C13.0428 2.17786 13.1335 2.55186 13.1542 2.96853L13.4822 3.07786C13.7908 3.18053 14.0622 3.2712 14.2762 3.3712C14.5082 3.4792 14.7208 3.61786 14.8835 3.84386C15.0462 4.06986 15.1108 4.3152 15.1402 4.5692C15.1668 4.80453 15.1668 5.0892 15.1668 5.41586V5.51186C15.1668 5.77986 15.1668 6.01653 15.1468 6.21453C15.1255 6.42853 15.0782 6.6372 14.9602 6.83853C14.8408 7.04053 14.6815 7.1832 14.5048 7.30586C14.3415 7.4192 14.1348 7.53453 13.9002 7.66453L12.1402 8.64253C11.7802 9.34986 11.2868 9.98053 10.6068 10.4359C10.0235 10.8272 9.3255 11.0752 8.50016 11.1459V12.4999H9.4535C9.72322 12.4999 9.98461 12.5933 10.1932 12.7644C10.4018 12.9354 10.5446 13.1734 10.5975 13.4379L10.7435 14.1665H12.0002C12.1328 14.1665 12.2599 14.2192 12.3537 14.313C12.4475 14.4067 12.5002 14.5339 12.5002 14.6665C12.5002 14.7991 12.4475 14.9263 12.3537 15.0201C12.2599 15.1139 12.1328 15.1665 12.0002 15.1665H4.00016C3.86755 15.1665 3.74038 15.1139 3.64661 15.0201C3.55284 14.9263 3.50016 14.7991 3.50016 14.6665C3.50016 14.5339 3.55284 14.4067 3.64661 14.313C3.74038 14.2192 3.86755 14.1665 4.00016 14.1665H5.25683L5.40283 13.4379C5.4557 13.1734 5.59857 12.9354 5.80715 12.7644C6.01572 12.5933 6.27711 12.4999 6.54683 12.4999H7.50016V11.1459C6.67483 11.0752 5.97683 10.8272 5.3935 10.4365C4.71416 9.98053 4.22016 9.34986 3.86016 8.64253L2.10016 7.66453C1.89299 7.55471 1.6912 7.43502 1.4955 7.30586C1.31087 7.18636 1.15548 7.02687 1.04083 6.8392C0.932297 6.64767 0.86827 6.43417 0.853496 6.21453C0.833496 6.01653 0.833496 5.77986 0.833496 5.51186V5.4152C0.833496 5.08986 0.833496 4.80453 0.860163 4.5692C0.889496 4.3152 0.953496 4.0692 1.11683 3.84386C1.2795 3.61786 1.49216 3.4792 1.7235 3.37053C1.93883 3.27053 2.2095 3.18053 2.51816 3.07786L2.84616 2.96853C2.86683 2.5512 2.9575 2.17786 3.23816 1.83186C3.67616 1.29253 4.2355 1.19853 4.9095 1.08653L4.99883 1.0712ZM6.27683 14.1665H9.7235L9.61683 13.6339C9.60928 13.5961 9.58888 13.5621 9.55911 13.5377C9.52933 13.5133 9.49201 13.4999 9.4535 13.4999H6.54683C6.50831 13.4999 6.471 13.5133 6.44122 13.5377C6.41144 13.5621 6.39105 13.5961 6.3835 13.6339L6.27683 14.1665ZM2.86816 4.0152L2.85883 4.01853C2.51883 4.13186 2.30283 4.2052 2.1455 4.27786C2.00083 4.34453 1.95416 4.39186 1.92816 4.42853C1.90216 4.4652 1.87216 4.52386 1.85416 4.68253C1.83416 4.85453 1.8335 5.08253 1.8335 5.4412V5.48986C1.8335 5.78653 1.8335 5.97253 1.84816 6.1152C1.8615 6.24586 1.88283 6.29853 1.90283 6.33186C1.92216 6.3652 1.9575 6.4092 2.0655 6.48453C2.18283 6.56587 2.3455 6.65653 2.6055 6.8012L3.3155 7.19586C3.03016 6.1492 2.9155 5.0292 2.86883 4.01586M12.6855 7.19586C12.9708 6.1492 13.0855 5.0292 13.1328 4.01586L13.1422 4.0192C13.4822 4.13253 13.6982 4.20586 13.8555 4.27853C14.0002 4.3452 14.0468 4.39253 14.0728 4.4292C14.0988 4.46586 14.1288 4.52453 14.1468 4.6832C14.1668 4.8552 14.1675 5.0832 14.1675 5.44186V5.49053C14.1675 5.7872 14.1675 5.9732 14.1528 6.11586C14.1395 6.24653 14.1182 6.2992 14.0982 6.33253C14.0788 6.36586 14.0435 6.40986 13.9355 6.4852C13.8175 6.56653 13.6555 6.6572 13.3955 6.80186L12.6855 7.19586ZM8.00016 1.8332C6.84016 1.8332 5.88883 1.9352 5.1655 2.0572C4.36083 2.1932 4.19216 2.24386 4.01483 2.46253C3.84016 2.6772 3.8235 2.8812 3.85883 3.78453C3.91883 5.28986 4.1175 6.9152 4.73216 8.1512C5.03616 8.76053 5.4335 9.2592 5.95083 9.60587C6.46416 9.95053 7.1275 10.1665 8.00016 10.1665C8.8735 10.1665 9.53616 9.95053 10.0502 9.60587C10.5675 9.2592 10.9642 8.76053 11.2675 8.15053C11.8828 6.9152 12.0815 5.29053 12.1408 3.78386C12.1775 2.8812 12.1608 2.6772 11.9862 2.46253C11.8088 2.24386 11.6395 2.1932 10.8348 2.0572C9.89782 1.90381 8.94964 1.82888 8.00016 1.8332Z" fill="white"/>
</svg>
