<svg width="26" height="26" viewBox="0 0 26 26" fill="none" xmlns="http://www.w3.org/2000/svg">
<rect width="26" height="26" rx="13" fill="#FF9500"/>
<path fill-rule="evenodd" clip-rule="evenodd" d="M7.17808 10.372C7.16699 10.7972 7.16699 11.2802 7.16699 11.8332V12.9999H11.8902C11.6914 12.9061 11.4779 12.8472 11.2591 12.8255L10.0837 12.7082C9.31774 12.6318 8.93449 12.5933 8.62358 12.4673C8.29785 12.3352 8.00616 12.1313 7.7703 11.8707C7.53445 11.6101 7.36051 11.2996 7.26149 10.9623C7.21308 10.7967 7.18916 10.6147 7.17808 10.372ZM18.7602 9.36865L18.542 15.9166C18.2647 15.9166 17.9901 15.862 17.7338 15.7559C17.4776 15.6498 17.2448 15.4943 17.0487 15.2982L16.3907 14.6402C16.1748 14.4244 16.0669 14.3165 15.9578 14.2477C15.7711 14.1294 15.5547 14.0666 15.3337 14.0666C15.1127 14.0666 14.8962 14.1294 14.7095 14.2477C14.6004 14.3165 14.4925 14.4244 14.2767 14.6402L13.8252 15.0917C13.7575 15.1591 13.6714 15.205 13.5777 15.2235C13.484 15.242 13.387 15.2324 13.2988 15.1958C13.2106 15.1593 13.1351 15.0974 13.082 15.0181C13.0289 14.9387 13.0005 14.8454 13.0003 14.7499V18.8332H14.167C16.3667 18.8332 17.4669 18.8332 18.15 18.1496C18.8331 17.4659 18.8337 16.3663 18.8337 14.1666V11.8332C18.8337 10.7873 18.8337 9.9899 18.7602 9.36865Z" fill="#161F2E"/>
<path d="M17.7372 8.26217C17.522 8.0475 17.2198 7.90692 16.6493 7.8305C16.0619 7.75117 15.2832 7.75 14.1667 7.75H11.8333C10.7168 7.75 9.93808 7.75117 9.35067 7.8305C8.78017 7.90692 8.478 8.04692 8.26217 8.26275C8.0475 8.478 7.90692 8.78017 7.8305 9.35067C7.75117 9.93808 7.75 10.7168 7.75 11.8333V12.4167H11.8654C12.1133 12.4167 12.3525 12.4167 12.5508 12.4435C12.7748 12.4732 13.0297 12.5468 13.2415 12.7585C13.4532 12.9703 13.5268 13.2252 13.5565 13.4492C13.5833 13.6469 13.5833 13.8872 13.5833 14.1352V18.25H14.1667C15.2832 18.25 16.0619 18.2488 16.6493 18.1701C17.2198 18.0931 17.522 17.9531 17.7372 17.7372C17.9525 17.522 18.0931 17.2198 18.1701 16.6493C18.2488 16.0619 18.25 15.2832 18.25 14.1667V11.8333C18.25 10.7168 18.2488 9.93808 18.1701 9.35067C18.0931 8.78017 17.9531 8.478 17.7372 8.26217ZM17.7372 8.26217L18.1398 7.85967" stroke="#161F2E" stroke-width="1.4"/>
<path d="M15.3337 11.8333C15.978 11.8333 16.5003 11.311 16.5003 10.6667C16.5003 10.0223 15.978 9.5 15.3337 9.5C14.6893 9.5 14.167 10.0223 14.167 10.6667C14.167 11.311 14.6893 11.8333 15.3337 11.8333Z" fill="#161F2E"/>
<path d="M10.6666 15.3333V14.75H11.2499V15.3333H10.6666ZM8.11447 18.1217C8.05505 18.1724 7.98604 18.2107 7.91154 18.2342C7.83704 18.2578 7.75856 18.2662 7.68077 18.2588C7.60298 18.2514 7.52746 18.2285 7.45869 18.1914C7.38993 18.1543 7.32931 18.1038 7.28046 18.0428C7.2316 17.9818 7.19548 17.9117 7.17426 17.8365C7.15305 17.7613 7.14715 17.6826 7.15693 17.605C7.16671 17.5275 7.19197 17.4528 7.2312 17.3852C7.27043 17.3176 7.32284 17.2586 7.38531 17.2117L8.11447 18.1217ZM10.0832 18.25V15.3333H11.2499V18.25H10.0832ZM10.6666 15.9167H7.74989V14.75H10.6666V15.9167ZM11.0311 15.7883L8.11447 18.1217L7.38531 17.2117L10.302 14.8783L11.0311 15.7883Z" fill="#161F2E"/>
</svg>
