<svg width="40" height="40" viewBox="0 0 49 49" fill="none" xmlns="http://www.w3.org/2000/svg">
<circle cx="24.5" cy="24.5" r="24.25" fill="white" stroke="#D4D4D4" stroke-width="0.5"/>
<path d="M34 30V32C34 32.5304 33.7893 33.0391 33.4142 33.4142C33.0391 33.7893 32.5304 34 32 34H18C17.4696 34 16.9609 33.7893 16.5858 33.4142C16.2107 33.0391 16 32.5304 16 32V30M34 20V18C34 17.4696 33.7893 16.9609 33.4142 16.5858C33.0391 16.2107 32.5304 16 32 16H18C17.4696 16 16.9609 16.2107 16.5858 16.5858C16.2107 16.9609 16 17.4696 16 18V20" stroke="#323232" stroke-width="2" stroke-linecap="round" stroke-linejoin="round"/>
<path d="M25 26C25.5523 26 26 25.5523 26 25C26 24.4477 25.5523 24 25 24C24.4477 24 24 24.4477 24 25C24 25.5523 24.4477 26 25 26Z" stroke="#323232" stroke-width="2" stroke-linecap="round" stroke-linejoin="round"/>
<path d="M31.944 25.33C32.0187 25.1164 32.0187 24.8837 31.944 24.67C31.381 23.2905 30.4198 22.1098 29.1831 21.2788C27.9463 20.4477 26.4901 20.0039 25 20.0039C23.51 20.0039 22.0537 20.4477 20.817 21.2788C19.5802 22.1098 18.619 23.2905 18.056 24.67C17.9813 24.8837 17.9813 25.1164 18.056 25.33C18.619 26.7096 19.5802 27.8902 20.817 28.7213C22.0537 29.5523 23.51 29.9962 25 29.9962C26.4901 29.9962 27.9463 29.5523 29.1831 28.7213C30.4198 27.8902 31.381 26.7096 31.944 25.33Z" stroke="#323232" stroke-width="2" stroke-linecap="round" stroke-linejoin="round"/>
</svg>
